<svg width="112" height="64" viewBox="0 0 112 64" fill="none" xmlns="http://www.w3.org/2000/svg">
<circle cx="55.5" cy="22.5" r="21.5" fill="white" stroke="#1B344C" stroke-width="2"/>
<path d="M11.0195 49.9189H8.20703V51.8232H11.5078V53H6.74219V45.8906H11.498V47.0771H8.20703V48.7715H11.0195V49.9189ZM13.7637 53H12.3477V45.5H13.7637V53ZM17.3623 53.0977C16.5876 53.0977 15.9561 52.86 15.4678 52.3848C14.9827 51.9095 14.7402 51.2764 14.7402 50.4854V50.3486C14.7402 49.818 14.8428 49.3444 15.0479 48.9277C15.2529 48.5078 15.5426 48.1855 15.917 47.9609C16.2946 47.7331 16.7243 47.6191 17.2061 47.6191C17.9287 47.6191 18.4967 47.847 18.9102 48.3027C19.3268 48.7585 19.5352 49.4046 19.5352 50.2412V50.8174H16.1709C16.2165 51.1624 16.3532 51.4391 16.5811 51.6475C16.8122 51.8558 17.1035 51.96 17.4551 51.96C17.9987 51.96 18.4235 51.763 18.7295 51.3691L19.4229 52.1455C19.2113 52.445 18.9248 52.6794 18.5635 52.8486C18.2021 53.0146 17.8018 53.0977 17.3623 53.0977ZM17.2012 48.7617C16.9212 48.7617 16.6934 48.8561 16.5176 49.0449C16.3451 49.2337 16.2344 49.5039 16.1855 49.8555H18.1484V49.7432C18.1419 49.4307 18.0573 49.1898 17.8945 49.0205C17.7318 48.848 17.5007 48.7617 17.2012 48.7617ZM21.6641 47.7168L21.708 48.3076C22.0824 47.8486 22.5885 47.6191 23.2266 47.6191C23.9069 47.6191 24.374 47.8877 24.6279 48.4248C24.999 47.8877 25.528 47.6191 26.2148 47.6191C26.7878 47.6191 27.2142 47.7868 27.4941 48.1221C27.7741 48.4541 27.9141 48.9554 27.9141 49.626V53H26.498V49.6309C26.498 49.3314 26.4395 49.1133 26.3223 48.9766C26.2051 48.8366 25.9984 48.7666 25.7021 48.7666C25.279 48.7666 24.986 48.9684 24.8232 49.3721L24.8281 53H23.417V49.6357C23.417 49.3298 23.3568 49.1084 23.2363 48.9717C23.1159 48.835 22.9108 48.7666 22.6211 48.7666C22.2207 48.7666 21.931 48.9326 21.752 49.2646V53H20.3408V47.7168H21.6641ZM31.4346 53.0977C30.6598 53.0977 30.0283 52.86 29.54 52.3848C29.055 51.9095 28.8125 51.2764 28.8125 50.4854V50.3486C28.8125 49.818 28.915 49.3444 29.1201 48.9277C29.3252 48.5078 29.6149 48.1855 29.9893 47.9609C30.3669 47.7331 30.7965 47.6191 31.2783 47.6191C32.001 47.6191 32.569 47.847 32.9824 48.3027C33.3991 48.7585 33.6074 49.4046 33.6074 50.2412V50.8174H30.2432C30.2887 51.1624 30.4255 51.4391 30.6533 51.6475C30.8844 51.8558 31.1758 51.96 31.5273 51.96C32.071 51.96 32.4958 51.763 32.8018 51.3691L33.4951 52.1455C33.2835 52.445 32.9971 52.6794 32.6357 52.8486C32.2744 53.0146 31.874 53.0977 31.4346 53.0977ZM31.2734 48.7617C30.9935 48.7617 30.7656 48.8561 30.5898 49.0449C30.4173 49.2337 30.3066 49.5039 30.2578 49.8555H32.2207V49.7432C32.2142 49.4307 32.1296 49.1898 31.9668 49.0205C31.804 48.848 31.5729 48.7617 31.2734 48.7617ZM35.7119 47.7168L35.7559 48.3271C36.1335 47.8551 36.6396 47.6191 37.2744 47.6191C37.8343 47.6191 38.251 47.7835 38.5244 48.1123C38.7979 48.4411 38.9378 48.9326 38.9443 49.5869V53H37.5332V49.6211C37.5332 49.3216 37.4681 49.1051 37.3379 48.9717C37.2077 48.835 36.9912 48.7666 36.6885 48.7666C36.2913 48.7666 35.9935 48.9359 35.7949 49.2744V53H34.3838V47.7168H35.7119ZM41.708 46.418V47.7168H42.6113V48.752H41.708V51.3887C41.708 51.584 41.7454 51.724 41.8203 51.8086C41.8952 51.8932 42.0384 51.9355 42.25 51.9355C42.4062 51.9355 42.5446 51.9242 42.665 51.9014V52.9707C42.3883 53.0553 42.1035 53.0977 41.8105 53.0977C40.821 53.0977 40.3164 52.598 40.2969 51.5986V48.752H39.5254V47.7168H40.2969V46.418H41.708ZM43.0312 50.3096C43.0312 49.7855 43.1322 49.3184 43.334 48.9082C43.5358 48.498 43.8255 48.1807 44.2031 47.9561C44.584 47.7314 45.0251 47.6191 45.5264 47.6191C46.2393 47.6191 46.8203 47.8372 47.2695 48.2734C47.722 48.7096 47.9743 49.3021 48.0264 50.0508L48.0361 50.4121C48.0361 51.2227 47.8099 51.8737 47.3574 52.3652C46.9049 52.8535 46.2979 53.0977 45.5361 53.0977C44.7744 53.0977 44.1657 52.8535 43.71 52.3652C43.2575 51.877 43.0312 51.2129 43.0312 50.373V50.3096ZM44.4424 50.4121C44.4424 50.9134 44.5368 51.2975 44.7256 51.5645C44.9144 51.8281 45.1846 51.96 45.5361 51.96C45.8779 51.96 46.1449 51.8298 46.3369 51.5693C46.529 51.3057 46.625 50.8857 46.625 50.3096C46.625 49.818 46.529 49.4372 46.3369 49.167C46.1449 48.8968 45.8747 48.7617 45.5264 48.7617C45.1813 48.7617 44.9144 48.8968 44.7256 49.167C44.5368 49.4339 44.4424 49.849 44.4424 50.4121ZM51.7666 51.54C51.7666 51.3675 51.6803 51.2324 51.5078 51.1348C51.3385 51.0339 51.0651 50.9443 50.6875 50.8662C49.431 50.6025 48.8027 50.0687 48.8027 49.2646C48.8027 48.7959 48.9964 48.4053 49.3838 48.0928C49.7744 47.777 50.2839 47.6191 50.9121 47.6191C51.5827 47.6191 52.1182 47.777 52.5186 48.0928C52.9222 48.4085 53.124 48.8187 53.124 49.3232H51.7129C51.7129 49.1214 51.6478 48.9554 51.5176 48.8252C51.3874 48.6917 51.1839 48.625 50.9072 48.625C50.6696 48.625 50.4857 48.6787 50.3555 48.7861C50.2253 48.8936 50.1602 49.0303 50.1602 49.1963C50.1602 49.3525 50.2334 49.4795 50.3799 49.5771C50.5296 49.6715 50.7803 49.7546 51.1318 49.8262C51.4834 49.8945 51.7796 49.9727 52.0205 50.0605C52.766 50.334 53.1387 50.8076 53.1387 51.4814C53.1387 51.9632 52.932 52.3538 52.5186 52.6533C52.1051 52.9495 51.5713 53.0977 50.917 53.0977C50.4743 53.0977 50.0804 53.0195 49.7354 52.8633C49.3936 52.7038 49.125 52.4873 48.9297 52.2139C48.7344 51.9372 48.6367 51.6393 48.6367 51.3203H49.9746C49.9876 51.571 50.0804 51.763 50.2529 51.8965C50.4255 52.0299 50.6566 52.0967 50.9463 52.0967C51.2165 52.0967 51.4199 52.0462 51.5566 51.9453C51.6966 51.8411 51.7666 51.7061 51.7666 51.54ZM61.2979 50.4072C61.2979 51.221 61.1123 51.8737 60.7412 52.3652C60.3734 52.8535 59.8753 53.0977 59.2471 53.0977C58.7132 53.0977 58.2819 52.9121 57.9531 52.541V55.0312H56.542V47.7168H57.8506L57.8994 48.2344C58.2412 47.8242 58.6872 47.6191 59.2373 47.6191C59.8883 47.6191 60.3945 47.86 60.7559 48.3418C61.1172 48.8236 61.2979 49.4876 61.2979 50.334V50.4072ZM59.8867 50.3047C59.8867 49.8132 59.7988 49.4339 59.623 49.167C59.4505 48.9001 59.1982 48.7666 58.8662 48.7666C58.4235 48.7666 58.1191 48.9359 57.9531 49.2744V51.4375C58.1257 51.7858 58.4333 51.96 58.876 51.96C59.5498 51.96 59.8867 51.4082 59.8867 50.3047ZM64.6084 53.0977C63.8337 53.0977 63.2021 52.86 62.7139 52.3848C62.2288 51.9095 61.9863 51.2764 61.9863 50.4854V50.3486C61.9863 49.818 62.0889 49.3444 62.2939 48.9277C62.499 48.5078 62.7887 48.1855 63.1631 47.9609C63.5407 47.7331 63.9704 47.6191 64.4521 47.6191C65.1748 47.6191 65.7428 47.847 66.1562 48.3027C66.5729 48.7585 66.7812 49.4046 66.7812 50.2412V50.8174H63.417C63.4626 51.1624 63.5993 51.4391 63.8271 51.6475C64.0583 51.8558 64.3496 51.96 64.7012 51.96C65.2448 51.96 65.6696 51.763 65.9756 51.3691L66.6689 52.1455C66.4574 52.445 66.1709 52.6794 65.8096 52.8486C65.4482 53.0146 65.0479 53.0977 64.6084 53.0977ZM64.4473 48.7617C64.1673 48.7617 63.9395 48.8561 63.7637 49.0449C63.5911 49.2337 63.4805 49.5039 63.4316 49.8555H65.3945V49.7432C65.388 49.4307 65.3034 49.1898 65.1406 49.0205C64.9779 48.848 64.7467 48.7617 64.4473 48.7617ZM68.8857 47.7168L68.9297 48.3271C69.3073 47.8551 69.8135 47.6191 70.4482 47.6191C71.0081 47.6191 71.4248 47.7835 71.6982 48.1123C71.9717 48.4411 72.1117 48.9326 72.1182 49.5869V53H70.707V49.6211C70.707 49.3216 70.6419 49.1051 70.5117 48.9717C70.3815 48.835 70.165 48.7666 69.8623 48.7666C69.4652 48.7666 69.1673 48.9359 68.9688 49.2744V53H67.5576V47.7168H68.8857ZM72.9727 50.3193C72.9727 49.4958 73.1566 48.8398 73.5244 48.3516C73.8955 47.8633 74.4017 47.6191 75.043 47.6191C75.5573 47.6191 75.9821 47.8112 76.3174 48.1953V45.5H77.7334V53H76.459L76.3906 52.4385C76.0391 52.8779 75.5866 53.0977 75.0332 53.0977C74.4115 53.0977 73.9118 52.8535 73.5342 52.3652C73.1598 51.8737 72.9727 51.1917 72.9727 50.3193ZM74.3838 50.4219C74.3838 50.9167 74.4701 51.2959 74.6426 51.5596C74.8151 51.8232 75.0658 51.9551 75.3945 51.9551C75.8307 51.9551 76.1383 51.7712 76.3174 51.4033V49.3184C76.1416 48.9505 75.8372 48.7666 75.4043 48.7666C74.724 48.7666 74.3838 49.3184 74.3838 50.4219ZM80.3164 53H78.9004V47.7168H80.3164V53ZM78.8174 46.3496C78.8174 46.138 78.8874 45.9639 79.0273 45.8271C79.1706 45.6904 79.3643 45.6221 79.6084 45.6221C79.8493 45.6221 80.0413 45.6904 80.1846 45.8271C80.3278 45.9639 80.3994 46.138 80.3994 46.3496C80.3994 46.5645 80.3262 46.7402 80.1797 46.877C80.0365 47.0137 79.846 47.082 79.6084 47.082C79.3708 47.082 79.1787 47.0137 79.0322 46.877C78.889 46.7402 78.8174 46.5645 78.8174 46.3496ZM83.915 53.0977C83.1403 53.0977 82.5088 52.86 82.0205 52.3848C81.5355 51.9095 81.293 51.2764 81.293 50.4854V50.3486C81.293 49.818 81.3955 49.3444 81.6006 48.9277C81.8057 48.5078 82.0954 48.1855 82.4697 47.9609C82.8473 47.7331 83.277 47.6191 83.7588 47.6191C84.4814 47.6191 85.0495 47.847 85.4629 48.3027C85.8796 48.7585 86.0879 49.4046 86.0879 50.2412V50.8174H82.7236C82.7692 51.1624 82.9059 51.4391 83.1338 51.6475C83.3649 51.8558 83.6562 51.96 84.0078 51.96C84.5514 51.96 84.9762 51.763 85.2822 51.3691L85.9756 52.1455C85.764 52.445 85.4775 52.6794 85.1162 52.8486C84.7549 53.0146 84.3545 53.0977 83.915 53.0977ZM83.7539 48.7617C83.474 48.7617 83.2461 48.8561 83.0703 49.0449C82.8978 49.2337 82.7871 49.5039 82.7383 49.8555H84.7012V49.7432C84.6947 49.4307 84.61 49.1898 84.4473 49.0205C84.2845 48.848 84.0534 48.7617 83.7539 48.7617ZM88.1924 47.7168L88.2363 48.3271C88.6139 47.8551 89.1201 47.6191 89.7549 47.6191C90.3148 47.6191 90.7314 47.7835 91.0049 48.1123C91.2783 48.4411 91.4183 48.9326 91.4248 49.5869V53H90.0137V49.6211C90.0137 49.3216 89.9486 49.1051 89.8184 48.9717C89.6882 48.835 89.4717 48.7666 89.1689 48.7666C88.7718 48.7666 88.474 48.9359 88.2754 49.2744V53H86.8643V47.7168H88.1924ZM94.1885 46.418V47.7168H95.0918V48.752H94.1885V51.3887C94.1885 51.584 94.2259 51.724 94.3008 51.8086C94.3757 51.8932 94.5189 51.9355 94.7305 51.9355C94.8867 51.9355 95.0251 51.9242 95.1455 51.9014V52.9707C94.8688 53.0553 94.584 53.0977 94.291 53.0977C93.3014 53.0977 92.7969 52.598 92.7773 51.5986V48.752H92.0059V47.7168H92.7773V46.418H94.1885ZM98.3096 53.0977C97.5348 53.0977 96.9033 52.86 96.415 52.3848C95.93 51.9095 95.6875 51.2764 95.6875 50.4854V50.3486C95.6875 49.818 95.79 49.3444 95.9951 48.9277C96.2002 48.5078 96.4899 48.1855 96.8643 47.9609C97.2419 47.7331 97.6715 47.6191 98.1533 47.6191C98.876 47.6191 99.444 47.847 99.8574 48.3027C100.274 48.7585 100.482 49.4046 100.482 50.2412V50.8174H97.1182C97.1637 51.1624 97.3005 51.4391 97.5283 51.6475C97.7594 51.8558 98.0508 51.96 98.4023 51.96C98.946 51.96 99.3708 51.763 99.6768 51.3691L100.37 52.1455C100.159 52.445 99.8721 52.6794 99.5107 52.8486C99.1494 53.0146 98.749 53.0977 98.3096 53.0977ZM98.1484 48.7617C97.8685 48.7617 97.6406 48.8561 97.4648 49.0449C97.2923 49.2337 97.1816 49.5039 97.1328 49.8555H99.0957V49.7432C99.0892 49.4307 99.0046 49.1898 98.8418 49.0205C98.679 48.848 98.4479 48.7617 98.1484 48.7617ZM104.149 51.54C104.149 51.3675 104.063 51.2324 103.891 51.1348C103.721 51.0339 103.448 50.9443 103.07 50.8662C101.814 50.6025 101.186 50.0687 101.186 49.2646C101.186 48.7959 101.379 48.4053 101.767 48.0928C102.157 47.777 102.667 47.6191 103.295 47.6191C103.965 47.6191 104.501 47.777 104.901 48.0928C105.305 48.4085 105.507 48.8187 105.507 49.3232H104.096C104.096 49.1214 104.031 48.9554 103.9 48.8252C103.77 48.6917 103.567 48.625 103.29 48.625C103.052 48.625 102.868 48.6787 102.738 48.7861C102.608 48.8936 102.543 49.0303 102.543 49.1963C102.543 49.3525 102.616 49.4795 102.763 49.5771C102.912 49.6715 103.163 49.7546 103.515 49.8262C103.866 49.8945 104.162 49.9727 104.403 50.0605C105.149 50.334 105.521 50.8076 105.521 51.4814C105.521 51.9632 105.315 52.3538 104.901 52.6533C104.488 52.9495 103.954 53.0977 103.3 53.0977C102.857 53.0977 102.463 53.0195 102.118 52.8633C101.776 52.7038 101.508 52.4873 101.312 52.2139C101.117 51.9372 101.02 51.6393 101.02 51.3203H102.357C102.37 51.571 102.463 51.763 102.636 51.8965C102.808 52.0299 103.039 52.0967 103.329 52.0967C103.599 52.0967 103.803 52.0462 103.939 51.9453C104.079 51.8411 104.149 51.7061 104.149 51.54ZM35.834 58.4072C35.834 59.221 35.6484 59.8737 35.2773 60.3652C34.9095 60.8535 34.4115 61.0977 33.7832 61.0977C33.2493 61.0977 32.818 60.9121 32.4893 60.541V63.0312H31.0781V55.7168H32.3867L32.4355 56.2344C32.7773 55.8242 33.2233 55.6191 33.7734 55.6191C34.4245 55.6191 34.9307 55.86 35.292 56.3418C35.6533 56.8236 35.834 57.4876 35.834 58.334V58.4072ZM34.4229 58.3047C34.4229 57.8132 34.335 57.4339 34.1592 57.167C33.9867 56.9001 33.7344 56.7666 33.4023 56.7666C32.9596 56.7666 32.6553 56.9359 32.4893 57.2744V59.4375C32.6618 59.7858 32.9694 59.96 33.4121 59.96C34.0859 59.96 34.4229 59.4082 34.4229 58.3047ZM36.4932 58.3096C36.4932 57.7855 36.5941 57.3184 36.7959 56.9082C36.9977 56.498 37.2874 56.1807 37.665 55.9561C38.0459 55.7314 38.487 55.6191 38.9883 55.6191C39.7012 55.6191 40.2822 55.8372 40.7314 56.2734C41.1839 56.7096 41.4362 57.3021 41.4883 58.0508L41.498 58.4121C41.498 59.2227 41.2718 59.8737 40.8193 60.3652C40.3669 60.8535 39.7598 61.0977 38.998 61.0977C38.2363 61.0977 37.6276 60.8535 37.1719 60.3652C36.7194 59.877 36.4932 59.2129 36.4932 58.373V58.3096ZM37.9043 58.4121C37.9043 58.9134 37.9987 59.2975 38.1875 59.5645C38.3763 59.8281 38.6465 59.96 38.998 59.96C39.3398 59.96 39.6068 59.8298 39.7988 59.5693C39.9909 59.3057 40.0869 58.8857 40.0869 58.3096C40.0869 57.818 39.9909 57.4372 39.7988 57.167C39.6068 56.8968 39.3366 56.7617 38.9883 56.7617C38.6432 56.7617 38.3763 56.8968 38.1875 57.167C37.9987 57.4339 37.9043 57.849 37.9043 58.4121ZM45.3359 57.04C45.1439 57.014 44.9746 57.001 44.8281 57.001C44.2943 57.001 43.9443 57.1816 43.7783 57.543V61H42.3672V55.7168H43.7002L43.7393 56.3467C44.0225 55.8617 44.4147 55.6191 44.916 55.6191C45.0723 55.6191 45.2188 55.6403 45.3555 55.6826L45.3359 57.04ZM51.5713 61C51.5062 60.873 51.459 60.7152 51.4297 60.5264C51.0879 60.9072 50.6436 61.0977 50.0967 61.0977C49.5791 61.0977 49.1494 60.9479 48.8076 60.6484C48.4691 60.349 48.2998 59.9714 48.2998 59.5156C48.2998 58.9557 48.5065 58.526 48.9199 58.2266C49.3366 57.9271 49.9372 57.7757 50.7217 57.7725H51.3711V57.4697C51.3711 57.2256 51.3076 57.0303 51.1807 56.8838C51.057 56.7373 50.86 56.6641 50.5898 56.6641C50.3522 56.6641 50.165 56.721 50.0283 56.835C49.8949 56.9489 49.8281 57.1051 49.8281 57.3037H48.417C48.417 56.9977 48.5114 56.7145 48.7002 56.4541C48.889 56.1937 49.1559 55.9902 49.501 55.8438C49.846 55.694 50.2334 55.6191 50.6631 55.6191C51.3141 55.6191 51.8301 55.7835 52.2109 56.1123C52.5951 56.4378 52.7871 56.8968 52.7871 57.4893V59.7793C52.7904 60.2806 52.8604 60.6598 52.9971 60.917V61H51.5713ZM50.4043 60.0186C50.6126 60.0186 50.8047 59.973 50.9805 59.8818C51.1562 59.7874 51.2865 59.6621 51.3711 59.5059V58.5977H50.8438C50.1374 58.5977 49.7614 58.8418 49.7158 59.3301L49.7109 59.4131C49.7109 59.5889 49.7728 59.7337 49.8965 59.8477C50.0202 59.9616 50.1895 60.0186 50.4043 60.0186ZM56.7324 59.54C56.7324 59.3675 56.6462 59.2324 56.4736 59.1348C56.3044 59.0339 56.0309 58.9443 55.6533 58.8662C54.3968 58.6025 53.7686 58.0687 53.7686 57.2646C53.7686 56.7959 53.9622 56.4053 54.3496 56.0928C54.7402 55.777 55.2497 55.6191 55.8779 55.6191C56.5485 55.6191 57.084 55.777 57.4844 56.0928C57.888 56.4085 58.0898 56.8187 58.0898 57.3232H56.6787C56.6787 57.1214 56.6136 56.9554 56.4834 56.8252C56.3532 56.6917 56.1497 56.625 55.873 56.625C55.6354 56.625 55.4515 56.6787 55.3213 56.7861C55.1911 56.8936 55.126 57.0303 55.126 57.1963C55.126 57.3525 55.1992 57.4795 55.3457 57.5771C55.4954 57.6715 55.7461 57.7546 56.0977 57.8262C56.4492 57.8945 56.7454 57.9727 56.9863 58.0605C57.7318 58.334 58.1045 58.8076 58.1045 59.4814C58.1045 59.9632 57.8978 60.3538 57.4844 60.6533C57.071 60.9495 56.5371 61.0977 55.8828 61.0977C55.4401 61.0977 55.0462 61.0195 54.7012 60.8633C54.3594 60.7038 54.0908 60.4873 53.8955 60.2139C53.7002 59.9372 53.6025 59.6393 53.6025 59.3203H54.9404C54.9535 59.571 55.0462 59.763 55.2188 59.8965C55.3913 60.0299 55.6224 60.0967 55.9121 60.0967C56.1823 60.0967 56.3857 60.0462 56.5225 59.9453C56.6624 59.8411 56.7324 59.7061 56.7324 59.54ZM60.5068 61H59.0908V55.7168H60.5068V61ZM59.0078 54.3496C59.0078 54.138 59.0778 53.9639 59.2178 53.8271C59.361 53.6904 59.5547 53.6221 59.7988 53.6221C60.0397 53.6221 60.2318 53.6904 60.375 53.8271C60.5182 53.9639 60.5898 54.138 60.5898 54.3496C60.5898 54.5645 60.5166 54.7402 60.3701 54.877C60.2269 55.0137 60.0365 55.082 59.7988 55.082C59.5612 55.082 59.3691 55.0137 59.2227 54.877C59.0794 54.7402 59.0078 54.5645 59.0078 54.3496ZM61.4688 58.3193C61.4688 57.5088 61.6608 56.8561 62.0449 56.3613C62.4323 55.8665 62.9531 55.6191 63.6074 55.6191C64.1868 55.6191 64.6377 55.8177 64.96 56.2148L65.0186 55.7168H66.2979V60.8242C66.2979 61.2865 66.1921 61.6885 65.9805 62.0303C65.7721 62.3721 65.4775 62.6325 65.0967 62.8115C64.7158 62.9906 64.2699 63.0801 63.7588 63.0801C63.3714 63.0801 62.9938 63.002 62.626 62.8457C62.2581 62.6927 61.9798 62.4941 61.791 62.25L62.416 61.3906C62.7676 61.7845 63.194 61.9814 63.6953 61.9814C64.0697 61.9814 64.361 61.8805 64.5693 61.6787C64.7777 61.4801 64.8818 61.1969 64.8818 60.8291V60.5459C64.5563 60.9137 64.1283 61.0977 63.5977 61.0977C62.9629 61.0977 62.4486 60.8503 62.0547 60.3555C61.6641 59.8574 61.4688 59.1982 61.4688 58.3779V58.3193ZM62.8799 58.4219C62.8799 58.9004 62.9759 59.2764 63.168 59.5498C63.36 59.82 63.6237 59.9551 63.959 59.9551C64.3887 59.9551 64.6963 59.7939 64.8818 59.4717V57.25C64.693 56.9277 64.3887 56.7666 63.9688 56.7666C63.6302 56.7666 63.3633 56.9049 63.168 57.1816C62.9759 57.4583 62.8799 57.8717 62.8799 58.4219ZM68.6855 55.7168L68.7295 56.3271C69.1071 55.8551 69.6133 55.6191 70.248 55.6191C70.8079 55.6191 71.2246 55.7835 71.498 56.1123C71.7715 56.4411 71.9115 56.9326 71.918 57.5869V61H70.5068V57.6211C70.5068 57.3216 70.4417 57.1051 70.3115 56.9717C70.1813 56.835 69.9648 56.7666 69.6621 56.7666C69.265 56.7666 68.9671 56.9359 68.7686 57.2744V61H67.3574V55.7168H68.6855ZM76.0537 61C75.9886 60.873 75.9414 60.7152 75.9121 60.5264C75.5703 60.9072 75.126 61.0977 74.5791 61.0977C74.0615 61.0977 73.6318 60.9479 73.29 60.6484C72.9515 60.349 72.7822 59.9714 72.7822 59.5156C72.7822 58.9557 72.9889 58.526 73.4023 58.2266C73.819 57.9271 74.4196 57.7757 75.2041 57.7725H75.8535V57.4697C75.8535 57.2256 75.79 57.0303 75.6631 56.8838C75.5394 56.7373 75.3424 56.6641 75.0723 56.6641C74.8346 56.6641 74.6475 56.721 74.5107 56.835C74.3773 56.9489 74.3105 57.1051 74.3105 57.3037H72.8994C72.8994 56.9977 72.9938 56.7145 73.1826 56.4541C73.3714 56.1937 73.6383 55.9902 73.9834 55.8438C74.3285 55.694 74.7158 55.6191 75.1455 55.6191C75.7965 55.6191 76.3125 55.7835 76.6934 56.1123C77.0775 56.4378 77.2695 56.8968 77.2695 57.4893V59.7793C77.2728 60.2806 77.3428 60.6598 77.4795 60.917V61H76.0537ZM74.8867 60.0186C75.0951 60.0186 75.2871 59.973 75.4629 59.8818C75.6387 59.7874 75.7689 59.6621 75.8535 59.5059V58.5977H75.3262C74.6198 58.5977 74.2438 58.8418 74.1982 59.3301L74.1934 59.4131C74.1934 59.5889 74.2552 59.7337 74.3789 59.8477C74.5026 59.9616 74.6719 60.0186 74.8867 60.0186ZM81.3223 57.04C81.1302 57.014 80.9609 57.001 80.8145 57.001C80.2806 57.001 79.9307 57.1816 79.7646 57.543V61H78.3535V55.7168H79.6865L79.7256 56.3467C80.0088 55.8617 80.401 55.6191 80.9023 55.6191C81.0586 55.6191 81.2051 55.6403 81.3418 55.6826L81.3223 57.04Z" fill="#1B344C"/>
<path d="M56.1389 16.1111H54.2222V23.7778L60.2278 27.4833L61.25 25.95L56.1389 22.8833V16.1111ZM55.5 11C49.1111 11 44 16.1111 44 22.5C44 28.8889 49.1111 34 55.5 34C61.8889 34 67 28.8889 67 22.5C67 16.1111 61.8889 11 55.5 11ZM55.5 31.4444C50.5167 31.4444 46.5556 27.4833 46.5556 22.5C46.5556 17.5167 50.5167 13.5556 55.5 13.5556C60.4833 13.5556 64.4444 17.5167 64.4444 22.5C64.4444 27.4833 60.4833 31.4444 55.5 31.4444Z" fill="#1B344C"/>
</svg>
