<svg width="122" height="59" viewBox="0 0 122 59" fill="none" xmlns="http://www.w3.org/2000/svg">
<circle cx="60.5" cy="22.5" r="21.5" fill="white" stroke="#1B344C" stroke-width="2"/>
<path d="M17.8262 52.9189H15.0137V54.8232H18.3145V56H13.5488V48.8906H18.3047V50.0771H15.0137V51.7715H17.8262V52.9189ZM20.5703 56H19.1543V48.5H20.5703V56ZM24.1689 56.0977C23.3942 56.0977 22.7627 55.86 22.2744 55.3848C21.7894 54.9095 21.5469 54.2764 21.5469 53.4854V53.3486C21.5469 52.818 21.6494 52.3444 21.8545 51.9277C22.0596 51.5078 22.3493 51.1855 22.7236 50.9609C23.1012 50.7331 23.5309 50.6191 24.0127 50.6191C24.7354 50.6191 25.3034 50.847 25.7168 51.3027C26.1335 51.7585 26.3418 52.4046 26.3418 53.2412V53.8174H22.9775C23.0231 54.1624 23.1598 54.4391 23.3877 54.6475C23.6188 54.8558 23.9102 54.96 24.2617 54.96C24.8053 54.96 25.2301 54.763 25.5361 54.3691L26.2295 55.1455C26.0179 55.445 25.7314 55.6794 25.3701 55.8486C25.0088 56.0146 24.6084 56.0977 24.1689 56.0977ZM24.0078 51.7617C23.7279 51.7617 23.5 51.8561 23.3242 52.0449C23.1517 52.2337 23.041 52.5039 22.9922 52.8555H24.9551V52.7432C24.9486 52.4307 24.8639 52.1898 24.7012 52.0205C24.5384 51.848 24.3073 51.7617 24.0078 51.7617ZM28.4707 50.7168L28.5146 51.3076C28.889 50.8486 29.3952 50.6191 30.0332 50.6191C30.7135 50.6191 31.1807 50.8877 31.4346 51.4248C31.8057 50.8877 32.3346 50.6191 33.0215 50.6191C33.5944 50.6191 34.0208 50.7868 34.3008 51.1221C34.5807 51.4541 34.7207 51.9554 34.7207 52.626V56H33.3047V52.6309C33.3047 52.3314 33.2461 52.1133 33.1289 51.9766C33.0117 51.8366 32.805 51.7666 32.5088 51.7666C32.0856 51.7666 31.7926 51.9684 31.6299 52.3721L31.6348 56H30.2236V52.6357C30.2236 52.3298 30.1634 52.1084 30.043 51.9717C29.9225 51.835 29.7174 51.7666 29.4277 51.7666C29.0273 51.7666 28.7376 51.9326 28.5586 52.2646V56H27.1475V50.7168H28.4707ZM38.2412 56.0977C37.4665 56.0977 36.835 55.86 36.3467 55.3848C35.8617 54.9095 35.6191 54.2764 35.6191 53.4854V53.3486C35.6191 52.818 35.7217 52.3444 35.9268 51.9277C36.1318 51.5078 36.4215 51.1855 36.7959 50.9609C37.1735 50.7331 37.6032 50.6191 38.085 50.6191C38.8076 50.6191 39.3757 50.847 39.7891 51.3027C40.2057 51.7585 40.4141 52.4046 40.4141 53.2412V53.8174H37.0498C37.0954 54.1624 37.2321 54.4391 37.46 54.6475C37.6911 54.8558 37.9824 54.96 38.334 54.96C38.8776 54.96 39.3024 54.763 39.6084 54.3691L40.3018 55.1455C40.0902 55.445 39.8037 55.6794 39.4424 55.8486C39.0811 56.0146 38.6807 56.0977 38.2412 56.0977ZM38.0801 51.7617C37.8001 51.7617 37.5723 51.8561 37.3965 52.0449C37.224 52.2337 37.1133 52.5039 37.0645 52.8555H39.0273V52.7432C39.0208 52.4307 38.9362 52.1898 38.7734 52.0205C38.6107 51.848 38.3796 51.7617 38.0801 51.7617ZM42.5186 50.7168L42.5625 51.3271C42.9401 50.8551 43.4463 50.6191 44.0811 50.6191C44.641 50.6191 45.0576 50.7835 45.3311 51.1123C45.6045 51.4411 45.7445 51.9326 45.751 52.5869V56H44.3398V52.6211C44.3398 52.3216 44.2747 52.1051 44.1445 51.9717C44.0143 51.835 43.7979 51.7666 43.4951 51.7666C43.098 51.7666 42.8001 51.9359 42.6016 52.2744V56H41.1904V50.7168H42.5186ZM48.5146 49.418V50.7168H49.418V51.752H48.5146V54.3887C48.5146 54.584 48.5521 54.724 48.627 54.8086C48.7018 54.8932 48.8451 54.9355 49.0566 54.9355C49.2129 54.9355 49.3512 54.9242 49.4717 54.9014V55.9707C49.195 56.0553 48.9102 56.0977 48.6172 56.0977C47.6276 56.0977 47.123 55.598 47.1035 54.5986V51.752H46.332V50.7168H47.1035V49.418H48.5146ZM49.8379 53.3096C49.8379 52.7855 49.9388 52.3184 50.1406 51.9082C50.3424 51.498 50.6322 51.1807 51.0098 50.9561C51.3906 50.7314 51.8317 50.6191 52.333 50.6191C53.0459 50.6191 53.627 50.8372 54.0762 51.2734C54.5286 51.7096 54.7809 52.3021 54.833 53.0508L54.8428 53.4121C54.8428 54.2227 54.6165 54.8737 54.1641 55.3652C53.7116 55.8535 53.1045 56.0977 52.3428 56.0977C51.5811 56.0977 50.9723 55.8535 50.5166 55.3652C50.0641 54.877 49.8379 54.2129 49.8379 53.373V53.3096ZM51.249 53.4121C51.249 53.9134 51.3434 54.2975 51.5322 54.5645C51.721 54.8281 51.9912 54.96 52.3428 54.96C52.6846 54.96 52.9515 54.8298 53.1436 54.5693C53.3356 54.3057 53.4316 53.8857 53.4316 53.3096C53.4316 52.818 53.3356 52.4372 53.1436 52.167C52.9515 51.8968 52.6813 51.7617 52.333 51.7617C51.988 51.7617 51.721 51.8968 51.5322 52.167C51.3434 52.4339 51.249 52.849 51.249 53.4121ZM58.5732 54.54C58.5732 54.3675 58.487 54.2324 58.3145 54.1348C58.1452 54.0339 57.8717 53.9443 57.4941 53.8662C56.2376 53.6025 55.6094 53.0687 55.6094 52.2646C55.6094 51.7959 55.8031 51.4053 56.1904 51.0928C56.5811 50.777 57.0905 50.6191 57.7188 50.6191C58.3893 50.6191 58.9248 50.777 59.3252 51.0928C59.7288 51.4085 59.9307 51.8187 59.9307 52.3232H58.5195C58.5195 52.1214 58.4544 51.9554 58.3242 51.8252C58.194 51.6917 57.9906 51.625 57.7139 51.625C57.4762 51.625 57.2923 51.6787 57.1621 51.7861C57.0319 51.8936 56.9668 52.0303 56.9668 52.1963C56.9668 52.3525 57.04 52.4795 57.1865 52.5771C57.3363 52.6715 57.5869 52.7546 57.9385 52.8262C58.29 52.8945 58.5863 52.9727 58.8271 53.0605C59.5726 53.334 59.9453 53.8076 59.9453 54.4814C59.9453 54.9632 59.7386 55.3538 59.3252 55.6533C58.9118 55.9495 58.3779 56.0977 57.7236 56.0977C57.2809 56.0977 56.887 56.0195 56.542 55.8633C56.2002 55.7038 55.9316 55.4873 55.7363 55.2139C55.541 54.9372 55.4434 54.6393 55.4434 54.3203H56.7812C56.7943 54.571 56.887 54.763 57.0596 54.8965C57.2321 55.0299 57.4632 55.0967 57.7529 55.0967C58.0231 55.0967 58.2266 55.0462 58.3633 54.9453C58.5033 54.8411 58.5732 54.7061 58.5732 54.54ZM66.4102 56C66.3451 55.873 66.2979 55.7152 66.2686 55.5264C65.9268 55.9072 65.4824 56.0977 64.9355 56.0977C64.418 56.0977 63.9883 55.9479 63.6465 55.6484C63.3079 55.349 63.1387 54.9714 63.1387 54.5156C63.1387 53.9557 63.3454 53.526 63.7588 53.2266C64.1755 52.9271 64.776 52.7757 65.5605 52.7725H66.21V52.4697C66.21 52.2256 66.1465 52.0303 66.0195 51.8838C65.8958 51.7373 65.6989 51.6641 65.4287 51.6641C65.1911 51.6641 65.0039 51.721 64.8672 51.835C64.7337 51.9489 64.667 52.1051 64.667 52.3037H63.2559C63.2559 51.9977 63.3503 51.7145 63.5391 51.4541C63.7279 51.1937 63.9948 50.9902 64.3398 50.8438C64.6849 50.694 65.0723 50.6191 65.502 50.6191C66.153 50.6191 66.6689 50.7835 67.0498 51.1123C67.4339 51.4378 67.626 51.8968 67.626 52.4893V54.7793C67.6292 55.2806 67.6992 55.6598 67.8359 55.917V56H66.4102ZM65.2432 55.0186C65.4515 55.0186 65.6436 54.973 65.8193 54.8818C65.9951 54.7874 66.1253 54.6621 66.21 54.5059V53.5977H65.6826C64.9762 53.5977 64.6003 53.8418 64.5547 54.3301L64.5498 54.4131C64.5498 54.5889 64.6117 54.7337 64.7354 54.8477C64.859 54.9616 65.0283 55.0186 65.2432 55.0186ZM71.5713 54.54C71.5713 54.3675 71.485 54.2324 71.3125 54.1348C71.1432 54.0339 70.8698 53.9443 70.4922 53.8662C69.2357 53.6025 68.6074 53.0687 68.6074 52.2646C68.6074 51.7959 68.8011 51.4053 69.1885 51.0928C69.5791 50.777 70.0885 50.6191 70.7168 50.6191C71.3874 50.6191 71.9229 50.777 72.3232 51.0928C72.7269 51.4085 72.9287 51.8187 72.9287 52.3232H71.5176C71.5176 52.1214 71.4525 51.9554 71.3223 51.8252C71.1921 51.6917 70.9886 51.625 70.7119 51.625C70.4743 51.625 70.2904 51.6787 70.1602 51.7861C70.0299 51.8936 69.9648 52.0303 69.9648 52.1963C69.9648 52.3525 70.0381 52.4795 70.1846 52.5771C70.3343 52.6715 70.585 52.7546 70.9365 52.8262C71.2881 52.8945 71.5843 52.9727 71.8252 53.0605C72.5706 53.334 72.9434 53.8076 72.9434 54.4814C72.9434 54.9632 72.7367 55.3538 72.3232 55.6533C71.9098 55.9495 71.376 56.0977 70.7217 56.0977C70.279 56.0977 69.8851 56.0195 69.54 55.8633C69.1982 55.7038 68.9297 55.4873 68.7344 55.2139C68.5391 54.9372 68.4414 54.6393 68.4414 54.3203H69.7793C69.7923 54.571 69.8851 54.763 70.0576 54.8965C70.2301 55.0299 70.4613 55.0967 70.751 55.0967C71.0212 55.0967 71.2246 55.0462 71.3613 54.9453C71.5013 54.8411 71.5713 54.7061 71.5713 54.54ZM75.3457 56H73.9297V50.7168H75.3457V56ZM73.8467 49.3496C73.8467 49.138 73.9167 48.9639 74.0566 48.8271C74.1999 48.6904 74.3936 48.6221 74.6377 48.6221C74.8786 48.6221 75.0706 48.6904 75.2139 48.8271C75.3571 48.9639 75.4287 49.138 75.4287 49.3496C75.4287 49.5645 75.3555 49.7402 75.209 49.877C75.0658 50.0137 74.8753 50.082 74.6377 50.082C74.4001 50.082 74.208 50.0137 74.0615 49.877C73.9183 49.7402 73.8467 49.5645 73.8467 49.3496ZM76.3076 53.3193C76.3076 52.5088 76.4997 51.8561 76.8838 51.3613C77.2712 50.8665 77.792 50.6191 78.4463 50.6191C79.0257 50.6191 79.4766 50.8177 79.7988 51.2148L79.8574 50.7168H81.1367V55.8242C81.1367 56.2865 81.0309 56.6885 80.8193 57.0303C80.611 57.3721 80.3164 57.6325 79.9355 57.8115C79.5547 57.9906 79.1087 58.0801 78.5977 58.0801C78.2103 58.0801 77.8327 58.002 77.4648 57.8457C77.097 57.6927 76.8187 57.4941 76.6299 57.25L77.2549 56.3906C77.6064 56.7845 78.0329 56.9814 78.5342 56.9814C78.9085 56.9814 79.1999 56.8805 79.4082 56.6787C79.6165 56.4801 79.7207 56.1969 79.7207 55.8291V55.5459C79.3952 55.9137 78.9671 56.0977 78.4365 56.0977C77.8018 56.0977 77.2874 55.8503 76.8936 55.3555C76.5029 54.8574 76.3076 54.1982 76.3076 53.3779V53.3193ZM77.7188 53.4219C77.7188 53.9004 77.8148 54.2764 78.0068 54.5498C78.1989 54.82 78.4626 54.9551 78.7979 54.9551C79.2275 54.9551 79.5352 54.7939 79.7207 54.4717V52.25C79.5319 51.9277 79.2275 51.7666 78.8076 51.7666C78.4691 51.7666 78.2021 51.9049 78.0068 52.1816C77.8148 52.4583 77.7188 52.8717 77.7188 53.4219ZM83.5244 50.7168L83.5684 51.3271C83.946 50.8551 84.4521 50.6191 85.0869 50.6191C85.6468 50.6191 86.0635 50.7835 86.3369 51.1123C86.6104 51.4411 86.7503 51.9326 86.7568 52.5869V56H85.3457V52.6211C85.3457 52.3216 85.2806 52.1051 85.1504 51.9717C85.0202 51.835 84.8037 51.7666 84.501 51.7666C84.1038 51.7666 83.806 51.9359 83.6074 52.2744V56H82.1963V50.7168H83.5244ZM90.8926 56C90.8275 55.873 90.7803 55.7152 90.751 55.5264C90.4092 55.9072 89.9648 56.0977 89.418 56.0977C88.9004 56.0977 88.4707 55.9479 88.1289 55.6484C87.7904 55.349 87.6211 54.9714 87.6211 54.5156C87.6211 53.9557 87.8278 53.526 88.2412 53.2266C88.6579 52.9271 89.2585 52.7757 90.043 52.7725H90.6924V52.4697C90.6924 52.2256 90.6289 52.0303 90.502 51.8838C90.3783 51.7373 90.1813 51.6641 89.9111 51.6641C89.6735 51.6641 89.4863 51.721 89.3496 51.835C89.2161 51.9489 89.1494 52.1051 89.1494 52.3037H87.7383C87.7383 51.9977 87.8327 51.7145 88.0215 51.4541C88.2103 51.1937 88.4772 50.9902 88.8223 50.8438C89.1673 50.694 89.5547 50.6191 89.9844 50.6191C90.6354 50.6191 91.1514 50.7835 91.5322 51.1123C91.9163 51.4378 92.1084 51.8968 92.1084 52.4893V54.7793C92.1117 55.2806 92.1816 55.6598 92.3184 55.917V56H90.8926ZM89.7256 55.0186C89.9339 55.0186 90.126 54.973 90.3018 54.8818C90.4775 54.7874 90.6077 54.6621 90.6924 54.5059V53.5977H90.165C89.4587 53.5977 89.0827 53.8418 89.0371 54.3301L89.0322 54.4131C89.0322 54.5889 89.0941 54.7337 89.2178 54.8477C89.3415 54.9616 89.5107 55.0186 89.7256 55.0186ZM92.9727 53.3193C92.9727 52.4958 93.1566 51.8398 93.5244 51.3516C93.8955 50.8633 94.4017 50.6191 95.043 50.6191C95.5573 50.6191 95.9821 50.8112 96.3174 51.1953V48.5H97.7334V56H96.459L96.3906 55.4385C96.0391 55.8779 95.5866 56.0977 95.0332 56.0977C94.4115 56.0977 93.9118 55.8535 93.5342 55.3652C93.1598 54.8737 92.9727 54.1917 92.9727 53.3193ZM94.3838 53.4219C94.3838 53.9167 94.4701 54.2959 94.6426 54.5596C94.8151 54.8232 95.0658 54.9551 95.3945 54.9551C95.8307 54.9551 96.1383 54.7712 96.3174 54.4033V52.3184C96.1416 51.9505 95.8372 51.7666 95.4043 51.7666C94.724 51.7666 94.3838 52.3184 94.3838 53.4219ZM98.6074 53.3096C98.6074 52.7855 98.7083 52.3184 98.9102 51.9082C99.112 51.498 99.4017 51.1807 99.7793 50.9561C100.16 50.7314 100.601 50.6191 101.103 50.6191C101.815 50.6191 102.396 50.8372 102.846 51.2734C103.298 51.7096 103.55 52.3021 103.603 53.0508L103.612 53.4121C103.612 54.2227 103.386 54.8737 102.934 55.3652C102.481 55.8535 101.874 56.0977 101.112 56.0977C100.351 56.0977 99.7419 55.8535 99.2861 55.3652C98.8337 54.877 98.6074 54.2129 98.6074 53.373V53.3096ZM100.019 53.4121C100.019 53.9134 100.113 54.2975 100.302 54.5645C100.491 54.8281 100.761 54.96 101.112 54.96C101.454 54.96 101.721 54.8298 101.913 54.5693C102.105 54.3057 102.201 53.8857 102.201 53.3096C102.201 52.818 102.105 52.4372 101.913 52.167C101.721 51.8968 101.451 51.7617 101.103 51.7617C100.757 51.7617 100.491 51.8968 100.302 52.167C100.113 52.4339 100.019 52.849 100.019 53.4121ZM107.343 54.54C107.343 54.3675 107.257 54.2324 107.084 54.1348C106.915 54.0339 106.641 53.9443 106.264 53.8662C105.007 53.6025 104.379 53.0687 104.379 52.2646C104.379 51.7959 104.573 51.4053 104.96 51.0928C105.351 50.777 105.86 50.6191 106.488 50.6191C107.159 50.6191 107.694 50.777 108.095 51.0928C108.498 51.4085 108.7 51.8187 108.7 52.3232H107.289C107.289 52.1214 107.224 51.9554 107.094 51.8252C106.964 51.6917 106.76 51.625 106.483 51.625C106.246 51.625 106.062 51.6787 105.932 51.7861C105.801 51.8936 105.736 52.0303 105.736 52.1963C105.736 52.3525 105.81 52.4795 105.956 52.5771C106.106 52.6715 106.356 52.7546 106.708 52.8262C107.06 52.8945 107.356 52.9727 107.597 53.0605C108.342 53.334 108.715 53.8076 108.715 54.4814C108.715 54.9632 108.508 55.3538 108.095 55.6533C107.681 55.9495 107.147 56.0977 106.493 56.0977C106.05 56.0977 105.657 56.0195 105.312 55.8633C104.97 55.7038 104.701 55.4873 104.506 55.2139C104.311 54.9372 104.213 54.6393 104.213 54.3203H105.551C105.564 54.571 105.657 54.763 105.829 54.8965C106.002 55.0299 106.233 55.0967 106.522 55.0967C106.793 55.0967 106.996 55.0462 107.133 54.9453C107.273 54.8411 107.343 54.7061 107.343 54.54Z" fill="#1B344C"/>
<path fill-rule="evenodd" clip-rule="evenodd" d="M56.981 34L49 24.8125L52.22 21.1112L56.981 26.5712L68.78 13L72 16.7012L56.981 34Z" fill="#1B344C"/>
</svg>
