<svg width="13" height="26" viewBox="0 0 13 26" fill="none" xmlns="http://www.w3.org/2000/svg">
<path d="M11.136 6.48091V19.1011C11.136 21.5263 9.19078 23.4907 6.78916 23.4907C4.38753 23.4907 2.44232 21.5263 2.44232 19.1011V5.38351C2.44232 3.86909 3.65943 2.64 5.15909 2.64C6.65875 2.64 7.87587 3.86909 7.87587 5.38351V16.9062C7.87587 17.5098 7.38685 18.0037 6.78916 18.0037C6.19147 18.0037 5.70245 17.5098 5.70245 16.9062V6.48091H4.07238V16.9062C4.07238 18.4207 5.2895 19.6498 6.78916 19.6498C8.28882 19.6498 9.50593 18.4207 9.50593 16.9062V5.38351C9.50593 2.95825 7.56072 0.993896 5.15909 0.993896C2.75747 0.993896 0.812256 2.95825 0.812256 5.38351V19.1011C0.812256 22.4372 3.48556 25.1368 6.78916 25.1368C10.0928 25.1368 12.7661 22.4372 12.7661 19.1011V6.48091H11.136Z" fill="#5B7288"/>
</svg>
