<svg width="28" height="22" viewBox="0 0 28 22" fill="none" xmlns="http://www.w3.org/2000/svg">
<path d="M10.1037 14.6667C6.73158 14.6667 0 16.3045 0 19.5556V22.0001H20.2074V19.5556C20.2074 16.3045 13.4758 14.6667 10.1037 14.6667Z" fill="#9D9D9D"/>
<path d="M26.6484 4.69333C26.661 4.55888 26.6737 4.42444 26.6737 4.27777C26.6737 4.1311 26.661 3.99666 26.6358 3.86222L27.5704 3.15333C27.6588 3.09222 27.6714 2.97 27.6209 2.88444L26.7368 1.40555C26.6863 1.30778 26.56 1.28333 26.4716 1.30778L25.3854 1.73555C25.1581 1.56444 24.9055 1.43 24.6403 1.32L24.4761 0.183333C24.4509 0.0733333 24.3624 0 24.2488 0H22.4806C22.367 0 22.2786 0.0733333 22.2659 0.183333L22.1017 1.32C21.8365 1.43 21.5839 1.57666 21.3566 1.73555L20.2578 1.30778C20.1568 1.27111 20.0431 1.30778 19.9926 1.40555L19.1085 2.88444C19.058 2.98222 19.0706 3.09222 19.159 3.15333L20.0936 3.86222C20.0684 3.99666 20.0557 4.14333 20.0557 4.27777C20.0557 4.41221 20.0684 4.55888 20.0936 4.69333L19.159 5.40221C19.0706 5.46332 19.058 5.58555 19.1085 5.6711L19.9926 7.14999C20.0431 7.24777 20.1694 7.27221 20.2578 7.24777L21.3566 6.81999C21.5839 6.9911 21.8365 7.12554 22.1017 7.23554L22.2659 8.37221C22.2786 8.48221 22.367 8.55554 22.4806 8.55554H24.2488C24.3624 8.55554 24.4509 8.48221 24.4635 8.37221L24.6277 7.23554C24.8929 7.12554 25.1455 6.97888 25.3728 6.81999L26.4716 7.24777C26.5726 7.28443 26.6863 7.24777 26.7368 7.14999L27.6209 5.6711C27.6714 5.57332 27.6588 5.46332 27.5704 5.40221L26.6484 4.69333ZM23.3647 5.80555C22.4933 5.80555 21.786 5.1211 21.786 4.27777C21.786 3.43444 22.4933 2.75 23.3647 2.75C24.2361 2.75 24.9434 3.43444 24.9434 4.27777C24.9434 5.1211 24.2361 5.80555 23.3647 5.80555Z" fill="#9D9D9D"/>
<path d="M23.8952 10.609L23.2637 9.54566C23.2258 9.47233 23.1374 9.44789 23.0742 9.47233L22.2912 9.77788C22.127 9.65566 21.9502 9.55789 21.7608 9.48455L21.6471 8.67789C21.6218 8.60455 21.5461 8.55566 21.4703 8.55566H20.2073C20.1315 8.55566 20.0684 8.60455 20.0558 8.69011L19.9421 9.49677C19.7526 9.57011 19.5758 9.68011 19.4116 9.79011L18.6286 9.48455C18.5528 9.46011 18.4771 9.48455 18.4392 9.55788L17.8077 10.6212C17.7698 10.6945 17.7824 10.7679 17.8456 10.8168L18.5149 11.3179C18.5023 11.4157 18.4897 11.5134 18.4897 11.6112C18.4897 11.709 18.5023 11.819 18.5149 11.9045L17.8456 12.4057C17.7824 12.4545 17.7698 12.5401 17.8077 12.6012L18.4392 13.6645C18.4771 13.7379 18.5655 13.7623 18.6286 13.7379L19.4116 13.4323C19.5758 13.5545 19.7526 13.6523 19.9421 13.7257L20.0558 14.5323C20.0684 14.6179 20.1315 14.6668 20.2073 14.6668H21.4703C21.5461 14.6668 21.6218 14.6179 21.6218 14.5323L21.7355 13.7257C21.9249 13.6523 22.1018 13.5423 22.2659 13.4323L23.049 13.7379C23.1248 13.7623 23.2005 13.7379 23.2384 13.6645L23.8699 12.6012C23.9078 12.5279 23.8952 12.4545 23.832 12.4057L23.1753 11.9045C23.1879 11.8068 23.2005 11.709 23.2005 11.6112C23.2005 11.5134 23.1879 11.4034 23.1753 11.3179L23.8446 10.8168C23.9078 10.7679 23.9204 10.6823 23.8952 10.609ZM20.8388 12.6257C20.2578 12.6257 19.7905 12.1612 19.7905 11.6112C19.7905 11.049 20.2705 10.5968 20.8388 10.5968C21.4071 10.5968 21.887 11.0612 21.887 11.6112C21.887 12.1734 21.4198 12.6257 20.8388 12.6257Z" fill="#9D9D9D"/>
<path d="M4.72346 7.33327H15.4965C15.8375 7.33327 16.1154 7.06438 16.1154 6.73438V6.70994C16.1154 6.37994 15.8375 6.11105 15.4965 6.11105H15.1555C15.1555 4.30216 14.1325 2.74994 12.6296 1.89439V3.0555C12.6296 3.39772 12.3518 3.66661 11.9981 3.66661C11.6445 3.66661 11.3666 3.39772 11.3666 3.0555V1.39328C10.9625 1.2955 10.5457 1.22217 10.1037 1.22217C9.66164 1.22217 9.24487 1.2955 8.84072 1.39328V3.0555C8.84072 3.39772 8.56287 3.66661 8.20924 3.66661C7.85561 3.66661 7.57776 3.39772 7.57776 3.0555V1.89439C6.07483 2.74994 5.05184 4.30216 5.05184 6.11105H4.72346C4.38247 6.11105 4.10461 6.37994 4.10461 6.70994V6.7466C4.10461 7.06438 4.38247 7.33327 4.72346 7.33327Z" fill="#9D9D9D"/>
<path d="M10.1037 12.2223C12.4528 12.2223 14.4104 10.6579 14.9787 8.55566H5.22864C5.79697 10.6579 7.75456 12.2223 10.1037 12.2223Z" fill="#9D9D9D"/>
</svg>
