<svg width="28" height="22" viewBox="0 0 28 22" fill="none" xmlns="http://www.w3.org/2000/svg">
<path d="M20.3 11.7001C22.232 11.7001 23.786 10.1321 23.786 8.2001C22.0164 8.20006 22.232 8.20006 20.3 8.20006C18.368 8.20006 19.2548 8.20006 16.8 8.2001C16.8 10.1321 18.368 11.7001 20.3 11.7001ZM9.8 10.3001C12.124 10.3001 13.986 8.4241 13.986 6.1001C12.6 6.1001 12.124 6.10012 9.8 6.10012C7.476 6.10012 7.51777 6.1001 5.6 6.1001C5.6 8.4241 7.476 10.3001 9.8 10.3001ZM20.3 14.5001C17.738 14.5001 12.6 15.7881 12.6 18.3501V21.5001H28V18.3501C28 15.7881 22.862 14.5001 20.3 14.5001ZM9.8 13.1001C6.538 13.1001 0 14.7381 0 18.0001V21.5001H9.8V18.3501C9.8 17.1601 10.262 15.0741 13.118 13.4921C11.9 13.2401 10.724 13.1001 9.8 13.1001Z" fill="#9D9D9D"/>
<path d="M5.48435 5.16036H14.1541C14.4285 5.16036 14.6521 4.95784 14.6521 4.70929V4.69088C14.6521 4.44233 14.4285 4.23981 14.1541 4.23981H13.8796C13.8796 2.8774 13.0564 1.7083 11.8469 1.06392V1.93844C11.8469 2.19619 11.6233 2.39871 11.3387 2.39871C11.0541 2.39871 10.8305 2.19619 10.8305 1.93844V0.686494C10.5053 0.61285 10.1699 0.557617 9.81412 0.557617C9.45839 0.557617 9.12298 0.61285 8.79774 0.686494V1.93844C8.79774 2.19619 8.57414 2.39871 8.28956 2.39871C8.00497 2.39871 7.78137 2.19619 7.78137 1.93844V1.06392C6.57188 1.7083 5.74861 2.8774 5.74861 4.23981H5.48435C5.20993 4.23981 4.98633 4.44233 4.98633 4.69088V4.71849C4.98633 4.95784 5.20993 5.16036 5.48435 5.16036Z" fill="#9D9D9D"/>
<path d="M16.8963 7.46173H23.9147C24.1368 7.46173 24.3178 7.29972 24.3178 7.10088V7.08615C24.3178 6.88731 24.1368 6.72529 23.9147 6.72529H23.6925C23.6925 5.63537 23.0261 4.70009 22.0469 4.18458V4.8842C22.0469 5.0904 21.8659 5.25242 21.6356 5.25242C21.4052 5.25242 21.2242 5.0904 21.2242 4.8842V3.88264C20.9609 3.82373 20.6894 3.77954 20.4014 3.77954C20.1134 3.77954 19.8419 3.82373 19.5786 3.88264V4.8842C19.5786 5.0904 19.3976 5.25242 19.1672 5.25242C18.9368 5.25242 18.7558 5.0904 18.7558 4.8842V4.18458C17.7767 4.70009 17.1103 5.63537 17.1103 6.72529H16.8963C16.6742 6.72529 16.4932 6.88731 16.4932 7.08615V7.10824C16.4932 7.29972 16.6742 7.46173 16.8963 7.46173Z" fill="#9D9D9D"/>
</svg>
