<svg width="22" height="22" viewBox="0 0 22 22" fill="none" xmlns="http://www.w3.org/2000/svg">
<rect width="22" height="22" fill="white"/>
<rect width="22" height="6.84444" fill="#9D9D9D"/>
<rect y="7.33325" width="22" height="14.6667" fill="#9D9D9D"/>
<path d="M5.6288 14.2646C4.98557 14.0798 4.51682 13.8532 4.22255 13.585C3.93088 13.3141 3.78505 12.9808 3.78505 12.585C3.78505 12.137 3.96343 11.7673 4.3202 11.4756C4.67958 11.1813 5.14572 11.0342 5.71864 11.0342C6.10927 11.0342 6.45692 11.1097 6.76161 11.2607C7.0689 11.4118 7.30588 11.6201 7.47255 11.8857C7.64182 12.1514 7.72645 12.4417 7.72645 12.7568H6.97255C6.97255 12.4131 6.86317 12.1436 6.64442 11.9482C6.42567 11.7503 6.11708 11.6514 5.71864 11.6514C5.34885 11.6514 5.05979 11.7334 4.85145 11.8975C4.64572 12.0589 4.54286 12.2842 4.54286 12.5732C4.54286 12.805 4.64052 13.0016 4.83583 13.1631C5.03375 13.3219 5.36838 13.4678 5.83974 13.6006C6.31369 13.7334 6.68349 13.8805 6.94911 14.042C7.21734 14.2008 7.41526 14.387 7.54286 14.6006C7.67307 14.8141 7.73817 15.0654 7.73817 15.3545C7.73817 15.8154 7.55849 16.1852 7.19911 16.4639C6.83974 16.7399 6.35927 16.8779 5.7577 16.8779C5.36708 16.8779 5.0025 16.8037 4.66395 16.6553C4.32541 16.5042 4.06369 16.2985 3.8788 16.0381C3.69651 15.7777 3.60536 15.4821 3.60536 15.1514H4.35927C4.35927 15.4951 4.48557 15.7673 4.73817 15.9678C4.99338 16.1657 5.33322 16.2646 5.7577 16.2646C6.15354 16.2646 6.45692 16.1839 6.66786 16.0225C6.8788 15.861 6.98427 15.641 6.98427 15.3623C6.98427 15.0837 6.88661 14.8688 6.6913 14.7178C6.49599 14.5641 6.14182 14.4131 5.6288 14.2646ZM12.9022 16.0537C12.7095 16.3298 12.44 16.5368 12.0936 16.6748C11.7499 16.8102 11.3488 16.8779 10.8905 16.8779C10.427 16.8779 10.0155 16.7699 9.65614 16.5537C9.29677 16.335 9.01812 16.0251 8.8202 15.624C8.62489 15.223 8.52463 14.7581 8.51942 14.2295V13.7334C8.51942 12.8766 8.71864 12.2126 9.11708 11.7412C9.51812 11.2699 10.0806 11.0342 10.8046 11.0342C11.3983 11.0342 11.8762 11.1865 12.2382 11.4912C12.6002 11.7933 12.8215 12.223 12.9022 12.7803H12.1522C12.0116 12.0277 11.5637 11.6514 10.8085 11.6514C10.3059 11.6514 9.92437 11.8285 9.66395 12.1826C9.40614 12.5342 9.27593 13.0446 9.27333 13.7139V14.1787C9.27333 14.8167 9.41916 15.3245 9.71083 15.7021C10.0025 16.0771 10.397 16.2646 10.8944 16.2646C11.1757 16.2646 11.4218 16.2334 11.6327 16.1709C11.8436 16.1084 12.0181 16.0029 12.1561 15.8545V14.5771H10.8397V13.9678H12.9022V16.0537ZM18.3397 14.9951C18.2694 15.5967 18.0468 16.0615 17.6718 16.3896C17.2994 16.7152 16.8033 16.8779 16.1835 16.8779C15.5116 16.8779 14.9725 16.637 14.5663 16.1553C14.1627 15.6735 13.9608 15.029 13.9608 14.2217V13.6748C13.9608 13.1462 14.0546 12.6813 14.2421 12.2803C14.4322 11.8792 14.7004 11.5719 15.0468 11.3584C15.3931 11.1423 15.7942 11.0342 16.2499 11.0342C16.8541 11.0342 17.3384 11.2035 17.703 11.542C18.0676 11.8779 18.2798 12.3441 18.3397 12.9404H17.5858C17.5207 12.4873 17.3788 12.1592 17.16 11.9561C16.9439 11.7529 16.6405 11.6514 16.2499 11.6514C15.7707 11.6514 15.3944 11.8285 15.121 12.1826C14.8502 12.5368 14.7147 13.0407 14.7147 13.6943V14.2451C14.7147 14.8623 14.8436 15.3532 15.1015 15.7178C15.3593 16.0824 15.7199 16.2646 16.1835 16.2646C16.6002 16.2646 16.9192 16.1709 17.1405 15.9834C17.3645 15.7933 17.5129 15.4639 17.5858 14.9951H18.3397Z" fill="white"/>
<path d="M4.88232 3.9043C4.48031 3.78874 4.18734 3.64714 4.00342 3.47949C3.82113 3.31022 3.72998 3.10189 3.72998 2.85449C3.72998 2.57454 3.84147 2.34342 4.06445 2.16113C4.28906 1.97721 4.5804 1.88525 4.93848 1.88525C5.18262 1.88525 5.3999 1.93245 5.59033 2.02686C5.78239 2.12126 5.9305 2.25146 6.03467 2.41748C6.14046 2.5835 6.19336 2.76497 6.19336 2.96191H5.72217C5.72217 2.74707 5.65381 2.57861 5.51709 2.45654C5.38037 2.33285 5.1875 2.271 4.93848 2.271C4.70736 2.271 4.52669 2.32227 4.39648 2.4248C4.2679 2.52572 4.20361 2.6665 4.20361 2.84717C4.20361 2.99202 4.26465 3.11491 4.38672 3.21582C4.51042 3.3151 4.71956 3.40625 5.01416 3.48926C5.31038 3.57227 5.5415 3.66423 5.70752 3.76514C5.87516 3.86442 5.99886 3.98079 6.07861 4.11426C6.15999 4.24772 6.20068 4.40479 6.20068 4.58545C6.20068 4.87354 6.08838 5.10465 5.86377 5.27881C5.63916 5.45133 5.33887 5.5376 4.96289 5.5376C4.71875 5.5376 4.49089 5.49121 4.2793 5.39844C4.06771 5.30404 3.90413 5.17546 3.78857 5.0127C3.67464 4.84993 3.61768 4.6652 3.61768 4.4585H4.08887C4.08887 4.67334 4.16781 4.84342 4.32568 4.96875C4.48519 5.09245 4.69759 5.1543 4.96289 5.1543C5.21029 5.1543 5.3999 5.10384 5.53174 5.00293C5.66357 4.90202 5.72949 4.76449 5.72949 4.59033C5.72949 4.41618 5.66846 4.2819 5.54639 4.1875C5.42432 4.09147 5.20296 3.99707 4.88232 3.9043ZM7.30664 5.48877H6.83789V1.93408H7.30664V5.48877ZM10.8979 5.48877H10.4268L8.63721 2.74951V5.48877H8.16602V1.93408H8.63721L10.4316 4.68555V1.93408H10.8979V5.48877ZM14.3452 4.36084C14.3013 4.73682 14.1621 5.02734 13.9277 5.23242C13.695 5.43587 13.3849 5.5376 12.9976 5.5376C12.5776 5.5376 12.2407 5.38704 11.9868 5.08594C11.7345 4.78483 11.6084 4.382 11.6084 3.87744V3.53564C11.6084 3.20524 11.667 2.91471 11.7842 2.66406C11.903 2.41341 12.0706 2.22135 12.2871 2.08789C12.5036 1.9528 12.7542 1.88525 13.0391 1.88525C13.4167 1.88525 13.7194 1.99105 13.9473 2.20264C14.1751 2.4126 14.3078 2.70394 14.3452 3.07666H13.874C13.8333 2.79346 13.7446 2.58838 13.6079 2.46143C13.4728 2.33447 13.2832 2.271 13.0391 2.271C12.7396 2.271 12.5044 2.38167 12.3335 2.60303C12.1642 2.82438 12.0796 3.13932 12.0796 3.54785V3.89209C12.0796 4.27783 12.1602 4.58464 12.3213 4.8125C12.4824 5.04036 12.7078 5.1543 12.9976 5.1543C13.258 5.1543 13.4574 5.0957 13.5957 4.97852C13.7357 4.8597 13.8285 4.65381 13.874 4.36084H14.3452ZM17.7217 3.82617C17.7217 4.17448 17.6631 4.47884 17.5459 4.73926C17.4287 4.99805 17.2627 5.1958 17.0479 5.33252C16.833 5.46924 16.5824 5.5376 16.2959 5.5376C16.016 5.5376 15.7677 5.46924 15.5513 5.33252C15.3348 5.19417 15.1663 4.99805 15.0459 4.74414C14.9271 4.48861 14.866 4.1932 14.8628 3.85791V3.60156C14.8628 3.25977 14.9222 2.95785 15.041 2.6958C15.1598 2.43376 15.3275 2.23356 15.5439 2.09521C15.762 1.95524 16.0111 1.88525 16.291 1.88525C16.5758 1.88525 16.8265 1.95443 17.043 2.09277C17.2611 2.22949 17.4287 2.42887 17.5459 2.69092C17.6631 2.95133 17.7217 3.25488 17.7217 3.60156V3.82617ZM17.2554 3.59668C17.2554 3.17513 17.1707 2.85205 17.0015 2.62744C16.8322 2.4012 16.5954 2.28809 16.291 2.28809C15.9948 2.28809 15.7612 2.4012 15.5903 2.62744C15.4211 2.85205 15.334 3.16455 15.3291 3.56494V3.82617C15.3291 4.2347 15.4146 4.55615 15.5854 4.79053C15.758 5.02327 15.9948 5.13965 16.2959 5.13965C16.5986 5.13965 16.833 5.02979 16.999 4.81006C17.165 4.5887 17.2505 4.27214 17.2554 3.86035V3.59668Z" fill="white"/>
</svg>
