<svg width="67" height="57" viewBox="0 0 67 57" fill="none" xmlns="http://www.w3.org/2000/svg">
<path d="M33.7699 4.54367C34.285 4.1379 35.1222 4.13804 35.6356 4.55601L37.8736 6.37851H41.4507C40.7708 2.77451 36.8612 0 32.1638 0C27.044 0 22.8684 3.28732 22.7739 7.35681C23.9363 7.22321 29.2309 8.11943 33.7699 4.54367Z" fill="#5B7288"/>
<path d="M32.1667 16.8164C37.3335 16.8164 41.5617 13.4649 41.5617 9.31641L41.559 8.48139H37.3203C36.9665 8.48139 36.6276 8.3677 36.3799 8.16604L34.6392 6.74854C29.455 10.1733 23.9689 9.33562 22.7739 9.45961C22.8682 13.529 27.0452 16.8164 32.1667 16.8164Z" fill="#5B7288"/>
<path d="M41.6775 15.1897C40.1577 16.7542 38.0466 17.9348 35.614 18.5166L16.7001 31.6275H29.7132L41.6775 15.1897Z" fill="#5B7288"/>
<path d="M39.3288 29.8935C39.3288 28.9371 38.3536 28.1592 37.1549 28.1592H35.2841L32.7594 31.6278H37.1549C38.3536 31.6278 39.3288 30.8499 39.3288 29.8935Z" fill="#5B7288"/>
<path d="M22.2605 14.7625H21.2575C18.8955 14.7625 16.9007 16.1121 16.5142 17.9716C14.2059 29.5791 13.9096 29.3627 14.2091 30.5694L31.0732 18.8793C27.3939 18.6149 24.2309 17.0352 22.2605 14.7625Z" fill="#5B7288"/>
<path d="M49.9907 34.7288L47.8607 18.2203C47.6768 16.7437 46.4764 15.5391 44.8421 15.0276L36.8148 26.0563H37.1551C39.8062 26.0563 41.9631 27.7777 41.9631 29.8935C41.9631 32.0093 39.8062 33.7306 37.1551 33.7306H19.7249L19.6018 34.7186C19.5247 35.3371 20.1339 35.8737 20.9116 35.874L48.6798 35.8879C49.7145 35.709 50.0627 35.2871 49.9907 34.7288Z" fill="#5B7288"/>
<path d="M15.1704 45.5103H12.6919L12.1733 47H11.0176L13.4346 40.6016H14.4321L16.8535 47H15.6934L15.1704 45.5103ZM13.0039 44.6138H14.8584L13.9312 41.9595L13.0039 44.6138ZM19.4331 46.2354C19.6997 46.2354 19.9209 46.1577 20.0967 46.0024C20.2725 45.8472 20.3662 45.6553 20.3779 45.4268H21.3843C21.3726 45.7227 21.2803 45.9995 21.1074 46.2573C20.9346 46.5122 20.7002 46.7144 20.4043 46.8638C20.1084 47.0132 19.7891 47.0879 19.4463 47.0879C18.7812 47.0879 18.2539 46.8726 17.8643 46.4419C17.4746 46.0112 17.2798 45.4165 17.2798 44.6577V44.5479C17.2798 43.8242 17.4731 43.2456 17.8599 42.812C18.2466 42.3755 18.7739 42.1572 19.4419 42.1572C20.0073 42.1572 20.4673 42.3228 20.8218 42.6538C21.1792 42.9819 21.3667 43.4141 21.3843 43.9502H20.3779C20.3662 43.6777 20.2725 43.4536 20.0967 43.2778C19.9238 43.1021 19.7026 43.0142 19.4331 43.0142C19.0874 43.0142 18.8208 43.1401 18.6333 43.3921C18.4458 43.6411 18.3506 44.0205 18.3477 44.5303V44.7017C18.3477 45.2173 18.4399 45.6025 18.6245 45.8574C18.812 46.1094 19.0815 46.2354 19.4331 46.2354ZM24.144 46.2354C24.4106 46.2354 24.6318 46.1577 24.8076 46.0024C24.9834 45.8472 25.0771 45.6553 25.0889 45.4268H26.0952C26.0835 45.7227 25.9912 45.9995 25.8184 46.2573C25.6455 46.5122 25.4111 46.7144 25.1152 46.8638C24.8193 47.0132 24.5 47.0879 24.1572 47.0879C23.4922 47.0879 22.9648 46.8726 22.5752 46.4419C22.1855 46.0112 21.9907 45.4165 21.9907 44.6577V44.5479C21.9907 43.8242 22.1841 43.2456 22.5708 42.812C22.9575 42.3755 23.4849 42.1572 24.1528 42.1572C24.7183 42.1572 25.1782 42.3228 25.5327 42.6538C25.8901 42.9819 26.0776 43.4141 26.0952 43.9502H25.0889C25.0771 43.6777 24.9834 43.4536 24.8076 43.2778C24.6348 43.1021 24.4136 43.0142 24.144 43.0142C23.7983 43.0142 23.5317 43.1401 23.3442 43.3921C23.1567 43.6411 23.0615 44.0205 23.0586 44.5303V44.7017C23.0586 45.2173 23.1509 45.6025 23.3354 45.8574C23.5229 46.1094 23.7925 46.2354 24.144 46.2354ZM28.0376 47H26.9697V42.2451H28.0376V47ZM26.9038 41.0103C26.9038 40.8462 26.9551 40.71 27.0576 40.6016C27.1631 40.4932 27.3125 40.439 27.5059 40.439C27.6992 40.439 27.8486 40.4932 27.9541 40.6016C28.0596 40.71 28.1123 40.8462 28.1123 41.0103C28.1123 41.1714 28.0596 41.3062 27.9541 41.4146C27.8486 41.52 27.6992 41.5728 27.5059 41.5728C27.3125 41.5728 27.1631 41.52 27.0576 41.4146C26.9551 41.3062 26.9038 41.1714 26.9038 41.0103ZM29.0044 44.5874C29.0044 43.855 29.1743 43.2676 29.5142 42.8252C29.854 42.3799 30.3096 42.1572 30.8809 42.1572C31.3848 42.1572 31.792 42.333 32.1025 42.6846V40.25H33.1704V47H32.2036L32.1509 46.5078C31.8315 46.8945 31.4053 47.0879 30.8721 47.0879C30.3154 47.0879 29.8643 46.8638 29.5186 46.4155C29.1758 45.9673 29.0044 45.3579 29.0044 44.5874ZM30.0723 44.6797C30.0723 45.1631 30.1646 45.541 30.3491 45.8135C30.5366 46.083 30.8018 46.2178 31.1445 46.2178C31.5811 46.2178 31.9004 46.0229 32.1025 45.6333V43.603C31.9062 43.2222 31.5898 43.0317 31.1533 43.0317C30.8076 43.0317 30.541 43.1694 30.3535 43.4448C30.166 43.7173 30.0723 44.1289 30.0723 44.6797ZM36.3784 47.0879C35.7017 47.0879 35.1523 46.8755 34.7305 46.4507C34.3115 46.0229 34.1021 45.4546 34.1021 44.7456V44.6138C34.1021 44.1392 34.1929 43.7158 34.3745 43.3438C34.5591 42.9688 34.8169 42.6772 35.1479 42.4692C35.479 42.2612 35.8481 42.1572 36.2554 42.1572C36.9028 42.1572 37.4023 42.3638 37.7539 42.7769C38.1084 43.1899 38.2856 43.7744 38.2856 44.5303V44.9609H35.1787C35.2109 45.3535 35.3413 45.6641 35.5698 45.8926C35.8013 46.1211 36.0913 46.2354 36.4399 46.2354C36.9292 46.2354 37.3276 46.0376 37.6353 45.6421L38.2109 46.1914C38.0205 46.4756 37.7656 46.6968 37.4463 46.855C37.1299 47.0103 36.7739 47.0879 36.3784 47.0879ZM36.251 43.0142C35.958 43.0142 35.7207 43.1167 35.5391 43.3218C35.3604 43.5269 35.2461 43.8125 35.1963 44.1787H37.231V44.0996C37.2075 43.7422 37.1123 43.4727 36.9453 43.291C36.7783 43.1064 36.5469 43.0142 36.251 43.0142ZM40.1094 42.2451L40.1401 42.7944C40.4917 42.3696 40.9531 42.1572 41.5244 42.1572C42.5146 42.1572 43.0186 42.7241 43.0361 43.8579V47H41.9683V43.9194C41.9683 43.6177 41.9023 43.395 41.7705 43.2515C41.6416 43.105 41.4292 43.0317 41.1333 43.0317C40.7026 43.0317 40.3818 43.2266 40.1709 43.6162V47H39.103V42.2451H40.1094ZM45.4663 41.0894V42.2451H46.3057V43.0361H45.4663V45.6904C45.4663 45.8721 45.5015 46.0039 45.5718 46.0859C45.645 46.165 45.7739 46.2046 45.9585 46.2046C46.0815 46.2046 46.2061 46.1899 46.332 46.1606V46.9868C46.0889 47.0542 45.8545 47.0879 45.6289 47.0879C44.8086 47.0879 44.3984 46.6353 44.3984 45.73V43.0361H43.6162V42.2451H44.3984V41.0894H45.4663ZM49.2192 47.0879C48.5425 47.0879 47.9932 46.8755 47.5713 46.4507C47.1523 46.0229 46.9429 45.4546 46.9429 44.7456V44.6138C46.9429 44.1392 47.0337 43.7158 47.2153 43.3438C47.3999 42.9688 47.6577 42.6772 47.9888 42.4692C48.3198 42.2612 48.689 42.1572 49.0962 42.1572C49.7437 42.1572 50.2432 42.3638 50.5947 42.7769C50.9492 43.1899 51.1265 43.7744 51.1265 44.5303V44.9609H48.0195C48.0518 45.3535 48.1821 45.6641 48.4106 45.8926C48.6421 46.1211 48.9321 46.2354 49.2808 46.2354C49.77 46.2354 50.1685 46.0376 50.4761 45.6421L51.0518 46.1914C50.8613 46.4756 50.6064 46.6968 50.2871 46.855C49.9707 47.0103 49.6147 47.0879 49.2192 47.0879ZM49.0918 43.0142C48.7988 43.0142 48.5615 43.1167 48.3799 43.3218C48.2012 43.5269 48.0869 43.8125 48.0371 44.1787H50.0718V44.0996C50.0483 43.7422 49.9531 43.4727 49.7861 43.291C49.6191 43.1064 49.3877 43.0142 49.0918 43.0142ZM54.6245 45.708C54.6245 45.5176 54.5454 45.3726 54.3872 45.2729C54.2319 45.1733 53.9727 45.0854 53.6094 45.0093C53.2461 44.9331 52.9429 44.8364 52.6997 44.7192C52.1665 44.4614 51.8999 44.0879 51.8999 43.5986C51.8999 43.1885 52.0728 42.8457 52.4185 42.5703C52.7642 42.2949 53.2036 42.1572 53.7368 42.1572C54.3052 42.1572 54.7637 42.2979 55.1123 42.5791C55.4639 42.8604 55.6396 43.2251 55.6396 43.6733H54.5718C54.5718 43.4683 54.4956 43.2983 54.3433 43.1636C54.1909 43.0259 53.9888 42.957 53.7368 42.957C53.5024 42.957 53.3105 43.0112 53.1611 43.1196C53.0146 43.228 52.9414 43.373 52.9414 43.5547C52.9414 43.7188 53.0103 43.8462 53.1479 43.937C53.2856 44.0278 53.564 44.1201 53.9829 44.2139C54.4019 44.3047 54.73 44.4146 54.9673 44.5435C55.2075 44.6694 55.3848 44.8218 55.499 45.0005C55.6162 45.1792 55.6748 45.396 55.6748 45.6509C55.6748 46.0786 55.4976 46.4258 55.1431 46.6924C54.7886 46.9561 54.3242 47.0879 53.75 47.0879C53.3604 47.0879 53.0132 47.0176 52.7085 46.877C52.4038 46.7363 52.1665 46.543 51.9966 46.2969C51.8267 46.0508 51.7417 45.7856 51.7417 45.5015H52.7788C52.7935 45.7534 52.8887 45.9482 53.0645 46.0859C53.2402 46.2207 53.4731 46.2881 53.7632 46.2881C54.0444 46.2881 54.2583 46.2354 54.4048 46.1299C54.5513 46.0215 54.6245 45.8809 54.6245 45.708ZM16.6558 55H15.5879V48.25H16.6558V55ZM20.6636 55C20.6167 54.9092 20.5757 54.7612 20.5405 54.5562C20.2007 54.9106 19.7847 55.0879 19.2925 55.0879C18.8149 55.0879 18.4253 54.9517 18.1235 54.6792C17.8218 54.4067 17.6709 54.0698 17.6709 53.6685C17.6709 53.1616 17.8584 52.7734 18.2334 52.5039C18.6113 52.2314 19.1504 52.0952 19.8506 52.0952H20.5054V51.7832C20.5054 51.5371 20.4365 51.3408 20.2988 51.1943C20.1611 51.0449 19.9517 50.9702 19.6704 50.9702C19.4272 50.9702 19.228 51.0317 19.0728 51.1548C18.9175 51.2749 18.8398 51.4287 18.8398 51.6162H17.772C17.772 51.3555 17.8584 51.1123 18.0312 50.8867C18.2041 50.6582 18.4385 50.4795 18.7344 50.3506C19.0332 50.2217 19.3657 50.1572 19.7319 50.1572C20.2886 50.1572 20.7324 50.2979 21.0635 50.5791C21.3945 50.8574 21.5645 51.25 21.5732 51.7568V53.9014C21.5732 54.3291 21.6333 54.6704 21.7534 54.9253V55H20.6636ZM19.4902 54.231C19.7012 54.231 19.8989 54.1797 20.0835 54.0771C20.271 53.9746 20.4116 53.8369 20.5054 53.6641V52.7676H19.9297C19.5342 52.7676 19.2368 52.8364 19.0376 52.9741C18.8384 53.1118 18.7388 53.3066 18.7388 53.5586C18.7388 53.7637 18.8062 53.9277 18.9409 54.0508C19.0786 54.1709 19.2617 54.231 19.4902 54.231ZM26.8643 52.6709C26.8643 53.4092 26.6987 53.9966 26.3677 54.4331C26.0396 54.8696 25.5869 55.0879 25.0098 55.0879C24.4531 55.0879 24.0195 54.8872 23.709 54.4858L23.6562 55H22.6895V48.25H23.7573V50.7021C24.0649 50.3389 24.4795 50.1572 25.001 50.1572C25.5811 50.1572 26.0366 50.3726 26.3677 50.8032C26.6987 51.2339 26.8643 51.8359 26.8643 52.6094V52.6709ZM25.7964 52.5786C25.7964 52.063 25.7056 51.6763 25.5239 51.4185C25.3423 51.1606 25.0786 51.0317 24.7329 51.0317C24.27 51.0317 23.9448 51.2339 23.7573 51.6382V53.5981C23.9478 54.0112 24.2759 54.2178 24.7417 54.2178C25.0757 54.2178 25.3335 54.0933 25.5151 53.8442C25.6968 53.5952 25.7905 53.2188 25.7964 52.7148V52.5786ZM27.563 52.5786C27.563 52.1128 27.6553 51.6938 27.8398 51.3218C28.0244 50.9468 28.2837 50.6597 28.6177 50.4604C28.9517 50.2583 29.3354 50.1572 29.769 50.1572C30.4106 50.1572 30.9307 50.3638 31.3291 50.7769C31.7305 51.1899 31.9473 51.7378 31.9795 52.4204L31.9839 52.6709C31.9839 53.1396 31.8931 53.5586 31.7114 53.9277C31.5327 54.2969 31.2749 54.5825 30.938 54.7847C30.604 54.9868 30.2173 55.0879 29.7778 55.0879C29.1069 55.0879 28.5693 54.8652 28.165 54.4199C27.7637 53.9717 27.563 53.3755 27.563 52.6313V52.5786ZM28.6309 52.6709C28.6309 53.1602 28.7319 53.5439 28.9341 53.8223C29.1362 54.0977 29.4175 54.2354 29.7778 54.2354C30.1382 54.2354 30.418 54.0947 30.6172 53.8135C30.8193 53.5322 30.9204 53.1206 30.9204 52.5786C30.9204 52.0981 30.8164 51.7173 30.6084 51.436C30.4033 51.1548 30.1235 51.0142 29.769 51.0142C29.4204 51.0142 29.1436 51.1533 28.9385 51.4316C28.7334 51.707 28.6309 52.1201 28.6309 52.6709ZM35.3765 51.2207C35.2358 51.1973 35.0908 51.1855 34.9414 51.1855C34.4521 51.1855 34.1226 51.373 33.9526 51.748V55H32.8848V50.2451H33.9043L33.9307 50.7769C34.1885 50.3638 34.5459 50.1572 35.0029 50.1572C35.1553 50.1572 35.2812 50.1777 35.3809 50.2188L35.3765 51.2207ZM38.7603 55C38.7134 54.9092 38.6724 54.7612 38.6372 54.5562C38.2974 54.9106 37.8813 55.0879 37.3892 55.0879C36.9116 55.0879 36.522 54.9517 36.2202 54.6792C35.9185 54.4067 35.7676 54.0698 35.7676 53.6685C35.7676 53.1616 35.9551 52.7734 36.3301 52.5039C36.708 52.2314 37.2471 52.0952 37.9473 52.0952H38.6021V51.7832C38.6021 51.5371 38.5332 51.3408 38.3955 51.1943C38.2578 51.0449 38.0483 50.9702 37.7671 50.9702C37.5239 50.9702 37.3247 51.0317 37.1694 51.1548C37.0142 51.2749 36.9365 51.4287 36.9365 51.6162H35.8687C35.8687 51.3555 35.9551 51.1123 36.1279 50.8867C36.3008 50.6582 36.5352 50.4795 36.8311 50.3506C37.1299 50.2217 37.4624 50.1572 37.8286 50.1572C38.3853 50.1572 38.8291 50.2979 39.1602 50.5791C39.4912 50.8574 39.6611 51.25 39.6699 51.7568V53.9014C39.6699 54.3291 39.73 54.6704 39.8501 54.9253V55H38.7603ZM37.5869 54.231C37.7979 54.231 37.9956 54.1797 38.1802 54.0771C38.3677 53.9746 38.5083 53.8369 38.6021 53.6641V52.7676H38.0264C37.6309 52.7676 37.3335 52.8364 37.1343 52.9741C36.9351 53.1118 36.8354 53.3066 36.8354 53.5586C36.8354 53.7637 36.9028 53.9277 37.0376 54.0508C37.1753 54.1709 37.3584 54.231 37.5869 54.231ZM41.9243 55H40.8564V48.25H41.9243V55ZM45.1851 55.0879C44.5083 55.0879 43.959 54.8755 43.5371 54.4507C43.1182 54.0229 42.9087 53.4546 42.9087 52.7456V52.6138C42.9087 52.1392 42.9995 51.7158 43.1812 51.3438C43.3657 50.9688 43.6235 50.6772 43.9546 50.4692C44.2856 50.2612 44.6548 50.1572 45.062 50.1572C45.7095 50.1572 46.209 50.3638 46.5605 50.7769C46.915 51.1899 47.0923 51.7744 47.0923 52.5303V52.9609H43.9854C44.0176 53.3535 44.1479 53.6641 44.3765 53.8926C44.6079 54.1211 44.8979 54.2354 45.2466 54.2354C45.7358 54.2354 46.1343 54.0376 46.4419 53.6421L47.0176 54.1914C46.8271 54.4756 46.5723 54.6968 46.2529 54.855C45.9365 55.0103 45.5806 55.0879 45.1851 55.0879ZM45.0576 51.0142C44.7646 51.0142 44.5273 51.1167 44.3457 51.3218C44.167 51.5269 44.0527 51.8125 44.0029 52.1787H46.0376V52.0996C46.0142 51.7422 45.9189 51.4727 45.752 51.291C45.585 51.1064 45.3535 51.0142 45.0576 51.0142ZM50.5903 53.708C50.5903 53.5176 50.5112 53.3726 50.353 53.2729C50.1978 53.1733 49.9385 53.0854 49.5752 53.0093C49.2119 52.9331 48.9087 52.8364 48.6655 52.7192C48.1323 52.4614 47.8657 52.0879 47.8657 51.5986C47.8657 51.1885 48.0386 50.8457 48.3843 50.5703C48.73 50.2949 49.1694 50.1572 49.7026 50.1572C50.271 50.1572 50.7295 50.2979 51.0781 50.5791C51.4297 50.8604 51.6055 51.2251 51.6055 51.6733H50.5376C50.5376 51.4683 50.4614 51.2983 50.3091 51.1636C50.1567 51.0259 49.9546 50.957 49.7026 50.957C49.4683 50.957 49.2764 51.0112 49.127 51.1196C48.9805 51.228 48.9072 51.373 48.9072 51.5547C48.9072 51.7188 48.9761 51.8462 49.1138 51.937C49.2515 52.0278 49.5298 52.1201 49.9487 52.2139C50.3677 52.3047 50.6958 52.4146 50.9331 52.5435C51.1733 52.6694 51.3506 52.8218 51.4648 53.0005C51.582 53.1792 51.6406 53.396 51.6406 53.6509C51.6406 54.0786 51.4634 54.4258 51.1089 54.6924C50.7544 54.9561 50.29 55.0879 49.7158 55.0879C49.3262 55.0879 48.979 55.0176 48.6743 54.877C48.3696 54.7363 48.1323 54.543 47.9624 54.2969C47.7925 54.0508 47.7075 53.7856 47.7075 53.5015H48.7446C48.7593 53.7534 48.8545 53.9482 49.0303 54.0859C49.2061 54.2207 49.439 54.2881 49.729 54.2881C50.0103 54.2881 50.2241 54.2354 50.3706 54.1299C50.5171 54.0215 50.5903 53.8809 50.5903 53.708Z" fill="#7C7C7C"/>
</svg>
