<svg width="67" height="50" viewBox="0 0 67 50" fill="none" xmlns="http://www.w3.org/2000/svg">
<path fill-rule="evenodd" clip-rule="evenodd" d="M26.333 28.7986L31.9995 22.404C31.2628 22.317 30.7151 22.2735 30.1106 22.2735C25.0675 22.2735 15 25.188 15 30.9736V35.3236H31.9995L26.333 28.7986ZM30.1106 17.9235C34.2849 17.9235 37.6659 14.0302 37.6659 9.22347C37.6659 4.4167 34.2849 0.523438 30.1106 0.523438C25.9363 0.523438 22.5553 4.4167 22.5553 9.22347C22.5553 14.0302 25.9363 17.9235 30.1106 17.9235Z" fill="#5B7288"/>
<path fill-rule="evenodd" clip-rule="evenodd" d="M38.5536 36.4113L31.9994 28.7988L34.6437 25.732L38.5536 30.256L48.2433 19.0112L50.8877 22.078L38.5536 36.4113Z" fill="#5B7288"/>
<path d="M7.93262 45.917C7.86816 46.5996 7.61621 47.1328 7.17676 47.5166C6.7373 47.8975 6.15283 48.0879 5.42334 48.0879C4.91357 48.0879 4.46387 47.9678 4.07422 47.7275C3.6875 47.4844 3.38867 47.1401 3.17773 46.6948C2.9668 46.2495 2.85693 45.7324 2.84814 45.1436V44.5459C2.84814 43.9424 2.95508 43.4106 3.16895 42.9507C3.38281 42.4907 3.68896 42.1362 4.0874 41.8872C4.48877 41.6382 4.95166 41.5137 5.47607 41.5137C6.18213 41.5137 6.75049 41.7056 7.18115 42.0894C7.61182 42.4731 7.8623 43.0151 7.93262 43.7153H6.8252C6.77246 43.2554 6.6377 42.9243 6.4209 42.7222C6.20703 42.5171 5.89209 42.4146 5.47607 42.4146C4.99268 42.4146 4.62061 42.5918 4.35986 42.9463C4.10205 43.2979 3.97021 43.8149 3.96436 44.4976V45.0645C3.96436 45.7559 4.0874 46.2832 4.3335 46.6465C4.58252 47.0098 4.9458 47.1914 5.42334 47.1914C5.85986 47.1914 6.18799 47.0933 6.40771 46.897C6.62744 46.7007 6.7666 46.374 6.8252 45.917H7.93262ZM11.668 48C11.6211 47.9092 11.5801 47.7612 11.5449 47.5562C11.2051 47.9106 10.7891 48.0879 10.2969 48.0879C9.81934 48.0879 9.42969 47.9517 9.12793 47.6792C8.82617 47.4067 8.67529 47.0698 8.67529 46.6685C8.67529 46.1616 8.86279 45.7734 9.23779 45.5039C9.61572 45.2314 10.1548 45.0952 10.855 45.0952H11.5098V44.7832C11.5098 44.5371 11.4409 44.3408 11.3032 44.1943C11.1655 44.0449 10.9561 43.9702 10.6748 43.9702C10.4316 43.9702 10.2324 44.0317 10.0771 44.1548C9.92188 44.2749 9.84424 44.4287 9.84424 44.6162H8.77637C8.77637 44.3555 8.86279 44.1123 9.03564 43.8867C9.2085 43.6582 9.44287 43.4795 9.73877 43.3506C10.0376 43.2217 10.3701 43.1572 10.7363 43.1572C11.293 43.1572 11.7368 43.2979 12.0679 43.5791C12.3989 43.8574 12.5688 44.25 12.5776 44.7568V46.9014C12.5776 47.3291 12.6377 47.6704 12.7578 47.9253V48H11.668ZM10.4946 47.231C10.7056 47.231 10.9033 47.1797 11.0879 47.0771C11.2754 46.9746 11.416 46.8369 11.5098 46.6641V45.7676H10.9341C10.5386 45.7676 10.2412 45.8364 10.042 45.9741C9.84277 46.1118 9.74316 46.3066 9.74316 46.5586C9.74316 46.7637 9.81055 46.9277 9.94531 47.0508C10.083 47.1709 10.2661 47.231 10.4946 47.231ZM17.8599 45.6709C17.8599 46.4062 17.6929 46.9937 17.3589 47.4331C17.0249 47.8696 16.5767 48.0879 16.0142 48.0879C15.4927 48.0879 15.0752 47.9165 14.7617 47.5737V49.8281H13.6938V43.2451H14.6782L14.7222 43.7285C15.0356 43.3477 15.4619 43.1572 16.001 43.1572C16.5811 43.1572 17.0352 43.374 17.3633 43.8076C17.6943 44.2383 17.8599 44.8374 17.8599 45.605V45.6709ZM16.7964 45.5786C16.7964 45.104 16.7012 44.7275 16.5107 44.4492C16.3232 44.1709 16.0537 44.0317 15.7021 44.0317C15.2656 44.0317 14.9521 44.2119 14.7617 44.5723V46.6816C14.9551 47.0508 15.2715 47.2354 15.7109 47.2354C16.0508 47.2354 16.3159 47.0991 16.5063 46.8267C16.6997 46.5513 16.7964 46.1353 16.7964 45.5786ZM21.6084 48C21.5615 47.9092 21.5205 47.7612 21.4854 47.5562C21.1455 47.9106 20.7295 48.0879 20.2373 48.0879C19.7598 48.0879 19.3701 47.9517 19.0684 47.6792C18.7666 47.4067 18.6157 47.0698 18.6157 46.6685C18.6157 46.1616 18.8032 45.7734 19.1782 45.5039C19.5562 45.2314 20.0952 45.0952 20.7954 45.0952H21.4502V44.7832C21.4502 44.5371 21.3813 44.3408 21.2437 44.1943C21.106 44.0449 20.8965 43.9702 20.6152 43.9702C20.3721 43.9702 20.1729 44.0317 20.0176 44.1548C19.8623 44.2749 19.7847 44.4287 19.7847 44.6162H18.7168C18.7168 44.3555 18.8032 44.1123 18.9761 43.8867C19.1489 43.6582 19.3833 43.4795 19.6792 43.3506C19.978 43.2217 20.3105 43.1572 20.6768 43.1572C21.2334 43.1572 21.6772 43.2979 22.0083 43.5791C22.3394 43.8574 22.5093 44.25 22.5181 44.7568V46.9014C22.5181 47.3291 22.5781 47.6704 22.6982 47.9253V48H21.6084ZM20.4351 47.231C20.646 47.231 20.8438 47.1797 21.0283 47.0771C21.2158 46.9746 21.3564 46.8369 21.4502 46.6641V45.7676H20.8745C20.479 45.7676 20.1816 45.8364 19.9824 45.9741C19.7832 46.1118 19.6836 46.3066 19.6836 46.5586C19.6836 46.7637 19.751 46.9277 19.8857 47.0508C20.0234 47.1709 20.2065 47.231 20.4351 47.231ZM25.5898 47.2354C25.8564 47.2354 26.0776 47.1577 26.2534 47.0024C26.4292 46.8472 26.5229 46.6553 26.5347 46.4268H27.541C27.5293 46.7227 27.437 46.9995 27.2642 47.2573C27.0913 47.5122 26.8569 47.7144 26.561 47.8638C26.2651 48.0132 25.9458 48.0879 25.603 48.0879C24.938 48.0879 24.4106 47.8726 24.021 47.4419C23.6313 47.0112 23.4365 46.4165 23.4365 45.6577V45.5479C23.4365 44.8242 23.6299 44.2456 24.0166 43.812C24.4033 43.3755 24.9307 43.1572 25.5986 43.1572C26.1641 43.1572 26.624 43.3228 26.9785 43.6538C27.3359 43.9819 27.5234 44.4141 27.541 44.9502H26.5347C26.5229 44.6777 26.4292 44.4536 26.2534 44.2778C26.0806 44.1021 25.8594 44.0142 25.5898 44.0142C25.2441 44.0142 24.9775 44.1401 24.79 44.3921C24.6025 44.6411 24.5073 45.0205 24.5044 45.5303V45.7017C24.5044 46.2173 24.5967 46.6025 24.7812 46.8574C24.9688 47.1094 25.2383 47.2354 25.5898 47.2354ZM29.4834 48H28.4155V43.2451H29.4834V48ZM28.3496 42.0103C28.3496 41.8462 28.4009 41.71 28.5034 41.6016C28.6089 41.4932 28.7583 41.439 28.9517 41.439C29.145 41.439 29.2944 41.4932 29.3999 41.6016C29.5054 41.71 29.5581 41.8462 29.5581 42.0103C29.5581 42.1714 29.5054 42.3062 29.3999 42.4146C29.2944 42.52 29.145 42.5728 28.9517 42.5728C28.7583 42.5728 28.6089 42.52 28.5034 42.4146C28.4009 42.3062 28.3496 42.1714 28.3496 42.0103ZM31.9883 42.0894V43.2451H32.8276V44.0361H31.9883V46.6904C31.9883 46.8721 32.0234 47.0039 32.0938 47.0859C32.167 47.165 32.2959 47.2046 32.4805 47.2046C32.6035 47.2046 32.728 47.1899 32.854 47.1606V47.9868C32.6108 48.0542 32.3765 48.0879 32.1509 48.0879C31.3306 48.0879 30.9204 47.6353 30.9204 46.73V44.0361H30.1382V43.2451H30.9204V42.0894H31.9883ZM36.4883 48C36.4414 47.9092 36.4004 47.7612 36.3652 47.5562C36.0254 47.9106 35.6094 48.0879 35.1172 48.0879C34.6396 48.0879 34.25 47.9517 33.9482 47.6792C33.6465 47.4067 33.4956 47.0698 33.4956 46.6685C33.4956 46.1616 33.6831 45.7734 34.0581 45.5039C34.436 45.2314 34.9751 45.0952 35.6753 45.0952H36.3301V44.7832C36.3301 44.5371 36.2612 44.3408 36.1235 44.1943C35.9858 44.0449 35.7764 43.9702 35.4951 43.9702C35.252 43.9702 35.0527 44.0317 34.8975 44.1548C34.7422 44.2749 34.6646 44.4287 34.6646 44.6162H33.5967C33.5967 44.3555 33.6831 44.1123 33.856 43.8867C34.0288 43.6582 34.2632 43.4795 34.5591 43.3506C34.8579 43.2217 35.1904 43.1572 35.5566 43.1572C36.1133 43.1572 36.5571 43.2979 36.8882 43.5791C37.2192 43.8574 37.3892 44.25 37.3979 44.7568V46.9014C37.3979 47.3291 37.458 47.6704 37.5781 47.9253V48H36.4883ZM35.3149 47.231C35.5259 47.231 35.7236 47.1797 35.9082 47.0771C36.0957 46.9746 36.2363 46.8369 36.3301 46.6641V45.7676H35.7544C35.3589 45.7676 35.0615 45.8364 34.8623 45.9741C34.6631 46.1118 34.5635 46.3066 34.5635 46.5586C34.5635 46.7637 34.6309 46.9277 34.7656 47.0508C34.9033 47.1709 35.0864 47.231 35.3149 47.231ZM40.4697 47.2354C40.7363 47.2354 40.9575 47.1577 41.1333 47.0024C41.3091 46.8472 41.4028 46.6553 41.4146 46.4268H42.4209C42.4092 46.7227 42.3169 46.9995 42.144 47.2573C41.9712 47.5122 41.7368 47.7144 41.4409 47.8638C41.145 48.0132 40.8257 48.0879 40.4829 48.0879C39.8179 48.0879 39.2905 47.8726 38.9009 47.4419C38.5112 47.0112 38.3164 46.4165 38.3164 45.6577V45.5479C38.3164 44.8242 38.5098 44.2456 38.8965 43.812C39.2832 43.3755 39.8105 43.1572 40.4785 43.1572C41.0439 43.1572 41.5039 43.3228 41.8584 43.6538C42.2158 43.9819 42.4033 44.4141 42.4209 44.9502H41.4146C41.4028 44.6777 41.3091 44.4536 41.1333 44.2778C40.9604 44.1021 40.7393 44.0142 40.4697 44.0142C40.124 44.0142 39.8574 44.1401 39.6699 44.3921C39.4824 44.6411 39.3872 45.0205 39.3843 45.5303V45.7017C39.3843 46.2173 39.4766 46.6025 39.6611 46.8574C39.8486 47.1094 40.1182 47.2354 40.4697 47.2354ZM44.3633 48H43.2954V43.2451H44.3633V48ZM43.2295 42.0103C43.2295 41.8462 43.2808 41.71 43.3833 41.6016C43.4888 41.4932 43.6382 41.439 43.8315 41.439C44.0249 41.439 44.1743 41.4932 44.2798 41.6016C44.3853 41.71 44.438 41.8462 44.438 42.0103C44.438 42.1714 44.3853 42.3062 44.2798 42.4146C44.1743 42.52 44.0249 42.5728 43.8315 42.5728C43.6382 42.5728 43.4888 42.52 43.3833 42.4146C43.2808 42.3062 43.2295 42.1714 43.2295 42.0103ZM45.3301 45.5786C45.3301 45.1128 45.4224 44.6938 45.6069 44.3218C45.7915 43.9468 46.0508 43.6597 46.3848 43.4604C46.7188 43.2583 47.1025 43.1572 47.5361 43.1572C48.1777 43.1572 48.6978 43.3638 49.0962 43.7769C49.4976 44.1899 49.7144 44.7378 49.7466 45.4204L49.751 45.6709C49.751 46.1396 49.6602 46.5586 49.4785 46.9277C49.2998 47.2969 49.042 47.5825 48.7051 47.7847C48.3711 47.9868 47.9844 48.0879 47.5449 48.0879C46.874 48.0879 46.3364 47.8652 45.9321 47.4199C45.5308 46.9717 45.3301 46.3755 45.3301 45.6313V45.5786ZM46.3979 45.6709C46.3979 46.1602 46.499 46.5439 46.7012 46.8223C46.9033 47.0977 47.1846 47.2354 47.5449 47.2354C47.9053 47.2354 48.1851 47.0947 48.3843 46.8135C48.5864 46.5322 48.6875 46.1206 48.6875 45.5786C48.6875 45.0981 48.5835 44.7173 48.3755 44.436C48.1704 44.1548 47.8906 44.0142 47.5361 44.0142C47.1875 44.0142 46.9106 44.1533 46.7056 44.4316C46.5005 44.707 46.3979 45.1201 46.3979 45.6709ZM51.645 43.2451L51.6758 43.7944C52.0273 43.3696 52.4888 43.1572 53.0601 43.1572C54.0503 43.1572 54.5542 43.7241 54.5718 44.8579V48H53.5039V44.9194C53.5039 44.6177 53.438 44.395 53.3062 44.2515C53.1772 44.105 52.9648 44.0317 52.6689 44.0317C52.2383 44.0317 51.9175 44.2266 51.7065 44.6162V48H50.6387V43.2451H51.645ZM57.7578 48.0879C57.0811 48.0879 56.5317 47.8755 56.1099 47.4507C55.6909 47.0229 55.4814 46.4546 55.4814 45.7456V45.6138C55.4814 45.1392 55.5723 44.7158 55.7539 44.3438C55.9385 43.9688 56.1963 43.6772 56.5273 43.4692C56.8584 43.2612 57.2275 43.1572 57.6348 43.1572C58.2822 43.1572 58.7817 43.3638 59.1333 43.7769C59.4878 44.1899 59.665 44.7744 59.665 45.5303V45.9609H56.5581C56.5903 46.3535 56.7207 46.6641 56.9492 46.8926C57.1807 47.1211 57.4707 47.2354 57.8193 47.2354C58.3086 47.2354 58.707 47.0376 59.0146 46.6421L59.5903 47.1914C59.3999 47.4756 59.145 47.6968 58.8257 47.855C58.5093 48.0103 58.1533 48.0879 57.7578 48.0879ZM57.6304 44.0142C57.3374 44.0142 57.1001 44.1167 56.9185 44.3218C56.7397 44.5269 56.6255 44.8125 56.5757 45.1787H58.6104V45.0996C58.5869 44.7422 58.4917 44.4727 58.3247 44.291C58.1577 44.1064 57.9263 44.0142 57.6304 44.0142ZM63.1631 46.708C63.1631 46.5176 63.084 46.3726 62.9258 46.2729C62.7705 46.1733 62.5112 46.0854 62.1479 46.0093C61.7847 45.9331 61.4814 45.8364 61.2383 45.7192C60.7051 45.4614 60.4385 45.0879 60.4385 44.5986C60.4385 44.1885 60.6113 43.8457 60.957 43.5703C61.3027 43.2949 61.7422 43.1572 62.2754 43.1572C62.8438 43.1572 63.3022 43.2979 63.6509 43.5791C64.0024 43.8604 64.1782 44.2251 64.1782 44.6733H63.1104C63.1104 44.4683 63.0342 44.2983 62.8818 44.1636C62.7295 44.0259 62.5273 43.957 62.2754 43.957C62.041 43.957 61.8491 44.0112 61.6997 44.1196C61.5532 44.228 61.48 44.373 61.48 44.5547C61.48 44.7188 61.5488 44.8462 61.6865 44.937C61.8242 45.0278 62.1025 45.1201 62.5215 45.2139C62.9404 45.3047 63.2686 45.4146 63.5059 45.5435C63.7461 45.6694 63.9233 45.8218 64.0376 46.0005C64.1548 46.1792 64.2134 46.396 64.2134 46.6509C64.2134 47.0786 64.0361 47.4258 63.6816 47.6924C63.3271 47.9561 62.8628 48.0879 62.2886 48.0879C61.8989 48.0879 61.5518 48.0176 61.2471 47.877C60.9424 47.7363 60.7051 47.543 60.5352 47.2969C60.3652 47.0508 60.2803 46.7856 60.2803 46.5015H61.3174C61.332 46.7534 61.4272 46.9482 61.603 47.0859C61.7788 47.2207 62.0117 47.2881 62.3018 47.2881C62.583 47.2881 62.7969 47.2354 62.9434 47.1299C63.0898 47.0215 63.1631 46.8809 63.1631 46.708Z" fill="#7C7C7C"/>
</svg>
