<svg width="67" height="66" viewBox="0 0 67 66" fill="none" xmlns="http://www.w3.org/2000/svg">
<path d="M47.9003 0.794434H19.9875C17.7944 0.794434 16 2.58883 16 4.78197V32.6947C16 34.8879 17.7944 36.6823 19.9875 36.6823H47.9003C50.0935 36.6823 51.8879 34.8879 51.8879 32.6947V4.78197C51.8879 2.58883 50.0935 0.794434 47.9003 0.794434ZM37.9315 28.7072H23.9751V24.7197H37.9315V28.7072ZM43.9128 20.7321H23.9751V16.7446H43.9128V20.7321ZM43.9128 12.7571H23.9751V8.76951H43.9128V12.7571Z" fill="#5B7288"/>
<path d="M15.2275 48V41.6016H17.1172C17.6826 41.6016 18.1836 41.7275 18.6201 41.9795C19.0596 42.2314 19.3994 42.5889 19.6396 43.0518C19.8799 43.5146 20 44.0449 20 44.6426V44.9634C20 45.5698 19.8784 46.103 19.6353 46.563C19.395 47.0229 19.0508 47.3774 18.6025 47.6265C18.1572 47.8755 17.646 48 17.0688 48H15.2275ZM16.3394 42.498V47.1123H17.0645C17.6475 47.1123 18.0942 46.9307 18.4048 46.5674C18.7183 46.2012 18.8779 45.6768 18.8838 44.9941V44.6382C18.8838 43.9438 18.7329 43.4136 18.4312 43.0474C18.1294 42.6812 17.6914 42.498 17.1172 42.498H16.3394ZM23.8452 48C23.7983 47.9092 23.7573 47.7612 23.7222 47.5562C23.3823 47.9106 22.9663 48.0879 22.4741 48.0879C21.9966 48.0879 21.6069 47.9517 21.3052 47.6792C21.0034 47.4067 20.8525 47.0698 20.8525 46.6685C20.8525 46.1616 21.04 45.7734 21.415 45.5039C21.793 45.2314 22.332 45.0952 23.0322 45.0952H23.687V44.7832C23.687 44.5371 23.6182 44.3408 23.4805 44.1943C23.3428 44.0449 23.1333 43.9702 22.8521 43.9702C22.6089 43.9702 22.4097 44.0317 22.2544 44.1548C22.0991 44.2749 22.0215 44.4287 22.0215 44.6162H20.9536C20.9536 44.3555 21.04 44.1123 21.2129 43.8867C21.3857 43.6582 21.6201 43.4795 21.916 43.3506C22.2148 43.2217 22.5474 43.1572 22.9136 43.1572C23.4702 43.1572 23.9141 43.2979 24.2451 43.5791C24.5762 43.8574 24.7461 44.25 24.7549 44.7568V46.9014C24.7549 47.3291 24.8149 47.6704 24.9351 47.9253V48H23.8452ZM22.6719 47.231C22.8828 47.231 23.0806 47.1797 23.2651 47.0771C23.4526 46.9746 23.5933 46.8369 23.687 46.6641V45.7676H23.1113C22.7158 45.7676 22.4185 45.8364 22.2192 45.9741C22.02 46.1118 21.9204 46.3066 21.9204 46.5586C21.9204 46.7637 21.9878 46.9277 22.1226 47.0508C22.2603 47.1709 22.4434 47.231 22.6719 47.231ZM27.2114 42.0894V43.2451H28.0508V44.0361H27.2114V46.6904C27.2114 46.8721 27.2466 47.0039 27.3169 47.0859C27.3901 47.165 27.519 47.2046 27.7036 47.2046C27.8267 47.2046 27.9512 47.1899 28.0771 47.1606V47.9868C27.834 48.0542 27.5996 48.0879 27.374 48.0879C26.5537 48.0879 26.1436 47.6353 26.1436 46.73V44.0361H25.3613V43.2451H26.1436V42.0894H27.2114ZM28.5386 45.5786C28.5386 45.1128 28.6309 44.6938 28.8154 44.3218C29 43.9468 29.2593 43.6597 29.5933 43.4604C29.9272 43.2583 30.311 43.1572 30.7446 43.1572C31.3862 43.1572 31.9062 43.3638 32.3047 43.7769C32.7061 44.1899 32.9229 44.7378 32.9551 45.4204L32.9595 45.6709C32.9595 46.1396 32.8687 46.5586 32.687 46.9277C32.5083 47.2969 32.2505 47.5825 31.9136 47.7847C31.5796 47.9868 31.1929 48.0879 30.7534 48.0879C30.0825 48.0879 29.5449 47.8652 29.1406 47.4199C28.7393 46.9717 28.5386 46.3755 28.5386 45.6313V45.5786ZM29.6064 45.6709C29.6064 46.1602 29.7075 46.5439 29.9097 46.8223C30.1118 47.0977 30.3931 47.2354 30.7534 47.2354C31.1138 47.2354 31.3936 47.0947 31.5928 46.8135C31.7949 46.5322 31.896 46.1206 31.896 45.5786C31.896 45.0981 31.792 44.7173 31.584 44.436C31.3789 44.1548 31.0991 44.0142 30.7446 44.0142C30.396 44.0142 30.1191 44.1533 29.9141 44.4316C29.709 44.707 29.6064 45.1201 29.6064 45.6709ZM36.5278 46.708C36.5278 46.5176 36.4487 46.3726 36.2905 46.2729C36.1353 46.1733 35.876 46.0854 35.5127 46.0093C35.1494 45.9331 34.8462 45.8364 34.603 45.7192C34.0698 45.4614 33.8032 45.0879 33.8032 44.5986C33.8032 44.1885 33.9761 43.8457 34.3218 43.5703C34.6675 43.2949 35.1069 43.1572 35.6401 43.1572C36.2085 43.1572 36.667 43.2979 37.0156 43.5791C37.3672 43.8604 37.543 44.2251 37.543 44.6733H36.4751C36.4751 44.4683 36.3989 44.2983 36.2466 44.1636C36.0942 44.0259 35.8921 43.957 35.6401 43.957C35.4058 43.957 35.2139 44.0112 35.0645 44.1196C34.918 44.228 34.8447 44.373 34.8447 44.5547C34.8447 44.7188 34.9136 44.8462 35.0513 44.937C35.189 45.0278 35.4673 45.1201 35.8862 45.2139C36.3052 45.3047 36.6333 45.4146 36.8706 45.5435C37.1108 45.6694 37.2881 45.8218 37.4023 46.0005C37.5195 46.1792 37.5781 46.396 37.5781 46.6509C37.5781 47.0786 37.4009 47.4258 37.0464 47.6924C36.6919 47.9561 36.2275 48.0879 35.6533 48.0879C35.2637 48.0879 34.9165 48.0176 34.6118 47.877C34.3071 47.7363 34.0698 47.543 33.8999 47.2969C33.73 47.0508 33.645 46.7856 33.645 46.5015H34.6821C34.6968 46.7534 34.792 46.9482 34.9678 47.0859C35.1436 47.2207 35.3765 47.2881 35.6665 47.2881C35.9478 47.2881 36.1616 47.2354 36.3081 47.1299C36.4546 47.0215 36.5278 46.8809 36.5278 46.708ZM40.5532 45.5874C40.5532 44.855 40.7231 44.2676 41.063 43.8252C41.4028 43.3799 41.8584 43.1572 42.4297 43.1572C42.9336 43.1572 43.3408 43.333 43.6514 43.6846V41.25H44.7192V48H43.7524L43.6997 47.5078C43.3804 47.8945 42.9541 48.0879 42.4209 48.0879C41.8643 48.0879 41.4131 47.8638 41.0674 47.4155C40.7246 46.9673 40.5532 46.3579 40.5532 45.5874ZM41.6211 45.6797C41.6211 46.1631 41.7134 46.541 41.8979 46.8135C42.0854 47.083 42.3506 47.2178 42.6934 47.2178C43.1299 47.2178 43.4492 47.0229 43.6514 46.6333V44.603C43.4551 44.2222 43.1387 44.0317 42.7021 44.0317C42.3564 44.0317 42.0898 44.1694 41.9023 44.4448C41.7148 44.7173 41.6211 45.1289 41.6211 45.6797ZM47.9272 48.0879C47.2505 48.0879 46.7012 47.8755 46.2793 47.4507C45.8604 47.0229 45.6509 46.4546 45.6509 45.7456V45.6138C45.6509 45.1392 45.7417 44.7158 45.9233 44.3438C46.1079 43.9688 46.3657 43.6772 46.6968 43.4692C47.0278 43.2612 47.397 43.1572 47.8042 43.1572C48.4517 43.1572 48.9512 43.3638 49.3027 43.7769C49.6572 44.1899 49.8345 44.7744 49.8345 45.5303V45.9609H46.7275C46.7598 46.3535 46.8901 46.6641 47.1187 46.8926C47.3501 47.1211 47.6401 47.2354 47.9888 47.2354C48.478 47.2354 48.8765 47.0376 49.1841 46.6421L49.7598 47.1914C49.5693 47.4756 49.3145 47.6968 48.9951 47.855C48.6787 48.0103 48.3228 48.0879 47.9272 48.0879ZM47.7998 44.0142C47.5068 44.0142 47.2695 44.1167 47.0879 44.3218C46.9092 44.5269 46.7949 44.8125 46.7451 45.1787H48.7798V45.0996C48.7563 44.7422 48.6611 44.4727 48.4941 44.291C48.3271 44.1064 48.0957 44.0142 47.7998 44.0142ZM51.8032 48H50.7354V41.25H51.8032V48ZM14.7178 50.0894V51.2451H15.5571V52.0361H14.7178V54.6904C14.7178 54.8721 14.7529 55.0039 14.8232 55.0859C14.8965 55.165 15.0254 55.2046 15.21 55.2046C15.333 55.2046 15.4575 55.1899 15.5835 55.1606V55.9868C15.3403 56.0542 15.106 56.0879 14.8804 56.0879C14.0601 56.0879 13.6499 55.6353 13.6499 54.73V52.0361H12.8677V51.2451H13.6499V50.0894H14.7178ZM18.8662 52.2207C18.7256 52.1973 18.5806 52.1855 18.4312 52.1855C17.9419 52.1855 17.6123 52.373 17.4424 52.748V56H16.3745V51.2451H17.394L17.4204 51.7769C17.6782 51.3638 18.0356 51.1572 18.4927 51.1572C18.645 51.1572 18.771 51.1777 18.8706 51.2188L18.8662 52.2207ZM22.25 56C22.2031 55.9092 22.1621 55.7612 22.127 55.5562C21.7871 55.9106 21.3711 56.0879 20.8789 56.0879C20.4014 56.0879 20.0117 55.9517 19.71 55.6792C19.4082 55.4067 19.2573 55.0698 19.2573 54.6685C19.2573 54.1616 19.4448 53.7734 19.8198 53.5039C20.1978 53.2314 20.7368 53.0952 21.437 53.0952H22.0918V52.7832C22.0918 52.5371 22.0229 52.3408 21.8853 52.1943C21.7476 52.0449 21.5381 51.9702 21.2568 51.9702C21.0137 51.9702 20.8145 52.0317 20.6592 52.1548C20.5039 52.2749 20.4263 52.4287 20.4263 52.6162H19.3584C19.3584 52.3555 19.4448 52.1123 19.6177 51.8867C19.7905 51.6582 20.0249 51.4795 20.3208 51.3506C20.6196 51.2217 20.9521 51.1572 21.3184 51.1572C21.875 51.1572 22.3188 51.2979 22.6499 51.5791C22.981 51.8574 23.1509 52.25 23.1597 52.7568V54.9014C23.1597 55.3291 23.2197 55.6704 23.3398 55.9253V56H22.25ZM21.0767 55.231C21.2876 55.231 21.4854 55.1797 21.6699 55.0771C21.8574 54.9746 21.998 54.8369 22.0918 54.6641V53.7676H21.5161C21.1206 53.7676 20.8232 53.8364 20.624 53.9741C20.4248 54.1118 20.3252 54.3066 20.3252 54.5586C20.3252 54.7637 20.3926 54.9277 20.5273 55.0508C20.665 55.1709 20.8481 55.231 21.0767 55.231ZM28.4507 53.6709C28.4507 54.4092 28.2852 54.9966 27.9541 55.4331C27.626 55.8696 27.1733 56.0879 26.5962 56.0879C26.0396 56.0879 25.606 55.8872 25.2954 55.4858L25.2427 56H24.2759V49.25H25.3438V51.7021C25.6514 51.3389 26.0659 51.1572 26.5874 51.1572C27.1675 51.1572 27.623 51.3726 27.9541 51.8032C28.2852 52.2339 28.4507 52.8359 28.4507 53.6094V53.6709ZM27.3828 53.5786C27.3828 53.063 27.292 52.6763 27.1104 52.4185C26.9287 52.1606 26.665 52.0317 26.3193 52.0317C25.8564 52.0317 25.5312 52.2339 25.3438 52.6382V54.5981C25.5342 55.0112 25.8623 55.2178 26.3281 55.2178C26.6621 55.2178 26.9199 55.0933 27.1016 54.8442C27.2832 54.5952 27.377 54.2188 27.3828 53.7148V53.5786ZM32.1904 56C32.1436 55.9092 32.1025 55.7612 32.0674 55.5562C31.7275 55.9106 31.3115 56.0879 30.8193 56.0879C30.3418 56.0879 29.9521 55.9517 29.6504 55.6792C29.3486 55.4067 29.1978 55.0698 29.1978 54.6685C29.1978 54.1616 29.3853 53.7734 29.7603 53.5039C30.1382 53.2314 30.6772 53.0952 31.3774 53.0952H32.0322V52.7832C32.0322 52.5371 31.9634 52.3408 31.8257 52.1943C31.688 52.0449 31.4785 51.9702 31.1973 51.9702C30.9541 51.9702 30.7549 52.0317 30.5996 52.1548C30.4443 52.2749 30.3667 52.4287 30.3667 52.6162H29.2988C29.2988 52.3555 29.3853 52.1123 29.5581 51.8867C29.731 51.6582 29.9653 51.4795 30.2612 51.3506C30.5601 51.2217 30.8926 51.1572 31.2588 51.1572C31.8154 51.1572 32.2593 51.2979 32.5903 51.5791C32.9214 51.8574 33.0913 52.25 33.1001 52.7568V54.9014C33.1001 55.3291 33.1602 55.6704 33.2803 55.9253V56H32.1904ZM31.0171 55.231C31.228 55.231 31.4258 55.1797 31.6104 55.0771C31.7979 54.9746 31.9385 54.8369 32.0322 54.6641V53.7676H31.4565C31.061 53.7676 30.7637 53.8364 30.5645 53.9741C30.3652 54.1118 30.2656 54.3066 30.2656 54.5586C30.2656 54.7637 30.333 54.9277 30.4678 55.0508C30.6055 55.1709 30.7886 55.231 31.0171 55.231ZM35.3325 51.2451V56.4219C35.3325 56.9082 35.2109 57.2788 34.9678 57.5337C34.7275 57.7915 34.3745 57.9204 33.9087 57.9204C33.7124 57.9204 33.5234 57.8955 33.3418 57.8457V57.002C33.4531 57.0283 33.5791 57.0415 33.7197 57.0415C34.0742 57.0415 34.2559 56.8481 34.2646 56.4614V51.2451H35.3325ZM34.1724 50.0103C34.1724 49.8462 34.2236 49.71 34.3262 49.6016C34.4316 49.4932 34.5811 49.439 34.7744 49.439C34.9678 49.439 35.1172 49.4932 35.2227 49.6016C35.3281 49.71 35.3809 49.8462 35.3809 50.0103C35.3809 50.1714 35.3281 50.3062 35.2227 50.4146C35.1172 50.52 34.9678 50.5728 34.7744 50.5728C34.5811 50.5728 34.4316 50.52 34.3262 50.4146C34.2236 50.3062 34.1724 50.1714 34.1724 50.0103ZM39.3184 56C39.2715 55.9092 39.2305 55.7612 39.1953 55.5562C38.8555 55.9106 38.4395 56.0879 37.9473 56.0879C37.4697 56.0879 37.0801 55.9517 36.7783 55.6792C36.4766 55.4067 36.3257 55.0698 36.3257 54.6685C36.3257 54.1616 36.5132 53.7734 36.8882 53.5039C37.2661 53.2314 37.8052 53.0952 38.5054 53.0952H39.1602V52.7832C39.1602 52.5371 39.0913 52.3408 38.9536 52.1943C38.8159 52.0449 38.6064 51.9702 38.3252 51.9702C38.082 51.9702 37.8828 52.0317 37.7275 52.1548C37.5723 52.2749 37.4946 52.4287 37.4946 52.6162H36.4268C36.4268 52.3555 36.5132 52.1123 36.686 51.8867C36.8589 51.6582 37.0933 51.4795 37.3892 51.3506C37.688 51.2217 38.0205 51.1572 38.3867 51.1572C38.9434 51.1572 39.3872 51.2979 39.7183 51.5791C40.0493 51.8574 40.2192 52.25 40.228 52.7568V54.9014C40.228 55.3291 40.2881 55.6704 40.4082 55.9253V56H39.3184ZM38.145 55.231C38.356 55.231 38.5537 55.1797 38.7383 55.0771C38.9258 54.9746 39.0664 54.8369 39.1602 54.6641V53.7676H38.5845C38.189 53.7676 37.8916 53.8364 37.6924 53.9741C37.4932 54.1118 37.3936 54.3066 37.3936 54.5586C37.3936 54.7637 37.4609 54.9277 37.5957 55.0508C37.7334 55.1709 37.9165 55.231 38.145 55.231ZM41.1465 53.5874C41.1465 52.855 41.3164 52.2676 41.6562 51.8252C41.9961 51.3799 42.4517 51.1572 43.0229 51.1572C43.5269 51.1572 43.9341 51.333 44.2446 51.6846V49.25H45.3125V56H44.3457L44.293 55.5078C43.9736 55.8945 43.5474 56.0879 43.0142 56.0879C42.4575 56.0879 42.0063 55.8638 41.6606 55.4155C41.3179 54.9673 41.1465 54.3579 41.1465 53.5874ZM42.2144 53.6797C42.2144 54.1631 42.3066 54.541 42.4912 54.8135C42.6787 55.083 42.9438 55.2178 43.2866 55.2178C43.7231 55.2178 44.0425 55.0229 44.2446 54.6333V52.603C44.0483 52.2222 43.7319 52.0317 43.2954 52.0317C42.9497 52.0317 42.6831 52.1694 42.4956 52.4448C42.3081 52.7173 42.2144 53.1289 42.2144 53.6797ZM46.2266 53.5786C46.2266 53.1128 46.3188 52.6938 46.5034 52.3218C46.688 51.9468 46.9473 51.6597 47.2812 51.4604C47.6152 51.2583 47.999 51.1572 48.4326 51.1572C49.0742 51.1572 49.5942 51.3638 49.9927 51.7769C50.394 52.1899 50.6108 52.7378 50.6431 53.4204L50.6475 53.6709C50.6475 54.1396 50.5566 54.5586 50.375 54.9277C50.1963 55.2969 49.9385 55.5825 49.6016 55.7847C49.2676 55.9868 48.8809 56.0879 48.4414 56.0879C47.7705 56.0879 47.2329 55.8652 46.8286 55.4199C46.4272 54.9717 46.2266 54.3755 46.2266 53.6313V53.5786ZM47.2944 53.6709C47.2944 54.1602 47.3955 54.5439 47.5977 54.8223C47.7998 55.0977 48.0811 55.2354 48.4414 55.2354C48.8018 55.2354 49.0815 55.0947 49.2808 54.8135C49.4829 54.5322 49.584 54.1206 49.584 53.5786C49.584 53.0981 49.48 52.7173 49.272 52.436C49.0669 52.1548 48.7871 52.0142 48.4326 52.0142C48.084 52.0142 47.8071 52.1533 47.6021 52.4316C47.397 52.707 47.2944 53.1201 47.2944 53.6709ZM54.04 52.2207C53.8994 52.1973 53.7544 52.1855 53.605 52.1855C53.1157 52.1855 52.7861 52.373 52.6162 52.748V56H51.5483V51.2451H52.5679L52.5942 51.7769C52.8521 51.3638 53.2095 51.1572 53.6665 51.1572C53.8188 51.1572 53.9448 51.1777 54.0444 51.2188L54.04 52.2207Z" fill="#7C7C7C"/>
</svg>
