<svg width="67" height="57" viewBox="0 0 67 57" fill="none" xmlns="http://www.w3.org/2000/svg">
<path d="M39.1318 20.188L35.287 24.2908L46.1551 35.8879L50 31.7851L39.1318 20.188Z" fill="#36A792"/>
<path d="M42.0245 14.2879C45.5227 14.2879 48.3683 11.2514 48.3683 7.51869C48.3683 6.39693 48.0783 5.35254 47.6252 4.42418L42.7314 9.64617L40.0308 6.76441L44.9245 1.54242C44.0545 1.0589 43.0758 0.749452 42.0245 0.749452C38.5264 0.749452 35.6808 3.78594 35.6808 7.51869C35.6808 8.31166 35.8258 9.06595 36.0614 9.76221L32.7083 13.3402L29.482 9.8976L30.7689 8.52441L28.2133 5.79737L32.0558 1.69715C29.9352 -0.565715 26.4914 -0.565715 24.3708 1.69715L17.9546 8.54375L20.5102 11.2708H15.3989L14.1121 12.644L20.5283 19.4906L21.8152 18.1174V12.644L24.3708 15.371L25.6577 13.9978L28.8839 17.4405L15.4533 31.7719L19.2958 35.8722L39.922 13.8818C40.5745 14.1332 41.2814 14.2879 42.0245 14.2879Z" fill="#36A792"/>
<path d="M11.6196 44.2271H9.08838V45.9409H12.0591V47H7.77002V40.6016H12.0503V41.6694H9.08838V43.1943H11.6196V44.2271ZM14.0894 47H12.8149V40.25H14.0894V47ZM17.3281 47.0879C16.6309 47.0879 16.0625 46.874 15.623 46.4463C15.1865 46.0186 14.9683 45.4487 14.9683 44.7368V44.6138C14.9683 44.1362 15.0605 43.71 15.2451 43.335C15.4297 42.957 15.6904 42.667 16.0273 42.4648C16.3672 42.2598 16.7539 42.1572 17.1875 42.1572C17.8379 42.1572 18.3491 42.3623 18.7212 42.7725C19.0962 43.1826 19.2837 43.7642 19.2837 44.5171V45.0356H16.2559C16.2969 45.3462 16.4199 45.5952 16.625 45.7827C16.833 45.9702 17.0952 46.064 17.4116 46.064C17.9009 46.064 18.2832 45.8867 18.5586 45.5322L19.1826 46.231C18.9922 46.5005 18.7344 46.7114 18.4092 46.8638C18.084 47.0132 17.7236 47.0879 17.3281 47.0879ZM17.1831 43.1855C16.9312 43.1855 16.7261 43.2705 16.5679 43.4404C16.4126 43.6104 16.313 43.8535 16.269 44.1699H18.0356V44.0688C18.0298 43.7876 17.9536 43.5708 17.8071 43.4185C17.6606 43.2632 17.4526 43.1855 17.1831 43.1855ZM21.1997 42.2451L21.2393 42.7769C21.5762 42.3638 22.0317 42.1572 22.606 42.1572C23.2183 42.1572 23.6387 42.3989 23.8672 42.8823C24.2012 42.3989 24.6772 42.1572 25.2954 42.1572C25.811 42.1572 26.1948 42.3081 26.4468 42.6099C26.6987 42.9087 26.8247 43.3599 26.8247 43.9634V47H25.5503V43.9678C25.5503 43.6982 25.4976 43.502 25.3921 43.3789C25.2866 43.2529 25.1006 43.1899 24.834 43.1899C24.4531 43.1899 24.1895 43.3716 24.043 43.7349L24.0474 47H22.7773V43.9722C22.7773 43.6968 22.7231 43.4976 22.6147 43.3745C22.5063 43.2515 22.3218 43.1899 22.061 43.1899C21.7007 43.1899 21.4399 43.3394 21.2788 43.6382V47H20.0088V42.2451H21.1997ZM29.9932 47.0879C29.2959 47.0879 28.7275 46.874 28.2881 46.4463C27.8516 46.0186 27.6333 45.4487 27.6333 44.7368V44.6138C27.6333 44.1362 27.7256 43.71 27.9102 43.335C28.0947 42.957 28.3555 42.667 28.6924 42.4648C29.0322 42.2598 29.4189 42.1572 29.8525 42.1572C30.5029 42.1572 31.0142 42.3623 31.3862 42.7725C31.7612 43.1826 31.9487 43.7642 31.9487 44.5171V45.0356H28.9209C28.9619 45.3462 29.085 45.5952 29.29 45.7827C29.498 45.9702 29.7603 46.064 30.0767 46.064C30.5659 46.064 30.9482 45.8867 31.2236 45.5322L31.8477 46.231C31.6572 46.5005 31.3994 46.7114 31.0742 46.8638C30.749 47.0132 30.3887 47.0879 29.9932 47.0879ZM29.8481 43.1855C29.5962 43.1855 29.3911 43.2705 29.2329 43.4404C29.0776 43.6104 28.978 43.8535 28.9341 44.1699H30.7007V44.0688C30.6948 43.7876 30.6187 43.5708 30.4722 43.4185C30.3257 43.2632 30.1177 43.1855 29.8481 43.1855ZM33.8428 42.2451L33.8823 42.7944C34.2222 42.3696 34.6777 42.1572 35.249 42.1572C35.7529 42.1572 36.1279 42.3052 36.374 42.6011C36.6201 42.897 36.7461 43.3394 36.752 43.9282V47H35.4819V43.959C35.4819 43.6895 35.4233 43.4946 35.3062 43.3745C35.189 43.2515 34.9941 43.1899 34.7217 43.1899C34.3643 43.1899 34.0962 43.3423 33.9175 43.647V47H32.6475V42.2451H33.8428ZM39.2393 41.0762V42.2451H40.0522V43.1768H39.2393V45.5498C39.2393 45.7256 39.2729 45.8516 39.3403 45.9277C39.4077 46.0039 39.5366 46.042 39.7271 46.042C39.8677 46.042 39.9922 46.0317 40.1006 46.0112V46.9736C39.8516 47.0498 39.5952 47.0879 39.3315 47.0879C38.4409 47.0879 37.9868 46.6382 37.9692 45.7388V43.1768H37.2749V42.2451H37.9692V41.0762H39.2393ZM40.4302 44.5786C40.4302 44.1069 40.521 43.6865 40.7026 43.3174C40.8843 42.9482 41.145 42.6626 41.4849 42.4604C41.8276 42.2583 42.2246 42.1572 42.6758 42.1572C43.3174 42.1572 43.8403 42.3535 44.2446 42.7461C44.6519 43.1387 44.8789 43.6719 44.9258 44.3457L44.9346 44.6709C44.9346 45.4004 44.731 45.9863 44.3237 46.4287C43.9165 46.8682 43.3701 47.0879 42.6846 47.0879C41.999 47.0879 41.4512 46.8682 41.041 46.4287C40.6338 45.9893 40.4302 45.3916 40.4302 44.6357V44.5786ZM41.7002 44.6709C41.7002 45.1221 41.7852 45.4678 41.9551 45.708C42.125 45.9453 42.3682 46.064 42.6846 46.064C42.9922 46.064 43.2324 45.9468 43.4053 45.7124C43.5781 45.4751 43.6646 45.0972 43.6646 44.5786C43.6646 44.1362 43.5781 43.7935 43.4053 43.5503C43.2324 43.3071 42.9893 43.1855 42.6758 43.1855C42.3652 43.1855 42.125 43.3071 41.9551 43.5503C41.7852 43.7905 41.7002 44.1641 41.7002 44.6709ZM48.292 45.686C48.292 45.5308 48.2144 45.4092 48.0591 45.3213C47.9067 45.2305 47.6606 45.1499 47.3208 45.0796C46.1899 44.8423 45.6245 44.3618 45.6245 43.6382C45.6245 43.2163 45.7988 42.8647 46.1475 42.5835C46.499 42.2993 46.9575 42.1572 47.5229 42.1572C48.1265 42.1572 48.6084 42.2993 48.9688 42.5835C49.332 42.8677 49.5137 43.2368 49.5137 43.6909H48.2437C48.2437 43.5093 48.1851 43.3599 48.0679 43.2427C47.9507 43.1226 47.7676 43.0625 47.5186 43.0625C47.3047 43.0625 47.1392 43.1108 47.022 43.2075C46.9048 43.3042 46.8462 43.4272 46.8462 43.5767C46.8462 43.7173 46.9121 43.8315 47.0439 43.9194C47.1787 44.0044 47.4043 44.0791 47.7207 44.1436C48.0371 44.2051 48.3037 44.2754 48.5205 44.3545C49.1914 44.6006 49.5269 45.0269 49.5269 45.6333C49.5269 46.0669 49.3408 46.4185 48.9688 46.688C48.5967 46.9546 48.1162 47.0879 47.5273 47.0879C47.1289 47.0879 46.7744 47.0176 46.4639 46.877C46.1562 46.7334 45.9146 46.5386 45.7388 46.2925C45.563 46.0435 45.4751 45.7754 45.4751 45.4883H46.6792C46.6909 45.7139 46.7744 45.8867 46.9297 46.0068C47.085 46.127 47.293 46.187 47.5537 46.187C47.7969 46.187 47.98 46.1416 48.103 46.0508C48.229 45.957 48.292 45.8354 48.292 45.686ZM52.3921 44.5874C52.3921 43.8462 52.5576 43.2559 52.8887 42.8164C53.2227 42.377 53.6782 42.1572 54.2554 42.1572C54.7183 42.1572 55.1006 42.3301 55.4023 42.6758V40.25H56.6768V47H55.5298L55.4683 46.4946C55.1519 46.8901 54.7446 47.0879 54.2466 47.0879C53.687 47.0879 53.2373 46.8682 52.8975 46.4287C52.5605 45.9863 52.3921 45.3726 52.3921 44.5874ZM53.6621 44.6797C53.6621 45.125 53.7397 45.4663 53.895 45.7036C54.0503 45.9409 54.2759 46.0596 54.5718 46.0596C54.9644 46.0596 55.2412 45.894 55.4023 45.563V43.6865C55.2441 43.3555 54.9702 43.1899 54.5806 43.1899C53.9683 43.1899 53.6621 43.6865 53.6621 44.6797ZM59.8496 47.0879C59.1523 47.0879 58.584 46.874 58.1445 46.4463C57.708 46.0186 57.4897 45.4487 57.4897 44.7368V44.6138C57.4897 44.1362 57.582 43.71 57.7666 43.335C57.9512 42.957 58.2119 42.667 58.5488 42.4648C58.8887 42.2598 59.2754 42.1572 59.709 42.1572C60.3594 42.1572 60.8706 42.3623 61.2427 42.7725C61.6177 43.1826 61.8052 43.7642 61.8052 44.5171V45.0356H58.7773C58.8184 45.3462 58.9414 45.5952 59.1465 45.7827C59.3545 45.9702 59.6167 46.064 59.9331 46.064C60.4224 46.064 60.8047 45.8867 61.0801 45.5322L61.7041 46.231C61.5137 46.5005 61.2559 46.7114 60.9307 46.8638C60.6055 47.0132 60.2451 47.0879 59.8496 47.0879ZM59.7046 43.1855C59.4526 43.1855 59.2476 43.2705 59.0894 43.4404C58.9341 43.6104 58.8345 43.8535 58.7905 44.1699H60.5571V44.0688C60.5513 43.7876 60.4751 43.5708 60.3286 43.4185C60.1821 43.2632 59.9741 43.1855 59.7046 43.1855ZM21.3359 49.0762V50.2451H22.1489V51.1768H21.3359V53.5498C21.3359 53.7256 21.3696 53.8516 21.437 53.9277C21.5044 54.0039 21.6333 54.042 21.8237 54.042C21.9644 54.042 22.0889 54.0317 22.1973 54.0112V54.9736C21.9482 55.0498 21.6919 55.0879 21.4282 55.0879C20.5376 55.0879 20.0835 54.6382 20.0659 53.7388V51.1768H19.3716V50.2451H20.0659V49.0762H21.3359ZM25.5283 51.436C25.3555 51.4126 25.2031 51.4009 25.0713 51.4009C24.5908 51.4009 24.2759 51.5635 24.1265 51.8887V55H22.8564V50.2451H24.0562L24.0913 50.812C24.3462 50.3755 24.6992 50.1572 25.1504 50.1572C25.291 50.1572 25.4229 50.1763 25.5459 50.2144L25.5283 51.436ZM28.7671 55C28.7085 54.8857 28.666 54.7437 28.6396 54.5737C28.332 54.9165 27.9321 55.0879 27.4399 55.0879C26.9741 55.0879 26.5874 54.9531 26.2798 54.6836C25.9751 54.4141 25.8228 54.0742 25.8228 53.6641C25.8228 53.1602 26.0088 52.7734 26.3809 52.5039C26.7559 52.2344 27.2964 52.0981 28.0024 52.0952H28.5869V51.8228C28.5869 51.603 28.5298 51.4272 28.4155 51.2954C28.3042 51.1636 28.127 51.0977 27.8838 51.0977C27.6699 51.0977 27.5015 51.1489 27.3784 51.2515C27.2583 51.354 27.1982 51.4946 27.1982 51.6733H25.9282C25.9282 51.3979 26.0132 51.1431 26.1831 50.9087C26.353 50.6743 26.5933 50.4912 26.9038 50.3594C27.2144 50.2246 27.563 50.1572 27.9497 50.1572C28.5356 50.1572 29 50.3052 29.3428 50.6011C29.6885 50.894 29.8613 51.3071 29.8613 51.8403V53.9014C29.8643 54.3525 29.9272 54.6938 30.0503 54.9253V55H28.7671ZM27.7168 54.1167C27.9043 54.1167 28.0771 54.0757 28.2354 53.9937C28.3936 53.9087 28.5107 53.7959 28.5869 53.6553V52.8379H28.1123C27.4766 52.8379 27.1382 53.0576 27.0972 53.4971L27.0928 53.5718C27.0928 53.73 27.1484 53.8604 27.2598 53.9629C27.3711 54.0654 27.5234 54.1167 27.7168 54.1167ZM35.1216 52.6665C35.1216 53.4282 34.959 54.0229 34.6338 54.4507C34.3086 54.8755 33.8545 55.0879 33.2715 55.0879C32.7559 55.0879 32.3442 54.8901 32.0366 54.4946L31.9795 55H30.8369V48.25H32.1069V50.6714C32.3999 50.3286 32.7852 50.1572 33.2627 50.1572C33.8428 50.1572 34.2969 50.3711 34.625 50.7988C34.9561 51.2236 35.1216 51.8228 35.1216 52.5962V52.6665ZM33.8516 52.5742C33.8516 52.0938 33.7754 51.7437 33.623 51.5239C33.4707 51.3013 33.2437 51.1899 32.9419 51.1899C32.5376 51.1899 32.2593 51.3555 32.1069 51.6865V53.563C32.2622 53.897 32.5435 54.064 32.9507 54.064C33.3608 54.064 33.6304 53.8618 33.7593 53.4575C33.8208 53.2642 33.8516 52.9697 33.8516 52.5742ZM38.6636 55C38.605 54.8857 38.5625 54.7437 38.5361 54.5737C38.2285 54.9165 37.8286 55.0879 37.3364 55.0879C36.8706 55.0879 36.4839 54.9531 36.1763 54.6836C35.8716 54.4141 35.7192 54.0742 35.7192 53.6641C35.7192 53.1602 35.9053 52.7734 36.2773 52.5039C36.6523 52.2344 37.1929 52.0981 37.8989 52.0952H38.4834V51.8228C38.4834 51.603 38.4263 51.4272 38.312 51.2954C38.2007 51.1636 38.0234 51.0977 37.7803 51.0977C37.5664 51.0977 37.3979 51.1489 37.2749 51.2515C37.1548 51.354 37.0947 51.4946 37.0947 51.6733H35.8247C35.8247 51.3979 35.9097 51.1431 36.0796 50.9087C36.2495 50.6743 36.4897 50.4912 36.8003 50.3594C37.1108 50.2246 37.4595 50.1572 37.8462 50.1572C38.4321 50.1572 38.8965 50.3052 39.2393 50.6011C39.585 50.894 39.7578 51.3071 39.7578 51.8403V53.9014C39.7607 54.3525 39.8237 54.6938 39.9468 54.9253V55H38.6636ZM37.6133 54.1167C37.8008 54.1167 37.9736 54.0757 38.1318 53.9937C38.29 53.9087 38.4072 53.7959 38.4834 53.6553V52.8379H38.0088C37.373 52.8379 37.0347 53.0576 36.9937 53.4971L36.9893 53.5718C36.9893 53.73 37.0449 53.8604 37.1562 53.9629C37.2676 54.0654 37.4199 54.1167 37.6133 54.1167ZM42.0781 50.2451V55.2593C42.0781 55.7837 41.939 56.1909 41.6606 56.481C41.3823 56.7739 40.981 56.9204 40.4565 56.9204C40.2368 56.9204 40.0273 56.8955 39.8281 56.8457V55.8394C39.9805 55.8657 40.1138 55.8789 40.228 55.8789C40.6118 55.8789 40.8037 55.6753 40.8037 55.2681V50.2451H42.0781ZM40.7026 49.0146C40.7026 48.8242 40.7656 48.6675 40.8916 48.5444C41.0205 48.4214 41.1948 48.3599 41.4146 48.3599C41.6343 48.3599 41.8071 48.4214 41.9331 48.5444C42.062 48.6675 42.1265 48.8242 42.1265 49.0146C42.1265 49.208 42.0605 49.3662 41.9287 49.4893C41.7998 49.6123 41.6284 49.6738 41.4146 49.6738C41.2007 49.6738 41.0278 49.6123 40.896 49.4893C40.7671 49.3662 40.7026 49.208 40.7026 49.0146ZM42.8735 52.5786C42.8735 52.1069 42.9644 51.6865 43.146 51.3174C43.3276 50.9482 43.5884 50.6626 43.9282 50.4604C44.271 50.2583 44.668 50.1572 45.1191 50.1572C45.7607 50.1572 46.2837 50.3535 46.688 50.7461C47.0952 51.1387 47.3223 51.6719 47.3691 52.3457L47.3779 52.6709C47.3779 53.4004 47.1743 53.9863 46.7671 54.4287C46.3599 54.8682 45.8135 55.0879 45.1279 55.0879C44.4424 55.0879 43.8945 54.8682 43.4844 54.4287C43.0771 53.9893 42.8735 53.3916 42.8735 52.6357V52.5786ZM44.1436 52.6709C44.1436 53.1221 44.2285 53.4678 44.3984 53.708C44.5684 53.9453 44.8115 54.064 45.1279 54.064C45.4355 54.064 45.6758 53.9468 45.8486 53.7124C46.0215 53.4751 46.1079 53.0972 46.1079 52.5786C46.1079 52.1362 46.0215 51.7935 45.8486 51.5503C45.6758 51.3071 45.4326 51.1855 45.1191 51.1855C44.8086 51.1855 44.5684 51.3071 44.3984 51.5503C44.2285 51.7905 44.1436 52.1641 44.1436 52.6709Z" fill="#36A792"/>
</svg>
