<svg width="67" height="58" viewBox="0 0 67 58" fill="none" xmlns="http://www.w3.org/2000/svg">
<path d="M23.8692 0C21.2517 0 18.7414 1.24712 16.8906 3.467C15.0398 5.68688 14 8.69769 14 11.8371C14 12.9132 14.1615 13.9893 14.3948 15.0654H21.7159L23.9948 7.81247C24.5331 6.09071 26.6505 5.91854 27.3323 7.81247L31.0467 19.3698L32.1054 16.3136C32.3387 15.6034 32.9667 15.0654 33.7383 15.0654H49.4931C49.7264 13.9893 49.8879 12.9132 49.8879 11.8371C49.8879 8.69769 48.8481 5.68688 46.9972 3.467C45.1464 1.24712 42.6362 0 40.0187 0C36.6811 0 33.7383 2.00154 31.9439 5.03614C30.1495 2.00154 27.2067 0 23.8692 0ZM15.7944 18.2937C15.3185 18.2937 14.8621 18.5204 14.5256 18.924C14.1891 19.3276 14 19.8751 14 20.4459C14 21.0167 14.1891 21.5641 14.5256 21.9677C14.8621 22.3713 15.3185 22.598 15.7944 22.598H20.1727L30.1495 34.4351C31.9439 36.3721 31.9439 36.3721 33.7383 34.4351L43.7151 22.598H48.0935C48.5694 22.598 49.0258 22.3713 49.3623 21.9677C49.6988 21.5641 49.8879 21.0167 49.8879 20.4459C49.8879 19.8751 49.6988 19.3276 49.3623 18.924C49.0258 18.5204 48.5694 18.2937 48.0935 18.2937H34.4561L32.7873 23.2437C32.0695 25.4174 30.006 25.1161 29.3421 23.3083L25.6636 11.8371L23.9409 16.8517C23.6718 17.6695 23.0617 18.2937 22.2542 18.2937H15.7944Z" fill="#5B7288"/>
<path d="M8.71045 44.1436H6.08252V46.1123H9.1543V47H4.9707V40.6016H9.12354V41.498H6.08252V43.2646H8.71045V44.1436ZM10.9473 42.2451L10.978 42.7944C11.3296 42.3696 11.791 42.1572 12.3623 42.1572C13.3525 42.1572 13.8564 42.7241 13.874 43.8579V47H12.8062V43.9194C12.8062 43.6177 12.7402 43.395 12.6084 43.2515C12.4795 43.105 12.2671 43.0317 11.9712 43.0317C11.5405 43.0317 11.2197 43.2266 11.0088 43.6162V47H9.94092V42.2451H10.9473ZM15.3418 47V43.0361H14.6167V42.2451H15.3418V41.8101C15.3418 41.2827 15.4883 40.8755 15.7812 40.5884C16.0742 40.3013 16.4844 40.1577 17.0117 40.1577C17.1992 40.1577 17.3984 40.1841 17.6094 40.2368L17.583 41.0718C17.4658 41.0483 17.3296 41.0366 17.1743 41.0366C16.6646 41.0366 16.4097 41.2988 16.4097 41.8232V42.2451H17.3765V43.0361H16.4097V47H15.3418ZM20.145 47.0879C19.4683 47.0879 18.9189 46.8755 18.4971 46.4507C18.0781 46.0229 17.8687 45.4546 17.8687 44.7456V44.6138C17.8687 44.1392 17.9595 43.7158 18.1411 43.3438C18.3257 42.9688 18.5835 42.6772 18.9146 42.4692C19.2456 42.2612 19.6147 42.1572 20.022 42.1572C20.6694 42.1572 21.1689 42.3638 21.5205 42.7769C21.875 43.1899 22.0522 43.7744 22.0522 44.5303V44.9609H18.9453C18.9775 45.3535 19.1079 45.6641 19.3364 45.8926C19.5679 46.1211 19.8579 46.2354 20.2065 46.2354C20.6958 46.2354 21.0942 46.0376 21.4019 45.6421L21.9775 46.1914C21.7871 46.4756 21.5322 46.6968 21.2129 46.855C20.8965 47.0103 20.5405 47.0879 20.145 47.0879ZM20.0176 43.0142C19.7246 43.0142 19.4873 43.1167 19.3057 43.3218C19.127 43.5269 19.0127 43.8125 18.9629 44.1787H20.9976V44.0996C20.9741 43.7422 20.8789 43.4727 20.7119 43.291C20.5449 43.1064 20.3135 43.0142 20.0176 43.0142ZM25.3745 43.2207C25.2339 43.1973 25.0889 43.1855 24.9395 43.1855C24.4502 43.1855 24.1206 43.373 23.9507 43.748V47H22.8828V42.2451H23.9023L23.9287 42.7769C24.1865 42.3638 24.5439 42.1572 25.001 42.1572C25.1533 42.1572 25.2793 42.1777 25.3789 42.2188L25.3745 43.2207ZM27.0532 42.2451L27.084 42.7417C27.418 42.3521 27.875 42.1572 28.4551 42.1572C29.0908 42.1572 29.5259 42.4004 29.7603 42.8867C30.106 42.4004 30.5923 42.1572 31.2192 42.1572C31.7437 42.1572 32.1333 42.3022 32.3882 42.5923C32.646 42.8823 32.7778 43.3101 32.7837 43.8755V47H31.7158V43.9062C31.7158 43.6045 31.6499 43.3833 31.5181 43.2427C31.3862 43.1021 31.168 43.0317 30.8633 43.0317C30.6201 43.0317 30.4209 43.0977 30.2656 43.2295C30.1133 43.3584 30.0063 43.5283 29.9448 43.7393L29.9492 47H28.8813V43.8711C28.8667 43.3115 28.5811 43.0317 28.0244 43.0317C27.5967 43.0317 27.2935 43.2061 27.1147 43.5547V47H26.0469V42.2451H27.0532ZM35.9741 47.0879C35.2974 47.0879 34.748 46.8755 34.3262 46.4507C33.9072 46.0229 33.6978 45.4546 33.6978 44.7456V44.6138C33.6978 44.1392 33.7886 43.7158 33.9702 43.3438C34.1548 42.9688 34.4126 42.6772 34.7437 42.4692C35.0747 42.2612 35.4438 42.1572 35.8511 42.1572C36.4985 42.1572 36.998 42.3638 37.3496 42.7769C37.7041 43.1899 37.8813 43.7744 37.8813 44.5303V44.9609H34.7744C34.8066 45.3535 34.937 45.6641 35.1655 45.8926C35.397 46.1211 35.687 46.2354 36.0356 46.2354C36.5249 46.2354 36.9233 46.0376 37.231 45.6421L37.8066 46.1914C37.6162 46.4756 37.3613 46.6968 37.042 46.855C36.7256 47.0103 36.3696 47.0879 35.9741 47.0879ZM35.8467 43.0142C35.5537 43.0142 35.3164 43.1167 35.1348 43.3218C34.9561 43.5269 34.8418 43.8125 34.792 44.1787H36.8267V44.0996C36.8032 43.7422 36.708 43.4727 36.541 43.291C36.374 43.1064 36.1426 43.0142 35.8467 43.0142ZM38.5142 44.5874C38.5142 43.855 38.6841 43.2676 39.0239 42.8252C39.3638 42.3799 39.8193 42.1572 40.3906 42.1572C40.8945 42.1572 41.3018 42.333 41.6123 42.6846V40.25H42.6802V47H41.7134L41.6606 46.5078C41.3413 46.8945 40.915 47.0879 40.3818 47.0879C39.8252 47.0879 39.374 46.8638 39.0283 46.4155C38.6855 45.9673 38.5142 45.3579 38.5142 44.5874ZM39.582 44.6797C39.582 45.1631 39.6743 45.541 39.8589 45.8135C40.0464 46.083 40.3115 46.2178 40.6543 46.2178C41.0908 46.2178 41.4102 46.0229 41.6123 45.6333V43.603C41.416 43.2222 41.0996 43.0317 40.6631 43.0317C40.3174 43.0317 40.0508 43.1694 39.8633 43.4448C39.6758 43.7173 39.582 44.1289 39.582 44.6797ZM46.6353 47C46.5884 46.9092 46.5474 46.7612 46.5122 46.5562C46.1724 46.9106 45.7563 47.0879 45.2642 47.0879C44.7866 47.0879 44.397 46.9517 44.0952 46.6792C43.7935 46.4067 43.6426 46.0698 43.6426 45.6685C43.6426 45.1616 43.8301 44.7734 44.2051 44.5039C44.583 44.2314 45.1221 44.0952 45.8223 44.0952H46.4771V43.7832C46.4771 43.5371 46.4082 43.3408 46.2705 43.1943C46.1328 43.0449 45.9233 42.9702 45.6421 42.9702C45.3989 42.9702 45.1997 43.0317 45.0444 43.1548C44.8892 43.2749 44.8115 43.4287 44.8115 43.6162H43.7437C43.7437 43.3555 43.8301 43.1123 44.0029 42.8867C44.1758 42.6582 44.4102 42.4795 44.7061 42.3506C45.0049 42.2217 45.3374 42.1572 45.7036 42.1572C46.2603 42.1572 46.7041 42.2979 47.0352 42.5791C47.3662 42.8574 47.5361 43.25 47.5449 43.7568V45.9014C47.5449 46.3291 47.605 46.6704 47.7251 46.9253V47H46.6353ZM45.4619 46.231C45.6729 46.231 45.8706 46.1797 46.0552 46.0771C46.2427 45.9746 46.3833 45.8369 46.4771 45.6641V44.7676H45.9014C45.5059 44.7676 45.2085 44.8364 45.0093 44.9741C44.8101 45.1118 44.7104 45.3066 44.7104 45.5586C44.7104 45.7637 44.7778 45.9277 44.9126 46.0508C45.0503 46.1709 45.2334 46.231 45.4619 46.231ZM48.4634 44.5874C48.4634 43.855 48.6333 43.2676 48.9731 42.8252C49.313 42.3799 49.7686 42.1572 50.3398 42.1572C50.8438 42.1572 51.251 42.333 51.5615 42.6846V40.25H52.6294V47H51.6626L51.6099 46.5078C51.2905 46.8945 50.8643 47.0879 50.3311 47.0879C49.7744 47.0879 49.3232 46.8638 48.9775 46.4155C48.6348 45.9673 48.4634 45.3579 48.4634 44.5874ZM49.5312 44.6797C49.5312 45.1631 49.6235 45.541 49.8081 45.8135C49.9956 46.083 50.2607 46.2178 50.6035 46.2178C51.04 46.2178 51.3594 46.0229 51.5615 45.6333V43.603C51.3652 43.2222 51.0488 43.0317 50.6123 43.0317C50.2666 43.0317 50 43.1694 49.8125 43.4448C49.625 43.7173 49.5312 44.1289 49.5312 44.6797ZM55.8374 47.0879C55.1606 47.0879 54.6113 46.8755 54.1895 46.4507C53.7705 46.0229 53.561 45.4546 53.561 44.7456V44.6138C53.561 44.1392 53.6519 43.7158 53.8335 43.3438C54.0181 42.9688 54.2759 42.6772 54.6069 42.4692C54.938 42.2612 55.3071 42.1572 55.7144 42.1572C56.3618 42.1572 56.8613 42.3638 57.2129 42.7769C57.5674 43.1899 57.7446 43.7744 57.7446 44.5303V44.9609H54.6377C54.6699 45.3535 54.8003 45.6641 55.0288 45.8926C55.2603 46.1211 55.5503 46.2354 55.8989 46.2354C56.3882 46.2354 56.7866 46.0376 57.0942 45.6421L57.6699 46.1914C57.4795 46.4756 57.2246 46.6968 56.9053 46.855C56.5889 47.0103 56.2329 47.0879 55.8374 47.0879ZM55.71 43.0142C55.417 43.0142 55.1797 43.1167 54.998 43.3218C54.8193 43.5269 54.7051 43.8125 54.6553 44.1787H56.6899V44.0996C56.6665 43.7422 56.5713 43.4727 56.4043 43.291C56.2373 43.1064 56.0059 43.0142 55.71 43.0142ZM61.2427 45.708C61.2427 45.5176 61.1636 45.3726 61.0054 45.2729C60.8501 45.1733 60.5908 45.0854 60.2275 45.0093C59.8643 44.9331 59.561 44.8364 59.3179 44.7192C58.7847 44.4614 58.5181 44.0879 58.5181 43.5986C58.5181 43.1885 58.6909 42.8457 59.0366 42.5703C59.3823 42.2949 59.8218 42.1572 60.355 42.1572C60.9233 42.1572 61.3818 42.2979 61.7305 42.5791C62.082 42.8604 62.2578 43.2251 62.2578 43.6733H61.1899C61.1899 43.4683 61.1138 43.2983 60.9614 43.1636C60.8091 43.0259 60.6069 42.957 60.355 42.957C60.1206 42.957 59.9287 43.0112 59.7793 43.1196C59.6328 43.228 59.5596 43.373 59.5596 43.5547C59.5596 43.7188 59.6284 43.8462 59.7661 43.937C59.9038 44.0278 60.1821 44.1201 60.6011 44.2139C61.02 44.3047 61.3481 44.4146 61.5854 44.5435C61.8257 44.6694 62.0029 44.8218 62.1172 45.0005C62.2344 45.1792 62.293 45.396 62.293 45.6509C62.293 46.0786 62.1157 46.4258 61.7612 46.6924C61.4067 46.9561 60.9424 47.0879 60.3682 47.0879C59.9785 47.0879 59.6313 47.0176 59.3267 46.877C59.022 46.7363 58.7847 46.543 58.6147 46.2969C58.4448 46.0508 58.3599 45.7856 58.3599 45.5015H59.397C59.4116 45.7534 59.5068 45.9482 59.6826 46.0859C59.8584 46.2207 60.0913 46.2881 60.3813 46.2881C60.6626 46.2881 60.8765 46.2354 61.0229 46.1299C61.1694 46.0215 61.2427 45.8809 61.2427 45.708ZM16.6558 55H15.5879V48.25H16.6558V55ZM20.6636 55C20.6167 54.9092 20.5757 54.7612 20.5405 54.5562C20.2007 54.9106 19.7847 55.0879 19.2925 55.0879C18.8149 55.0879 18.4253 54.9517 18.1235 54.6792C17.8218 54.4067 17.6709 54.0698 17.6709 53.6685C17.6709 53.1616 17.8584 52.7734 18.2334 52.5039C18.6113 52.2314 19.1504 52.0952 19.8506 52.0952H20.5054V51.7832C20.5054 51.5371 20.4365 51.3408 20.2988 51.1943C20.1611 51.0449 19.9517 50.9702 19.6704 50.9702C19.4272 50.9702 19.228 51.0317 19.0728 51.1548C18.9175 51.2749 18.8398 51.4287 18.8398 51.6162H17.772C17.772 51.3555 17.8584 51.1123 18.0312 50.8867C18.2041 50.6582 18.4385 50.4795 18.7344 50.3506C19.0332 50.2217 19.3657 50.1572 19.7319 50.1572C20.2886 50.1572 20.7324 50.2979 21.0635 50.5791C21.3945 50.8574 21.5645 51.25 21.5732 51.7568V53.9014C21.5732 54.3291 21.6333 54.6704 21.7534 54.9253V55H20.6636ZM19.4902 54.231C19.7012 54.231 19.8989 54.1797 20.0835 54.0771C20.271 53.9746 20.4116 53.8369 20.5054 53.6641V52.7676H19.9297C19.5342 52.7676 19.2368 52.8364 19.0376 52.9741C18.8384 53.1118 18.7388 53.3066 18.7388 53.5586C18.7388 53.7637 18.8062 53.9277 18.9409 54.0508C19.0786 54.1709 19.2617 54.231 19.4902 54.231ZM26.8643 52.6709C26.8643 53.4092 26.6987 53.9966 26.3677 54.4331C26.0396 54.8696 25.5869 55.0879 25.0098 55.0879C24.4531 55.0879 24.0195 54.8872 23.709 54.4858L23.6562 55H22.6895V48.25H23.7573V50.7021C24.0649 50.3389 24.4795 50.1572 25.001 50.1572C25.5811 50.1572 26.0366 50.3726 26.3677 50.8032C26.6987 51.2339 26.8643 51.8359 26.8643 52.6094V52.6709ZM25.7964 52.5786C25.7964 52.063 25.7056 51.6763 25.5239 51.4185C25.3423 51.1606 25.0786 51.0317 24.7329 51.0317C24.27 51.0317 23.9448 51.2339 23.7573 51.6382V53.5981C23.9478 54.0112 24.2759 54.2178 24.7417 54.2178C25.0757 54.2178 25.3335 54.0933 25.5151 53.8442C25.6968 53.5952 25.7905 53.2188 25.7964 52.7148V52.5786ZM27.563 52.5786C27.563 52.1128 27.6553 51.6938 27.8398 51.3218C28.0244 50.9468 28.2837 50.6597 28.6177 50.4604C28.9517 50.2583 29.3354 50.1572 29.769 50.1572C30.4106 50.1572 30.9307 50.3638 31.3291 50.7769C31.7305 51.1899 31.9473 51.7378 31.9795 52.4204L31.9839 52.6709C31.9839 53.1396 31.8931 53.5586 31.7114 53.9277C31.5327 54.2969 31.2749 54.5825 30.938 54.7847C30.604 54.9868 30.2173 55.0879 29.7778 55.0879C29.1069 55.0879 28.5693 54.8652 28.165 54.4199C27.7637 53.9717 27.563 53.3755 27.563 52.6313V52.5786ZM28.6309 52.6709C28.6309 53.1602 28.7319 53.5439 28.9341 53.8223C29.1362 54.0977 29.4175 54.2354 29.7778 54.2354C30.1382 54.2354 30.418 54.0947 30.6172 53.8135C30.8193 53.5322 30.9204 53.1206 30.9204 52.5786C30.9204 52.0981 30.8164 51.7173 30.6084 51.436C30.4033 51.1548 30.1235 51.0142 29.769 51.0142C29.4204 51.0142 29.1436 51.1533 28.9385 51.4316C28.7334 51.707 28.6309 52.1201 28.6309 52.6709ZM35.3765 51.2207C35.2358 51.1973 35.0908 51.1855 34.9414 51.1855C34.4521 51.1855 34.1226 51.373 33.9526 51.748V55H32.8848V50.2451H33.9043L33.9307 50.7769C34.1885 50.3638 34.5459 50.1572 35.0029 50.1572C35.1553 50.1572 35.2812 50.1777 35.3809 50.2188L35.3765 51.2207ZM38.7603 55C38.7134 54.9092 38.6724 54.7612 38.6372 54.5562C38.2974 54.9106 37.8813 55.0879 37.3892 55.0879C36.9116 55.0879 36.522 54.9517 36.2202 54.6792C35.9185 54.4067 35.7676 54.0698 35.7676 53.6685C35.7676 53.1616 35.9551 52.7734 36.3301 52.5039C36.708 52.2314 37.2471 52.0952 37.9473 52.0952H38.6021V51.7832C38.6021 51.5371 38.5332 51.3408 38.3955 51.1943C38.2578 51.0449 38.0483 50.9702 37.7671 50.9702C37.5239 50.9702 37.3247 51.0317 37.1694 51.1548C37.0142 51.2749 36.9365 51.4287 36.9365 51.6162H35.8687C35.8687 51.3555 35.9551 51.1123 36.1279 50.8867C36.3008 50.6582 36.5352 50.4795 36.8311 50.3506C37.1299 50.2217 37.4624 50.1572 37.8286 50.1572C38.3853 50.1572 38.8291 50.2979 39.1602 50.5791C39.4912 50.8574 39.6611 51.25 39.6699 51.7568V53.9014C39.6699 54.3291 39.73 54.6704 39.8501 54.9253V55H38.7603ZM37.5869 54.231C37.7979 54.231 37.9956 54.1797 38.1802 54.0771C38.3677 53.9746 38.5083 53.8369 38.6021 53.6641V52.7676H38.0264C37.6309 52.7676 37.3335 52.8364 37.1343 52.9741C36.9351 53.1118 36.8354 53.3066 36.8354 53.5586C36.8354 53.7637 36.9028 53.9277 37.0376 54.0508C37.1753 54.1709 37.3584 54.231 37.5869 54.231ZM41.9243 55H40.8564V48.25H41.9243V55ZM45.1851 55.0879C44.5083 55.0879 43.959 54.8755 43.5371 54.4507C43.1182 54.0229 42.9087 53.4546 42.9087 52.7456V52.6138C42.9087 52.1392 42.9995 51.7158 43.1812 51.3438C43.3657 50.9688 43.6235 50.6772 43.9546 50.4692C44.2856 50.2612 44.6548 50.1572 45.062 50.1572C45.7095 50.1572 46.209 50.3638 46.5605 50.7769C46.915 51.1899 47.0923 51.7744 47.0923 52.5303V52.9609H43.9854C44.0176 53.3535 44.1479 53.6641 44.3765 53.8926C44.6079 54.1211 44.8979 54.2354 45.2466 54.2354C45.7358 54.2354 46.1343 54.0376 46.4419 53.6421L47.0176 54.1914C46.8271 54.4756 46.5723 54.6968 46.2529 54.855C45.9365 55.0103 45.5806 55.0879 45.1851 55.0879ZM45.0576 51.0142C44.7646 51.0142 44.5273 51.1167 44.3457 51.3218C44.167 51.5269 44.0527 51.8125 44.0029 52.1787H46.0376V52.0996C46.0142 51.7422 45.9189 51.4727 45.752 51.291C45.585 51.1064 45.3535 51.0142 45.0576 51.0142ZM50.5903 53.708C50.5903 53.5176 50.5112 53.3726 50.353 53.2729C50.1978 53.1733 49.9385 53.0854 49.5752 53.0093C49.2119 52.9331 48.9087 52.8364 48.6655 52.7192C48.1323 52.4614 47.8657 52.0879 47.8657 51.5986C47.8657 51.1885 48.0386 50.8457 48.3843 50.5703C48.73 50.2949 49.1694 50.1572 49.7026 50.1572C50.271 50.1572 50.7295 50.2979 51.0781 50.5791C51.4297 50.8604 51.6055 51.2251 51.6055 51.6733H50.5376C50.5376 51.4683 50.4614 51.2983 50.3091 51.1636C50.1567 51.0259 49.9546 50.957 49.7026 50.957C49.4683 50.957 49.2764 51.0112 49.127 51.1196C48.9805 51.228 48.9072 51.373 48.9072 51.5547C48.9072 51.7188 48.9761 51.8462 49.1138 51.937C49.2515 52.0278 49.5298 52.1201 49.9487 52.2139C50.3677 52.3047 50.6958 52.4146 50.9331 52.5435C51.1733 52.6694 51.3506 52.8218 51.4648 53.0005C51.582 53.1792 51.6406 53.396 51.6406 53.6509C51.6406 54.0786 51.4634 54.4258 51.1089 54.6924C50.7544 54.9561 50.29 55.0879 49.7158 55.0879C49.3262 55.0879 48.979 55.0176 48.6743 54.877C48.3696 54.7363 48.1323 54.543 47.9624 54.2969C47.7925 54.0508 47.7075 53.7856 47.7075 53.5015H48.7446C48.7593 53.7534 48.8545 53.9482 49.0303 54.0859C49.2061 54.2207 49.439 54.2881 49.729 54.2881C50.0103 54.2881 50.2241 54.2354 50.3706 54.1299C50.5171 54.0215 50.5903 53.8809 50.5903 53.708Z" fill="#7C7C7C"/>
</svg>
