<svg width="67" height="48" viewBox="0 0 67 48" fill="none" xmlns="http://www.w3.org/2000/svg">
<g clip-path="url(#clip0)">
<path d="M46.9003 3.58879H38.5664C37.729 1.50729 35.5358 0 32.9439 0C30.352 0 28.1589 1.50729 27.3215 3.58879H18.9875C17.93 3.58879 16.9157 3.96689 16.1679 4.63992C15.4201 5.31294 15 6.22577 15 7.17757V32.2991C15 33.2509 15.4201 34.1637 16.1679 34.8367C16.9157 35.5097 17.93 35.8879 18.9875 35.8879H46.9003C47.9579 35.8879 48.9721 35.5097 49.7199 34.8367C50.4677 34.1637 50.8879 33.2509 50.8879 32.2991V7.17757C50.8879 6.22577 50.4677 5.31294 49.7199 4.63992C48.9721 3.96689 47.9579 3.58879 46.9003 3.58879ZM32.9439 3.58879C33.4727 3.58879 33.9798 3.77784 34.3537 4.11435C34.7276 4.45086 34.9377 4.90728 34.9377 5.38318C34.9377 5.85908 34.7276 6.31549 34.3537 6.652C33.9798 6.98852 33.4727 7.17757 32.9439 7.17757C32.4151 7.17757 31.908 6.98852 31.5341 6.652C31.1602 6.31549 30.9502 5.85908 30.9502 5.38318C30.9502 4.90728 31.1602 4.45086 31.5341 4.11435C31.908 3.77784 32.4151 3.58879 32.9439 3.58879ZM18.9875 25.1215H25.1882L28.1988 20.0075L29.714 30.3611L37.071 21.9095L40.6997 25.1215H46.9003V32.2991H18.9875V25.1215ZM46.9003 22.3581H41.9757L36.7919 17.6927L31.8274 23.4168L29.9533 10.9099L23.314 22.3581H18.9875V7.17757H22.9751V8.97196H42.9128V7.17757H46.9003V8.97196V22.3581Z" fill="#5B7288"/>
</g>
<path d="M5.83643 44.1436H3.2085V46.1123H6.28027V47H2.09668V40.6016H6.24951V41.498H3.2085V43.2646H5.83643V44.1436ZM9.74756 45.708C9.74756 45.5176 9.66846 45.3726 9.51025 45.2729C9.35498 45.1733 9.0957 45.0854 8.73242 45.0093C8.36914 44.9331 8.06592 44.8364 7.82275 44.7192C7.28955 44.4614 7.02295 44.0879 7.02295 43.5986C7.02295 43.1885 7.1958 42.8457 7.5415 42.5703C7.88721 42.2949 8.32666 42.1572 8.85986 42.1572C9.42822 42.1572 9.88672 42.2979 10.2354 42.5791C10.5869 42.8604 10.7627 43.2251 10.7627 43.6733H9.69482C9.69482 43.4683 9.61865 43.2983 9.46631 43.1636C9.31396 43.0259 9.11182 42.957 8.85986 42.957C8.62549 42.957 8.43359 43.0112 8.28418 43.1196C8.1377 43.228 8.06445 43.373 8.06445 43.5547C8.06445 43.7188 8.1333 43.8462 8.271 43.937C8.40869 44.0278 8.68701 44.1201 9.10596 44.2139C9.5249 44.3047 9.85303 44.4146 10.0903 44.5435C10.3306 44.6694 10.5078 44.8218 10.6221 45.0005C10.7393 45.1792 10.7979 45.396 10.7979 45.6509C10.7979 46.0786 10.6206 46.4258 10.2661 46.6924C9.91162 46.9561 9.44727 47.0879 8.87305 47.0879C8.4834 47.0879 8.13623 47.0176 7.83154 46.877C7.52686 46.7363 7.28955 46.543 7.11963 46.2969C6.94971 46.0508 6.86475 45.7856 6.86475 45.5015H7.90186C7.9165 45.7534 8.01172 45.9482 8.1875 46.0859C8.36328 46.2207 8.59619 46.2881 8.88623 46.2881C9.16748 46.2881 9.38135 46.2354 9.52783 46.1299C9.67432 46.0215 9.74756 45.8809 9.74756 45.708ZM13.0698 41.0894V42.2451H13.9092V43.0361H13.0698V45.6904C13.0698 45.8721 13.105 46.0039 13.1753 46.0859C13.2485 46.165 13.3774 46.2046 13.562 46.2046C13.6851 46.2046 13.8096 46.1899 13.9355 46.1606V46.9868C13.6924 47.0542 13.458 47.0879 13.2324 47.0879C12.4121 47.0879 12.002 46.6353 12.002 45.73V43.0361H11.2197V42.2451H12.002V41.0894H13.0698ZM17.5698 47C17.5229 46.9092 17.4819 46.7612 17.4468 46.5562C17.1069 46.9106 16.6909 47.0879 16.1987 47.0879C15.7212 47.0879 15.3315 46.9517 15.0298 46.6792C14.728 46.4067 14.5771 46.0698 14.5771 45.6685C14.5771 45.1616 14.7646 44.7734 15.1396 44.5039C15.5176 44.2314 16.0566 44.0952 16.7568 44.0952H17.4116V43.7832C17.4116 43.5371 17.3428 43.3408 17.2051 43.1943C17.0674 43.0449 16.8579 42.9702 16.5767 42.9702C16.3335 42.9702 16.1343 43.0317 15.979 43.1548C15.8237 43.2749 15.7461 43.4287 15.7461 43.6162H14.6782C14.6782 43.3555 14.7646 43.1123 14.9375 42.8867C15.1104 42.6582 15.3447 42.4795 15.6406 42.3506C15.9395 42.2217 16.272 42.1572 16.6382 42.1572C17.1948 42.1572 17.6387 42.2979 17.9697 42.5791C18.3008 42.8574 18.4707 43.25 18.4795 43.7568V45.9014C18.4795 46.3291 18.5396 46.6704 18.6597 46.9253V47H17.5698ZM16.3965 46.231C16.6074 46.231 16.8052 46.1797 16.9897 46.0771C17.1772 45.9746 17.3179 45.8369 17.4116 45.6641V44.7676H16.8359C16.4404 44.7676 16.1431 44.8364 15.9438 44.9741C15.7446 45.1118 15.645 45.3066 15.645 45.5586C15.645 45.7637 15.7124 45.9277 15.8472 46.0508C15.9849 46.1709 16.168 46.231 16.3965 46.231ZM19.3979 44.5874C19.3979 43.855 19.5679 43.2676 19.9077 42.8252C20.2476 42.3799 20.7031 42.1572 21.2744 42.1572C21.7783 42.1572 22.1855 42.333 22.4961 42.6846V40.25H23.564V47H22.5972L22.5444 46.5078C22.2251 46.8945 21.7988 47.0879 21.2656 47.0879C20.709 47.0879 20.2578 46.8638 19.9121 46.4155C19.5693 45.9673 19.3979 45.3579 19.3979 44.5874ZM20.4658 44.6797C20.4658 45.1631 20.5581 45.541 20.7427 45.8135C20.9302 46.083 21.1953 46.2178 21.5381 46.2178C21.9746 46.2178 22.2939 46.0229 22.4961 45.6333V43.603C22.2998 43.2222 21.9834 43.0317 21.5469 43.0317C21.2012 43.0317 20.9346 43.1694 20.7471 43.4448C20.5596 43.7173 20.4658 44.1289 20.4658 44.6797ZM24.478 44.5786C24.478 44.1128 24.5703 43.6938 24.7549 43.3218C24.9395 42.9468 25.1987 42.6597 25.5327 42.4604C25.8667 42.2583 26.2505 42.1572 26.6841 42.1572C27.3257 42.1572 27.8457 42.3638 28.2441 42.7769C28.6455 43.1899 28.8623 43.7378 28.8945 44.4204L28.8989 44.6709C28.8989 45.1396 28.8081 45.5586 28.6265 45.9277C28.4478 46.2969 28.1899 46.5825 27.853 46.7847C27.519 46.9868 27.1323 47.0879 26.6929 47.0879C26.022 47.0879 25.4844 46.8652 25.0801 46.4199C24.6787 45.9717 24.478 45.3755 24.478 44.6313V44.5786ZM25.5459 44.6709C25.5459 45.1602 25.647 45.5439 25.8491 45.8223C26.0513 46.0977 26.3325 46.2354 26.6929 46.2354C27.0532 46.2354 27.333 46.0947 27.5322 45.8135C27.7344 45.5322 27.8354 45.1206 27.8354 44.5786C27.8354 44.0981 27.7314 43.7173 27.5234 43.436C27.3184 43.1548 27.0386 43.0142 26.6841 43.0142C26.3354 43.0142 26.0586 43.1533 25.8535 43.4316C25.6484 43.707 25.5459 44.1201 25.5459 44.6709ZM31.8433 44.5874C31.8433 43.855 32.0132 43.2676 32.353 42.8252C32.6929 42.3799 33.1484 42.1572 33.7197 42.1572C34.2236 42.1572 34.6309 42.333 34.9414 42.6846V40.25H36.0093V47H35.0425L34.9897 46.5078C34.6704 46.8945 34.2441 47.0879 33.7109 47.0879C33.1543 47.0879 32.7031 46.8638 32.3574 46.4155C32.0146 45.9673 31.8433 45.3579 31.8433 44.5874ZM32.9111 44.6797C32.9111 45.1631 33.0034 45.541 33.188 45.8135C33.3755 46.083 33.6406 46.2178 33.9834 46.2178C34.4199 46.2178 34.7393 46.0229 34.9414 45.6333V43.603C34.7451 43.2222 34.4287 43.0317 33.9922 43.0317C33.6465 43.0317 33.3799 43.1694 33.1924 43.4448C33.0049 43.7173 32.9111 44.1289 32.9111 44.6797ZM39.2173 47.0879C38.5405 47.0879 37.9912 46.8755 37.5693 46.4507C37.1504 46.0229 36.9409 45.4546 36.9409 44.7456V44.6138C36.9409 44.1392 37.0317 43.7158 37.2134 43.3438C37.3979 42.9688 37.6558 42.6772 37.9868 42.4692C38.3179 42.2612 38.687 42.1572 39.0942 42.1572C39.7417 42.1572 40.2412 42.3638 40.5928 42.7769C40.9473 43.1899 41.1245 43.7744 41.1245 44.5303V44.9609H38.0176C38.0498 45.3535 38.1802 45.6641 38.4087 45.8926C38.6401 46.1211 38.9302 46.2354 39.2788 46.2354C39.7681 46.2354 40.1665 46.0376 40.4741 45.6421L41.0498 46.1914C40.8594 46.4756 40.6045 46.6968 40.2852 46.855C39.9688 47.0103 39.6128 47.0879 39.2173 47.0879ZM39.0898 43.0142C38.7969 43.0142 38.5596 43.1167 38.3779 43.3218C38.1992 43.5269 38.085 43.8125 38.0352 44.1787H40.0698V44.0996C40.0464 43.7422 39.9512 43.4727 39.7842 43.291C39.6172 43.1064 39.3857 43.0142 39.0898 43.0142ZM46.8638 45.708C46.8638 45.5176 46.7847 45.3726 46.6265 45.2729C46.4712 45.1733 46.2119 45.0854 45.8486 45.0093C45.4854 44.9331 45.1821 44.8364 44.939 44.7192C44.4058 44.4614 44.1392 44.0879 44.1392 43.5986C44.1392 43.1885 44.312 42.8457 44.6577 42.5703C45.0034 42.2949 45.4429 42.1572 45.9761 42.1572C46.5444 42.1572 47.0029 42.2979 47.3516 42.5791C47.7031 42.8604 47.8789 43.2251 47.8789 43.6733H46.811C46.811 43.4683 46.7349 43.2983 46.5825 43.1636C46.4302 43.0259 46.228 42.957 45.9761 42.957C45.7417 42.957 45.5498 43.0112 45.4004 43.1196C45.2539 43.228 45.1807 43.373 45.1807 43.5547C45.1807 43.7188 45.2495 43.8462 45.3872 43.937C45.5249 44.0278 45.8032 44.1201 46.2222 44.2139C46.6411 44.3047 46.9692 44.4146 47.2065 44.5435C47.4468 44.6694 47.624 44.8218 47.7383 45.0005C47.8555 45.1792 47.9141 45.396 47.9141 45.6509C47.9141 46.0786 47.7368 46.4258 47.3823 46.6924C47.0278 46.9561 46.5635 47.0879 45.9893 47.0879C45.5996 47.0879 45.2524 47.0176 44.9478 46.877C44.6431 46.7363 44.4058 46.543 44.2358 46.2969C44.0659 46.0508 43.981 45.7856 43.981 45.5015H45.0181C45.0327 45.7534 45.1279 45.9482 45.3037 46.0859C45.4795 46.2207 45.7124 46.2881 46.0024 46.2881C46.2837 46.2881 46.4976 46.2354 46.644 46.1299C46.7905 46.0215 46.8638 45.8809 46.8638 45.708ZM51.689 47C51.6421 46.9092 51.6011 46.7612 51.5659 46.5562C51.2261 46.9106 50.8101 47.0879 50.3179 47.0879C49.8403 47.0879 49.4507 46.9517 49.1489 46.6792C48.8472 46.4067 48.6963 46.0698 48.6963 45.6685C48.6963 45.1616 48.8838 44.7734 49.2588 44.5039C49.6367 44.2314 50.1758 44.0952 50.876 44.0952H51.5308V43.7832C51.5308 43.5371 51.4619 43.3408 51.3242 43.1943C51.1865 43.0449 50.9771 42.9702 50.6958 42.9702C50.4526 42.9702 50.2534 43.0317 50.0981 43.1548C49.9429 43.2749 49.8652 43.4287 49.8652 43.6162H48.7974C48.7974 43.3555 48.8838 43.1123 49.0566 42.8867C49.2295 42.6582 49.4639 42.4795 49.7598 42.3506C50.0586 42.2217 50.3911 42.1572 50.7573 42.1572C51.314 42.1572 51.7578 42.2979 52.0889 42.5791C52.4199 42.8574 52.5898 43.25 52.5986 43.7568V45.9014C52.5986 46.3291 52.6587 46.6704 52.7788 46.9253V47H51.689ZM50.5156 46.231C50.7266 46.231 50.9243 46.1797 51.1089 46.0771C51.2964 45.9746 51.437 45.8369 51.5308 45.6641V44.7676H50.9551C50.5596 44.7676 50.2622 44.8364 50.063 44.9741C49.8638 45.1118 49.7642 45.3066 49.7642 45.5586C49.7642 45.7637 49.8315 45.9277 49.9663 46.0508C50.104 46.1709 50.2871 46.231 50.5156 46.231ZM54.853 47H53.7852V40.25H54.853V47ZM58.9004 46.5342C58.5869 46.9033 58.1416 47.0879 57.5645 47.0879C57.0488 47.0879 56.6577 46.937 56.3911 46.6353C56.1274 46.3335 55.9956 45.897 55.9956 45.3257V42.2451H57.0635V45.3125C57.0635 45.916 57.314 46.2178 57.8149 46.2178C58.3335 46.2178 58.6836 46.0317 58.8652 45.6597V42.2451H59.9331V47H58.9268L58.9004 46.5342ZM60.8208 44.5874C60.8208 43.855 60.9907 43.2676 61.3306 42.8252C61.6704 42.3799 62.126 42.1572 62.6973 42.1572C63.2012 42.1572 63.6084 42.333 63.9189 42.6846V40.25H64.9868V47H64.02L63.9673 46.5078C63.6479 46.8945 63.2217 47.0879 62.6885 47.0879C62.1318 47.0879 61.6807 46.8638 61.335 46.4155C60.9922 45.9673 60.8208 45.3579 60.8208 44.5874ZM61.8887 44.6797C61.8887 45.1631 61.981 45.541 62.1655 45.8135C62.353 46.083 62.6182 46.2178 62.9609 46.2178C63.3975 46.2178 63.7168 46.0229 63.9189 45.6333V43.603C63.7227 43.2222 63.4062 43.0317 62.9697 43.0317C62.624 43.0317 62.3574 43.1694 62.1699 43.4448C61.9824 43.7173 61.8887 44.1289 61.8887 44.6797Z" fill="#7C7C7C"/>
<defs>
<clipPath id="clip0">
<rect width="35.8879" height="35.8879" fill="white" transform="translate(15)"/>
</clipPath>
</defs>
</svg>
