<svg width="67" height="57" viewBox="0 0 67 57" fill="none" xmlns="http://www.w3.org/2000/svg">
<path d="M29.5123 23.9907L26.7828 21.472L29.5123 18.9354L32.2226 21.472L34.933 18.9354L32.2226 16.4166L34.933 13.8978L37.6625 16.4166L40.3729 13.8978L34.933 8.84245L21.3429 21.472L26.7828 26.5274L29.5123 23.9907ZM14 30.8146L19.9973 25.259L15.9222 21.472L34.933 3.78707L39.0273 7.592L41.7184 5.05538L39.0273 2.51876L41.7184 0L49.8879 7.592L47.1775 10.0929L44.448 7.592L41.7184 10.0929L45.8127 13.8978L26.7828 31.5649L22.7077 27.7778L14 35.8879V30.8146Z" fill="#5B7288"/>
<path d="M13.7554 44.1436H11.1274V46.1123H14.1992V47H10.0156V40.6016H14.1685V41.498H11.1274V43.2646H13.7554V44.1436ZM16.7085 43.8096L17.6138 42.2451H18.8003L17.3457 44.5874L18.8486 47H17.6709L16.7217 45.374L15.7769 47H14.5903L16.0933 44.5874L14.6431 42.2451H15.8208L16.7085 43.8096ZM22.3687 47C22.3218 46.9092 22.2808 46.7612 22.2456 46.5562C21.9058 46.9106 21.4897 47.0879 20.9976 47.0879C20.52 47.0879 20.1304 46.9517 19.8286 46.6792C19.5269 46.4067 19.376 46.0698 19.376 45.6685C19.376 45.1616 19.5635 44.7734 19.9385 44.5039C20.3164 44.2314 20.8555 44.0952 21.5557 44.0952H22.2104V43.7832C22.2104 43.5371 22.1416 43.3408 22.0039 43.1943C21.8662 43.0449 21.6567 42.9702 21.3755 42.9702C21.1323 42.9702 20.9331 43.0317 20.7778 43.1548C20.6226 43.2749 20.5449 43.4287 20.5449 43.6162H19.4771C19.4771 43.3555 19.5635 43.1123 19.7363 42.8867C19.9092 42.6582 20.1436 42.4795 20.4395 42.3506C20.7383 42.2217 21.0708 42.1572 21.437 42.1572C21.9937 42.1572 22.4375 42.2979 22.7686 42.5791C23.0996 42.8574 23.2695 43.25 23.2783 43.7568V45.9014C23.2783 46.3291 23.3384 46.6704 23.4585 46.9253V47H22.3687ZM21.1953 46.231C21.4062 46.231 21.604 46.1797 21.7886 46.0771C21.9761 45.9746 22.1167 45.8369 22.2104 45.6641V44.7676H21.6348C21.2393 44.7676 20.9419 44.8364 20.7427 44.9741C20.5435 45.1118 20.4438 45.3066 20.4438 45.5586C20.4438 45.7637 20.5112 45.9277 20.646 46.0508C20.7837 46.1709 20.9668 46.231 21.1953 46.231ZM21.7886 40.25H23.0059L21.7886 41.5815H20.9316L21.7886 40.25ZM25.4009 42.2451L25.4316 42.7417C25.7656 42.3521 26.2227 42.1572 26.8027 42.1572C27.4385 42.1572 27.8735 42.4004 28.1079 42.8867C28.4536 42.4004 28.9399 42.1572 29.5669 42.1572C30.0913 42.1572 30.481 42.3022 30.7358 42.5923C30.9937 42.8823 31.1255 43.3101 31.1313 43.8755V47H30.0635V43.9062C30.0635 43.6045 29.9976 43.3833 29.8657 43.2427C29.7339 43.1021 29.5156 43.0317 29.2109 43.0317C28.9678 43.0317 28.7686 43.0977 28.6133 43.2295C28.4609 43.3584 28.354 43.5283 28.2925 43.7393L28.2969 47H27.229V43.8711C27.2144 43.3115 26.9287 43.0317 26.3721 43.0317C25.9443 43.0317 25.6411 43.2061 25.4624 43.5547V47H24.3945V42.2451H25.4009ZM34.3218 47.0879C33.645 47.0879 33.0957 46.8755 32.6738 46.4507C32.2549 46.0229 32.0454 45.4546 32.0454 44.7456V44.6138C32.0454 44.1392 32.1362 43.7158 32.3179 43.3438C32.5024 42.9688 32.7603 42.6772 33.0913 42.4692C33.4224 42.2612 33.7915 42.1572 34.1987 42.1572C34.8462 42.1572 35.3457 42.3638 35.6973 42.7769C36.0518 43.1899 36.229 43.7744 36.229 44.5303V44.9609H33.1221C33.1543 45.3535 33.2847 45.6641 33.5132 45.8926C33.7446 46.1211 34.0347 46.2354 34.3833 46.2354C34.8726 46.2354 35.271 46.0376 35.5786 45.6421L36.1543 46.1914C35.9639 46.4756 35.709 46.6968 35.3896 46.855C35.0732 47.0103 34.7173 47.0879 34.3218 47.0879ZM34.1943 43.0142C33.9014 43.0142 33.6641 43.1167 33.4824 43.3218C33.3037 43.5269 33.1895 43.8125 33.1396 44.1787H35.1743V44.0996C35.1509 43.7422 35.0557 43.4727 34.8887 43.291C34.7217 43.1064 34.4902 43.0142 34.1943 43.0142ZM38.0527 42.2451L38.0835 42.7944C38.4351 42.3696 38.8965 42.1572 39.4678 42.1572C40.458 42.1572 40.9619 42.7241 40.9795 43.8579V47H39.9116V43.9194C39.9116 43.6177 39.8457 43.395 39.7139 43.2515C39.585 43.105 39.3726 43.0317 39.0767 43.0317C38.646 43.0317 38.3252 43.2266 38.1143 43.6162V47H37.0464V42.2451H38.0527ZM44.1655 47.0879C43.4888 47.0879 42.9395 46.8755 42.5176 46.4507C42.0986 46.0229 41.8892 45.4546 41.8892 44.7456V44.6138C41.8892 44.1392 41.98 43.7158 42.1616 43.3438C42.3462 42.9688 42.604 42.6772 42.9351 42.4692C43.2661 42.2612 43.6353 42.1572 44.0425 42.1572C44.6899 42.1572 45.1895 42.3638 45.541 42.7769C45.8955 43.1899 46.0728 43.7744 46.0728 44.5303V44.9609H42.9658C42.998 45.3535 43.1284 45.6641 43.3569 45.8926C43.5884 46.1211 43.8784 46.2354 44.2271 46.2354C44.7163 46.2354 45.1147 46.0376 45.4224 45.6421L45.998 46.1914C45.8076 46.4756 45.5527 46.6968 45.2334 46.855C44.917 47.0103 44.561 47.0879 44.1655 47.0879ZM44.0381 43.0142C43.7451 43.0142 43.5078 43.1167 43.3262 43.3218C43.1475 43.5269 43.0332 43.8125 42.9834 44.1787H45.0181V44.0996C44.9946 43.7422 44.8994 43.4727 44.7324 43.291C44.5654 43.1064 44.334 43.0142 44.0381 43.0142ZM49.5708 45.708C49.5708 45.5176 49.4917 45.3726 49.3335 45.2729C49.1782 45.1733 48.9189 45.0854 48.5557 45.0093C48.1924 44.9331 47.8892 44.8364 47.646 44.7192C47.1128 44.4614 46.8462 44.0879 46.8462 43.5986C46.8462 43.1885 47.019 42.8457 47.3647 42.5703C47.7104 42.2949 48.1499 42.1572 48.6831 42.1572C49.2515 42.1572 49.71 42.2979 50.0586 42.5791C50.4102 42.8604 50.5859 43.2251 50.5859 43.6733H49.5181C49.5181 43.4683 49.4419 43.2983 49.2896 43.1636C49.1372 43.0259 48.9351 42.957 48.6831 42.957C48.4487 42.957 48.2568 43.0112 48.1074 43.1196C47.9609 43.228 47.8877 43.373 47.8877 43.5547C47.8877 43.7188 47.9565 43.8462 48.0942 43.937C48.2319 44.0278 48.5103 44.1201 48.9292 44.2139C49.3481 44.3047 49.6763 44.4146 49.9136 44.5435C50.1538 44.6694 50.3311 44.8218 50.4453 45.0005C50.5625 45.1792 50.6211 45.396 50.6211 45.6509C50.6211 46.0786 50.4438 46.4258 50.0894 46.6924C49.7349 46.9561 49.2705 47.0879 48.6963 47.0879C48.3066 47.0879 47.9595 47.0176 47.6548 46.877C47.3501 46.7363 47.1128 46.543 46.9429 46.2969C46.7729 46.0508 46.688 45.7856 46.688 45.5015H47.7251C47.7397 45.7534 47.835 45.9482 48.0107 46.0859C48.1865 46.2207 48.4194 46.2881 48.7095 46.2881C48.9907 46.2881 49.2046 46.2354 49.3511 46.1299C49.4976 46.0215 49.5708 45.8809 49.5708 45.708ZM55.4595 45.4707L56.4263 42.2451H57.5645L55.6748 47.7207C55.3848 48.5205 54.8926 48.9204 54.1982 48.9204C54.043 48.9204 53.8716 48.894 53.6841 48.8413V48.0151L53.8862 48.0283C54.1558 48.0283 54.3579 47.9785 54.4927 47.8789C54.6304 47.7822 54.7388 47.6182 54.8179 47.3867L54.9717 46.978L53.3018 42.2451H54.4531L55.4595 45.4707ZM18.9761 53.6465L19.9824 50.2451H21.0854L19.4375 55H18.5103L16.8491 50.2451H17.9565L18.9761 53.6465ZM24.5264 55C24.4795 54.9092 24.4385 54.7612 24.4033 54.5562C24.0635 54.9106 23.6475 55.0879 23.1553 55.0879C22.6777 55.0879 22.2881 54.9517 21.9863 54.6792C21.6846 54.4067 21.5337 54.0698 21.5337 53.6685C21.5337 53.1616 21.7212 52.7734 22.0962 52.5039C22.4741 52.2314 23.0132 52.0952 23.7134 52.0952H24.3682V51.7832C24.3682 51.5371 24.2993 51.3408 24.1616 51.1943C24.0239 51.0449 23.8145 50.9702 23.5332 50.9702C23.29 50.9702 23.0908 51.0317 22.9355 51.1548C22.7803 51.2749 22.7026 51.4287 22.7026 51.6162H21.6348C21.6348 51.3555 21.7212 51.1123 21.894 50.8867C22.0669 50.6582 22.3013 50.4795 22.5972 50.3506C22.896 50.2217 23.2285 50.1572 23.5947 50.1572C24.1514 50.1572 24.5952 50.2979 24.9263 50.5791C25.2573 50.8574 25.4272 51.25 25.436 51.7568V53.9014C25.436 54.3291 25.4961 54.6704 25.6162 54.9253V55H24.5264ZM23.353 54.231C23.564 54.231 23.7617 54.1797 23.9463 54.0771C24.1338 53.9746 24.2744 53.8369 24.3682 53.6641V52.7676H23.7925C23.397 52.7676 23.0996 52.8364 22.9004 52.9741C22.7012 53.1118 22.6016 53.3066 22.6016 53.5586C22.6016 53.7637 22.6689 53.9277 22.8037 54.0508C22.9414 54.1709 23.1245 54.231 23.353 54.231ZM28.5078 54.2354C28.7744 54.2354 28.9956 54.1577 29.1714 54.0024C29.3472 53.8472 29.4409 53.6553 29.4526 53.4268H30.459C30.4473 53.7227 30.355 53.9995 30.1821 54.2573C30.0093 54.5122 29.7749 54.7144 29.479 54.8638C29.1831 55.0132 28.8638 55.0879 28.521 55.0879C27.856 55.0879 27.3286 54.8726 26.939 54.4419C26.5493 54.0112 26.3545 53.4165 26.3545 52.6577V52.5479C26.3545 51.8242 26.5479 51.2456 26.9346 50.812C27.3213 50.3755 27.8486 50.1572 28.5166 50.1572C29.082 50.1572 29.542 50.3228 29.8965 50.6538C30.2539 50.9819 30.4414 51.4141 30.459 51.9502H29.4526C29.4409 51.6777 29.3472 51.4536 29.1714 51.2778C28.9985 51.1021 28.7773 51.0142 28.5078 51.0142C28.1621 51.0142 27.8955 51.1401 27.708 51.3921C27.5205 51.6411 27.4253 52.0205 27.4224 52.5303V52.7017C27.4224 53.2173 27.5146 53.6025 27.6992 53.8574C27.8867 54.1094 28.1562 54.2354 28.5078 54.2354ZM34.146 54.5342C33.8325 54.9033 33.3872 55.0879 32.8101 55.0879C32.2944 55.0879 31.9033 54.937 31.6367 54.6353C31.373 54.3335 31.2412 53.897 31.2412 53.3257V50.2451H32.3091V53.3125C32.3091 53.916 32.5596 54.2178 33.0605 54.2178C33.5791 54.2178 33.9292 54.0317 34.1108 53.6597V50.2451H35.1787V55H34.1724L34.146 54.5342ZM37.2573 50.2451L37.2881 50.7944C37.6396 50.3696 38.1011 50.1572 38.6724 50.1572C39.6626 50.1572 40.1665 50.7241 40.1841 51.8579V55H39.1162V51.9194C39.1162 51.6177 39.0503 51.395 38.9185 51.2515C38.7896 51.105 38.5771 51.0317 38.2812 51.0317C37.8506 51.0317 37.5298 51.2266 37.3188 51.6162V55H36.251V50.2451H37.2573ZM44.1172 55C44.0703 54.9092 44.0293 54.7612 43.9941 54.5562C43.6543 54.9106 43.2383 55.0879 42.7461 55.0879C42.2686 55.0879 41.8789 54.9517 41.5771 54.6792C41.2754 54.4067 41.1245 54.0698 41.1245 53.6685C41.1245 53.1616 41.312 52.7734 41.687 52.5039C42.0649 52.2314 42.604 52.0952 43.3042 52.0952H43.959V51.7832C43.959 51.5371 43.8901 51.3408 43.7524 51.1943C43.6147 51.0449 43.4053 50.9702 43.124 50.9702C42.8809 50.9702 42.6816 51.0317 42.5264 51.1548C42.3711 51.2749 42.2935 51.4287 42.2935 51.6162H41.2256C41.2256 51.3555 41.312 51.1123 41.4849 50.8867C41.6577 50.6582 41.8921 50.4795 42.188 50.3506C42.4868 50.2217 42.8193 50.1572 43.1855 50.1572C43.7422 50.1572 44.186 50.2979 44.5171 50.5791C44.8481 50.8574 45.0181 51.25 45.0269 51.7568V53.9014C45.0269 54.3291 45.0869 54.6704 45.207 54.9253V55H44.1172ZM42.9438 54.231C43.1548 54.231 43.3525 54.1797 43.5371 54.0771C43.7246 53.9746 43.8652 53.8369 43.959 53.6641V52.7676H43.3833C42.9878 52.7676 42.6904 52.8364 42.4912 52.9741C42.292 53.1118 42.1924 53.3066 42.1924 53.5586C42.1924 53.7637 42.2598 53.9277 42.3945 54.0508C42.5322 54.1709 42.7153 54.231 42.9438 54.231ZM48.8105 53.708C48.8105 53.5176 48.7314 53.3726 48.5732 53.2729C48.418 53.1733 48.1587 53.0854 47.7954 53.0093C47.4321 52.9331 47.1289 52.8364 46.8857 52.7192C46.3525 52.4614 46.0859 52.0879 46.0859 51.5986C46.0859 51.1885 46.2588 50.8457 46.6045 50.5703C46.9502 50.2949 47.3896 50.1572 47.9229 50.1572C48.4912 50.1572 48.9497 50.2979 49.2983 50.5791C49.6499 50.8604 49.8257 51.2251 49.8257 51.6733H48.7578C48.7578 51.4683 48.6816 51.2983 48.5293 51.1636C48.377 51.0259 48.1748 50.957 47.9229 50.957C47.6885 50.957 47.4966 51.0112 47.3472 51.1196C47.2007 51.228 47.1274 51.373 47.1274 51.5547C47.1274 51.7188 47.1963 51.8462 47.334 51.937C47.4717 52.0278 47.75 52.1201 48.1689 52.2139C48.5879 52.3047 48.916 52.4146 49.1533 52.5435C49.3936 52.6694 49.5708 52.8218 49.6851 53.0005C49.8022 53.1792 49.8608 53.396 49.8608 53.6509C49.8608 54.0786 49.6836 54.4258 49.3291 54.6924C48.9746 54.9561 48.5103 55.0879 47.936 55.0879C47.5464 55.0879 47.1992 55.0176 46.8945 54.877C46.5898 54.7363 46.3525 54.543 46.1826 54.2969C46.0127 54.0508 45.9277 53.7856 45.9277 53.5015H46.9648C46.9795 53.7534 47.0747 53.9482 47.2505 54.0859C47.4263 54.2207 47.6592 54.2881 47.9492 54.2881C48.2305 54.2881 48.4443 54.2354 48.5908 54.1299C48.7373 54.0215 48.8105 53.8809 48.8105 53.708Z" fill="#7C7C7C"/>
</svg>
