<svg width="67" height="50" viewBox="0 0 67 50" fill="none" xmlns="http://www.w3.org/2000/svg">
<path d="M46.9003 4.42985H38.5664C37.729 2.34835 35.5358 0.841064 32.9439 0.841064C30.352 0.841064 28.1589 2.34835 27.3215 4.42985H18.9875C17.93 4.42985 16.9157 4.80795 16.1679 5.48098C15.4201 6.15401 15 7.06683 15 8.01863V33.1401C15 34.0919 15.4201 35.0048 16.1679 35.6778C16.9157 36.3508 17.93 36.7289 18.9875 36.7289H46.9003C47.9579 36.7289 48.9721 36.3508 49.7199 35.6778C50.4677 35.0048 50.8879 34.0919 50.8879 33.1401V8.01863C50.8879 7.06683 50.4677 6.15401 49.7199 5.48098C48.9721 4.80795 47.9579 4.42985 46.9003 4.42985ZM32.9439 4.42985C33.4727 4.42985 33.9798 4.6189 34.3537 4.95541C34.7276 5.29193 34.9377 5.74834 34.9377 6.22424C34.9377 6.70014 34.7276 7.15656 34.3537 7.49307C33.9798 7.82958 33.4727 8.01863 32.9439 8.01863C32.4151 8.01863 31.908 7.82958 31.5341 7.49307C31.1602 7.15656 30.9502 6.70014 30.9502 6.22424C30.9502 5.74834 31.1602 5.29193 31.5341 4.95541C31.908 4.6189 32.4151 4.42985 32.9439 4.42985ZM34.9377 20.5794H40.919V24.1682H34.9377V29.5513H30.9502V24.1682H24.9688V20.5794H30.9502V15.1962H34.9377V20.5794Z" fill="#5B7288"/>
<path d="M6.02539 48H4.91797V41.6016H6.02539V48ZM8.27979 43.2451L8.31055 43.7944C8.66211 43.3696 9.12354 43.1572 9.69482 43.1572C10.6851 43.1572 11.189 43.7241 11.2065 44.8579V48H10.1387V44.9194C10.1387 44.6177 10.0728 44.395 9.94092 44.2515C9.81201 44.105 9.59961 44.0317 9.30371 44.0317C8.87305 44.0317 8.55225 44.2266 8.34131 44.6162V48H7.27344V43.2451H8.27979ZM14.252 47.2354C14.5186 47.2354 14.7397 47.1577 14.9155 47.0024C15.0913 46.8472 15.1851 46.6553 15.1968 46.4268H16.2031C16.1914 46.7227 16.0991 46.9995 15.9263 47.2573C15.7534 47.5122 15.519 47.7144 15.2231 47.8638C14.9272 48.0132 14.6079 48.0879 14.2651 48.0879C13.6001 48.0879 13.0728 47.8726 12.6831 47.4419C12.2935 47.0112 12.0986 46.4165 12.0986 45.6577V45.5479C12.0986 44.8242 12.292 44.2456 12.6787 43.812C13.0654 43.3755 13.5928 43.1572 14.2607 43.1572C14.8262 43.1572 15.2861 43.3228 15.6406 43.6538C15.998 43.9819 16.1855 44.4141 16.2031 44.9502H15.1968C15.1851 44.6777 15.0913 44.4536 14.9155 44.2778C14.7427 44.1021 14.5215 44.0142 14.252 44.0142C13.9062 44.0142 13.6396 44.1401 13.4521 44.3921C13.2646 44.6411 13.1694 45.0205 13.1665 45.5303V45.7017C13.1665 46.2173 13.2588 46.6025 13.4434 46.8574C13.6309 47.1094 13.9004 47.2354 14.252 47.2354ZM19.8506 48C19.8037 47.9092 19.7627 47.7612 19.7275 47.5562C19.3877 47.9106 18.9717 48.0879 18.4795 48.0879C18.002 48.0879 17.6123 47.9517 17.3105 47.6792C17.0088 47.4067 16.8579 47.0698 16.8579 46.6685C16.8579 46.1616 17.0454 45.7734 17.4204 45.5039C17.7983 45.2314 18.3374 45.0952 19.0376 45.0952H19.6924V44.7832C19.6924 44.5371 19.6235 44.3408 19.4858 44.1943C19.3481 44.0449 19.1387 43.9702 18.8574 43.9702C18.6143 43.9702 18.415 44.0317 18.2598 44.1548C18.1045 44.2749 18.0269 44.4287 18.0269 44.6162H16.959C16.959 44.3555 17.0454 44.1123 17.2183 43.8867C17.3911 43.6582 17.6255 43.4795 17.9214 43.3506C18.2202 43.2217 18.5527 43.1572 18.9189 43.1572C19.4756 43.1572 19.9194 43.2979 20.2505 43.5791C20.5815 43.8574 20.7515 44.25 20.7603 44.7568V46.9014C20.7603 47.3291 20.8203 47.6704 20.9404 47.9253V48H19.8506ZM18.6772 47.231C18.8882 47.231 19.0859 47.1797 19.2705 47.0771C19.458 46.9746 19.5986 46.8369 19.6924 46.6641V45.7676H19.1167C18.7212 45.7676 18.4238 45.8364 18.2246 45.9741C18.0254 46.1118 17.9258 46.3066 17.9258 46.5586C17.9258 46.7637 17.9932 46.9277 18.1279 47.0508C18.2656 47.1709 18.4487 47.231 18.6772 47.231ZM26.0425 45.6709C26.0425 46.4062 25.8755 46.9937 25.5415 47.4331C25.2075 47.8696 24.7593 48.0879 24.1968 48.0879C23.6753 48.0879 23.2578 47.9165 22.9443 47.5737V49.8281H21.8765V43.2451H22.8608L22.9048 43.7285C23.2183 43.3477 23.6445 43.1572 24.1836 43.1572C24.7637 43.1572 25.2178 43.374 25.5459 43.8076C25.877 44.2383 26.0425 44.8374 26.0425 45.605V45.6709ZM24.979 45.5786C24.979 45.104 24.8838 44.7275 24.6934 44.4492C24.5059 44.1709 24.2363 44.0317 23.8848 44.0317C23.4482 44.0317 23.1348 44.2119 22.9443 44.5723V46.6816C23.1377 47.0508 23.4541 47.2354 23.8936 47.2354C24.2334 47.2354 24.4985 47.0991 24.689 46.8267C24.8823 46.5513 24.979 46.1353 24.979 45.5786ZM29.791 48C29.7441 47.9092 29.7031 47.7612 29.668 47.5562C29.3281 47.9106 28.9121 48.0879 28.4199 48.0879C27.9424 48.0879 27.5527 47.9517 27.251 47.6792C26.9492 47.4067 26.7983 47.0698 26.7983 46.6685C26.7983 46.1616 26.9858 45.7734 27.3608 45.5039C27.7388 45.2314 28.2778 45.0952 28.978 45.0952H29.6328V44.7832C29.6328 44.5371 29.564 44.3408 29.4263 44.1943C29.2886 44.0449 29.0791 43.9702 28.7979 43.9702C28.5547 43.9702 28.3555 44.0317 28.2002 44.1548C28.0449 44.2749 27.9673 44.4287 27.9673 44.6162H26.8994C26.8994 44.3555 26.9858 44.1123 27.1587 43.8867C27.3315 43.6582 27.5659 43.4795 27.8618 43.3506C28.1606 43.2217 28.4932 43.1572 28.8594 43.1572C29.416 43.1572 29.8599 43.2979 30.1909 43.5791C30.522 43.8574 30.6919 44.25 30.7007 44.7568V46.9014C30.7007 47.3291 30.7607 47.6704 30.8809 47.9253V48H29.791ZM28.6177 47.231C28.8286 47.231 29.0264 47.1797 29.2109 47.0771C29.3984 46.9746 29.5391 46.8369 29.6328 46.6641V45.7676H29.0571C28.6616 45.7676 28.3643 45.8364 28.165 45.9741C27.9658 46.1118 27.8662 46.3066 27.8662 46.5586C27.8662 46.7637 27.9336 46.9277 28.0684 47.0508C28.2061 47.1709 28.3892 47.231 28.6177 47.231ZM33.7725 47.2354C34.0391 47.2354 34.2603 47.1577 34.436 47.0024C34.6118 46.8472 34.7056 46.6553 34.7173 46.4268H35.7236C35.7119 46.7227 35.6196 46.9995 35.4468 47.2573C35.2739 47.5122 35.0396 47.7144 34.7437 47.8638C34.4478 48.0132 34.1284 48.0879 33.7856 48.0879C33.1206 48.0879 32.5933 47.8726 32.2036 47.4419C31.814 47.0112 31.6191 46.4165 31.6191 45.6577V45.5479C31.6191 44.8242 31.8125 44.2456 32.1992 43.812C32.5859 43.3755 33.1133 43.1572 33.7812 43.1572C34.3467 43.1572 34.8066 43.3228 35.1611 43.6538C35.5186 43.9819 35.7061 44.4141 35.7236 44.9502H34.7173C34.7056 44.6777 34.6118 44.4536 34.436 44.2778C34.2632 44.1021 34.042 44.0142 33.7725 44.0142C33.4268 44.0142 33.1602 44.1401 32.9727 44.3921C32.7852 44.6411 32.6899 45.0205 32.687 45.5303V45.7017C32.687 46.2173 32.7793 46.6025 32.9639 46.8574C33.1514 47.1094 33.4209 47.2354 33.7725 47.2354ZM37.666 48H36.5981V43.2451H37.666V48ZM36.5322 42.0103C36.5322 41.8462 36.5835 41.71 36.686 41.6016C36.7915 41.4932 36.9409 41.439 37.1343 41.439C37.3276 41.439 37.4771 41.4932 37.5825 41.6016C37.688 41.71 37.7407 41.8462 37.7407 42.0103C37.7407 42.1714 37.688 42.3062 37.5825 42.4146C37.4771 42.52 37.3276 42.5728 37.1343 42.5728C36.9409 42.5728 36.7915 42.52 36.686 42.4146C36.5835 42.3062 36.5322 42.1714 36.5322 42.0103ZM38.6328 45.5874C38.6328 44.855 38.8027 44.2676 39.1426 43.8252C39.4824 43.3799 39.938 43.1572 40.5093 43.1572C41.0132 43.1572 41.4204 43.333 41.731 43.6846V41.25H42.7988V48H41.832L41.7793 47.5078C41.46 47.8945 41.0337 48.0879 40.5005 48.0879C39.9438 48.0879 39.4927 47.8638 39.147 47.4155C38.8042 46.9673 38.6328 46.3579 38.6328 45.5874ZM39.7007 45.6797C39.7007 46.1631 39.793 46.541 39.9775 46.8135C40.165 47.083 40.4302 47.2178 40.7729 47.2178C41.2095 47.2178 41.5288 47.0229 41.731 46.6333V44.603C41.5347 44.2222 41.2183 44.0317 40.7817 44.0317C40.436 44.0317 40.1694 44.1694 39.9819 44.4448C39.7944 44.7173 39.7007 45.1289 39.7007 45.6797ZM46.7539 48C46.707 47.9092 46.666 47.7612 46.6309 47.5562C46.291 47.9106 45.875 48.0879 45.3828 48.0879C44.9053 48.0879 44.5156 47.9517 44.2139 47.6792C43.9121 47.4067 43.7612 47.0698 43.7612 46.6685C43.7612 46.1616 43.9487 45.7734 44.3237 45.5039C44.7017 45.2314 45.2407 45.0952 45.9409 45.0952H46.5957V44.7832C46.5957 44.5371 46.5269 44.3408 46.3892 44.1943C46.2515 44.0449 46.042 43.9702 45.7607 43.9702C45.5176 43.9702 45.3184 44.0317 45.1631 44.1548C45.0078 44.2749 44.9302 44.4287 44.9302 44.6162H43.8623C43.8623 44.3555 43.9487 44.1123 44.1216 43.8867C44.2944 43.6582 44.5288 43.4795 44.8247 43.3506C45.1235 43.2217 45.4561 43.1572 45.8223 43.1572C46.3789 43.1572 46.8228 43.2979 47.1538 43.5791C47.4849 43.8574 47.6548 44.25 47.6636 44.7568V46.9014C47.6636 47.3291 47.7236 47.6704 47.8438 47.9253V48H46.7539ZM45.5806 47.231C45.7915 47.231 45.9893 47.1797 46.1738 47.0771C46.3613 46.9746 46.502 46.8369 46.5957 46.6641V45.7676H46.02C45.6245 45.7676 45.3271 45.8364 45.1279 45.9741C44.9287 46.1118 44.8291 46.3066 44.8291 46.5586C44.8291 46.7637 44.8965 46.9277 45.0312 47.0508C45.1689 47.1709 45.3521 47.231 45.5806 47.231ZM48.582 45.5874C48.582 44.855 48.752 44.2676 49.0918 43.8252C49.4316 43.3799 49.8872 43.1572 50.4585 43.1572C50.9624 43.1572 51.3696 43.333 51.6802 43.6846V41.25H52.748V48H51.7812L51.7285 47.5078C51.4092 47.8945 50.9829 48.0879 50.4497 48.0879C49.8931 48.0879 49.4419 47.8638 49.0962 47.4155C48.7534 46.9673 48.582 46.3579 48.582 45.5874ZM49.6499 45.6797C49.6499 46.1631 49.7422 46.541 49.9268 46.8135C50.1143 47.083 50.3794 47.2178 50.7222 47.2178C51.1587 47.2178 51.478 47.0229 51.6802 46.6333V44.603C51.4839 44.2222 51.1675 44.0317 50.731 44.0317C50.3853 44.0317 50.1187 44.1694 49.9312 44.4448C49.7437 44.7173 49.6499 45.1289 49.6499 45.6797ZM55.9561 48.0879C55.2793 48.0879 54.73 47.8755 54.3081 47.4507C53.8892 47.0229 53.6797 46.4546 53.6797 45.7456V45.6138C53.6797 45.1392 53.7705 44.7158 53.9521 44.3438C54.1367 43.9688 54.3945 43.6772 54.7256 43.4692C55.0566 43.2612 55.4258 43.1572 55.833 43.1572C56.4805 43.1572 56.98 43.3638 57.3315 43.7769C57.686 44.1899 57.8633 44.7744 57.8633 45.5303V45.9609H54.7563C54.7886 46.3535 54.9189 46.6641 55.1475 46.8926C55.3789 47.1211 55.6689 47.2354 56.0176 47.2354C56.5068 47.2354 56.9053 47.0376 57.2129 46.6421L57.7886 47.1914C57.5981 47.4756 57.3433 47.6968 57.0239 47.855C56.7075 48.0103 56.3516 48.0879 55.9561 48.0879ZM55.8286 44.0142C55.5356 44.0142 55.2983 44.1167 55.1167 44.3218C54.938 44.5269 54.8237 44.8125 54.7739 45.1787H56.8086V45.0996C56.7852 44.7422 56.6899 44.4727 56.5229 44.291C56.356 44.1064 56.1245 44.0142 55.8286 44.0142ZM61.3613 46.708C61.3613 46.5176 61.2822 46.3726 61.124 46.2729C60.9688 46.1733 60.7095 46.0854 60.3462 46.0093C59.9829 45.9331 59.6797 45.8364 59.4365 45.7192C58.9033 45.4614 58.6367 45.0879 58.6367 44.5986C58.6367 44.1885 58.8096 43.8457 59.1553 43.5703C59.501 43.2949 59.9404 43.1572 60.4736 43.1572C61.042 43.1572 61.5005 43.2979 61.8491 43.5791C62.2007 43.8604 62.3765 44.2251 62.3765 44.6733H61.3086C61.3086 44.4683 61.2324 44.2983 61.0801 44.1636C60.9277 44.0259 60.7256 43.957 60.4736 43.957C60.2393 43.957 60.0474 44.0112 59.8979 44.1196C59.7515 44.228 59.6782 44.373 59.6782 44.5547C59.6782 44.7188 59.7471 44.8462 59.8848 44.937C60.0225 45.0278 60.3008 45.1201 60.7197 45.2139C61.1387 45.3047 61.4668 45.4146 61.7041 45.5435C61.9443 45.6694 62.1216 45.8218 62.2358 46.0005C62.353 46.1792 62.4116 46.396 62.4116 46.6509C62.4116 47.0786 62.2344 47.4258 61.8799 47.6924C61.5254 47.9561 61.061 48.0879 60.4868 48.0879C60.0972 48.0879 59.75 48.0176 59.4453 47.877C59.1406 47.7363 58.9033 47.543 58.7334 47.2969C58.5635 47.0508 58.4785 46.7856 58.4785 46.5015H59.5156C59.5303 46.7534 59.6255 46.9482 59.8013 47.0859C59.9771 47.2207 60.21 47.2881 60.5 47.2881C60.7812 47.2881 60.9951 47.2354 61.1416 47.1299C61.2881 47.0215 61.3613 46.8809 61.3613 46.708Z" fill="#7C7C7C"/>
</svg>
